<svg width="270" height="68" viewBox="0 0 270 68" fill="none" xmlns="http://www.w3.org/2000/svg">
<rect width="270" height="68" rx="8" fill="url(#paint0_linear_344_180)"/>
<g filter="url(#filter0_d_344_180)">
<path d="M51.0703 42V26H57.1953C58.3516 26 59.3125 26.1823 60.0781 26.5469C60.849 26.9062 61.4245 27.3984 61.8047 28.0234C62.1901 28.6484 62.3828 29.3568 62.3828 30.1484C62.3828 30.7995 62.2578 31.3568 62.0078 31.8203C61.7578 32.2786 61.4219 32.651 61 32.9375C60.5781 33.224 60.1068 33.4297 59.5859 33.5547V33.7109C60.1536 33.7422 60.6979 33.9167 61.2187 34.2344C61.7448 34.5469 62.1745 34.9896 62.5078 35.5625C62.8411 36.1354 63.0078 36.8281 63.0078 37.6406C63.0078 38.4687 62.8073 39.2135 62.4063 39.875C62.0052 40.5312 61.401 41.0495 60.5938 41.4297C59.7865 41.8099 58.7708 42 57.5469 42H51.0703ZM53.9688 39.5781H57.0859C58.138 39.5781 58.8958 39.3776 59.3594 38.9766C59.8281 38.5703 60.0625 38.0495 60.0625 37.4141C60.0625 36.9401 59.9453 36.513 59.7109 36.1328C59.4766 35.7474 59.1432 35.4453 58.7109 35.2266C58.2786 35.0026 57.763 34.8906 57.1641 34.8906H53.9688V39.5781ZM53.9688 32.8047H56.8359C57.3359 32.8047 57.7865 32.7135 58.1875 32.5312C58.5885 32.3437 58.9036 32.0807 59.1328 31.7422C59.3672 31.3984 59.4844 30.9922 59.4844 30.5234C59.4844 29.9036 59.2656 29.3932 58.8281 28.9922C58.3958 28.5911 57.7526 28.3906 56.8984 28.3906H53.9688V32.8047ZM70.7168 42.2344C69.5137 42.2344 68.4746 41.9844 67.5996 41.4844C66.7298 40.9792 66.0605 40.2656 65.5918 39.3437C65.123 38.4167 64.8887 37.3255 64.8887 36.0703C64.8887 34.8359 65.123 33.7526 65.5918 32.8203C66.0658 31.8828 66.7272 31.1536 67.5762 30.6328C68.4251 30.1068 69.4225 29.8438 70.5684 29.8438C71.3079 29.8438 72.0059 29.9635 72.6621 30.2031C73.3236 30.4375 73.9069 30.8021 74.4121 31.2969C74.9225 31.7917 75.3236 32.4219 75.6152 33.1875C75.9069 33.9479 76.0527 34.8542 76.0527 35.9062V36.7734H66.2168V34.8672H73.3418C73.3366 34.3255 73.2194 33.8437 72.9902 33.4219C72.7611 32.9948 72.4408 32.6589 72.0293 32.4141C71.623 32.1693 71.1491 32.0469 70.6074 32.0469C70.0293 32.0469 69.5215 32.1875 69.084 32.4687C68.6465 32.7448 68.3053 33.1094 68.0605 33.5625C67.821 34.0104 67.6986 34.5026 67.6934 35.0391V36.7031C67.6934 37.401 67.821 38 68.0762 38.5C68.3314 38.9948 68.6882 39.375 69.1465 39.6406C69.6048 39.901 70.1413 40.0312 70.7559 40.0312C71.1673 40.0312 71.5397 39.974 71.873 39.8594C72.2064 39.7396 72.4954 39.5651 72.7402 39.3359C72.985 39.1068 73.1699 38.8229 73.2949 38.4844L75.9355 38.7812C75.7689 39.4792 75.4512 40.0885 74.9824 40.6094C74.5189 41.125 73.9251 41.526 73.2012 41.8125C72.4772 42.0937 71.6491 42.2344 70.7168 42.2344ZM78.4453 46.5V30H81.2266V31.9844H81.3906C81.5365 31.6927 81.7422 31.3828 82.0078 31.0547C82.2734 30.7214 82.6328 30.4375 83.0859 30.2031C83.5391 29.9635 84.1172 29.8438 84.8203 29.8438C85.7474 29.8438 86.5833 30.0807 87.3281 30.5547C88.0781 31.0234 88.6719 31.7187 89.1094 32.6406C89.5521 33.5573 89.7734 34.6823 89.7734 36.0156C89.7734 37.3333 89.5573 38.4531 89.125 39.375C88.6927 40.2969 88.1042 41 87.3594 41.4844C86.6146 41.9688 85.7708 42.2109 84.8281 42.2109C84.1406 42.2109 83.5703 42.0964 83.1172 41.8672C82.6641 41.638 82.2995 41.362 82.0234 41.0391C81.7526 40.7109 81.5417 40.401 81.3906 40.1094H81.2734V46.5H78.4453ZM81.2188 36C81.2188 36.776 81.3281 37.4557 81.5469 38.0391C81.7708 38.6224 82.0911 39.0781 82.5078 39.4062C82.9297 39.7292 83.4401 39.8906 84.0391 39.8906C84.6641 39.8906 85.1875 39.724 85.6094 39.3906C86.0313 39.0521 86.349 38.5911 86.5625 38.0078C86.7813 37.4193 86.8906 36.75 86.8906 36C86.8906 35.2552 86.7839 34.5937 86.5703 34.0156C86.3568 33.4375 86.0391 32.9844 85.6172 32.6562C85.1953 32.3281 84.6693 32.1641 84.0391 32.1641C83.4349 32.1641 82.9219 32.3229 82.5 32.6406C82.0781 32.9583 81.7578 33.4036 81.5391 33.9766C81.3255 34.5495 81.2188 35.224 81.2188 36ZM100.438 34.8281V37.1484H94.0469V34.8281H100.438ZM94.9219 30V42H92.1953V30H94.9219ZM102.289 30V42H99.5703V30H102.289ZM106.479 46.5C106.093 46.5 105.736 46.4688 105.408 46.4063C105.085 46.349 104.827 46.2813 104.635 46.2031L105.291 44C105.702 44.1198 106.07 44.1771 106.393 44.1719C106.715 44.1667 106.999 44.0651 107.244 43.8672C107.494 43.6745 107.705 43.3516 107.877 42.8984L108.119 42.25L103.768 30H106.768L109.533 39.0625H109.658L112.432 30H115.439L110.635 43.4531C110.411 44.0885 110.114 44.6328 109.744 45.0859C109.374 45.5443 108.921 45.8932 108.385 46.1328C107.854 46.3776 107.218 46.5 106.479 46.5ZM116.74 32.3203V30H127.24V32.3203H123.357V42H120.623V32.3203H116.74ZM131.406 33.9062H134.945C136.477 33.9062 137.661 34.2786 138.5 35.0234C139.339 35.7682 139.76 36.7448 139.766 37.9531C139.76 38.7396 139.568 39.4375 139.188 40.0469C138.813 40.6562 138.266 41.1354 137.547 41.4844C136.833 41.8281 135.966 42 134.945 42H129.492V30H132.219V39.6797H134.945C135.56 39.6797 136.065 39.5234 136.461 39.2109C136.857 38.8932 137.055 38.487 137.055 37.9922C137.055 37.4714 136.857 37.0469 136.461 36.7187C136.065 36.3906 135.56 36.2266 134.945 36.2266H131.406V33.9062ZM147.424 42.2344C146.226 42.2344 145.197 41.9714 144.338 41.4453C143.484 40.9193 142.825 40.1927 142.361 39.2656C141.903 38.3333 141.674 37.2604 141.674 36.0469C141.674 34.8281 141.908 33.7526 142.377 32.8203C142.846 31.8828 143.507 31.1536 144.361 30.6328C145.221 30.1068 146.236 29.8438 147.408 29.8438C148.382 29.8438 149.244 30.0234 149.994 30.3828C150.749 30.737 151.351 31.2396 151.799 31.8906C152.247 32.5365 152.502 33.2917 152.564 34.1562H149.861C149.752 33.5781 149.492 33.0964 149.08 32.7109C148.674 32.3203 148.13 32.125 147.447 32.125C146.869 32.125 146.361 32.2812 145.924 32.5937C145.486 32.901 145.145 33.3437 144.9 33.9219C144.661 34.5 144.541 35.1927 144.541 36C144.541 36.8177 144.661 37.5208 144.9 38.1094C145.14 38.6927 145.476 39.1432 145.908 39.4609C146.346 39.7734 146.859 39.9297 147.447 39.9297C147.864 39.9297 148.236 39.8516 148.564 39.6953C148.898 39.5339 149.176 39.3021 149.4 39C149.624 38.6979 149.778 38.3307 149.861 37.8984H152.564C152.497 38.7474 152.247 39.5 151.814 40.1562C151.382 40.8073 150.794 41.3177 150.049 41.6875C149.304 42.0521 148.429 42.2344 147.424 42.2344ZM161.98 42V32.2969H159.418C158.767 32.2969 158.267 32.4479 157.918 32.75C157.569 33.0521 157.397 33.4271 157.402 33.875C157.397 34.3229 157.561 34.6927 157.895 34.9844C158.228 35.276 158.704 35.4219 159.324 35.4219H162.871V37.4844H159.324C158.366 37.4844 157.538 37.3333 156.84 37.0312C156.142 36.7292 155.605 36.3021 155.23 35.75C154.855 35.1979 154.668 34.5521 154.668 33.8125C154.668 33.0417 154.858 32.3724 155.238 31.8047C155.624 31.2318 156.171 30.7891 156.879 30.4766C157.592 30.1589 158.439 30 159.418 30H164.629V42H161.98ZM154.23 42L157.582 35.8437H160.371L157.012 42H154.23ZM172.934 42V30H175.762V34.8437H176.793L180.402 30H183.809L179.363 35.8906L183.855 42H180.434L177.145 37.4766H175.762V42H172.934ZM190.338 28.4297V26H203.104V28.4297H198.158V42H195.283V28.4297H190.338ZM218.619 26V42H215.744V28.4062H208.744V42H205.869V26H218.619Z" fill="white"/>
</g>
<defs>
<filter id="filter0_d_344_180" x="48.0703" y="23" width="173.549" height="26.5" filterUnits="userSpaceOnUse" color-interpolation-filters="sRGB">
<feFlood flood-opacity="0" result="BackgroundImageFix"/>
<feColorMatrix in="SourceAlpha" type="matrix" values="0 0 0 0 0 0 0 0 0 0 0 0 0 0 0 0 0 0 127 0" result="hardAlpha"/>
<feOffset/>
<feGaussianBlur stdDeviation="1.5"/>
<feComposite in2="hardAlpha" operator="out"/>
<feColorMatrix type="matrix" values="0 0 0 0 0 0 0 0 0 0 0 0 0 0 0 0 0 0 0.3 0"/>
<feBlend mode="normal" in2="BackgroundImageFix" result="effect1_dropShadow_344_180"/>
<feBlend mode="normal" in="SourceGraphic" in2="effect1_dropShadow_344_180" result="shape"/>
</filter>
<linearGradient id="paint0_linear_344_180" x1="0.912277" y1="-0.193456" x2="20.6817" y2="112.044" gradientUnits="userSpaceOnUse">
<stop stop-color="#F05B38"/>
<stop offset="1" stop-color="#E4380F"/>
</linearGradient>
</defs>
</svg>
