<svg width="270" height="68" viewBox="0 0 270 68" fill="none" xmlns="http://www.w3.org/2000/svg">
<rect width="270" height="68" rx="8" fill="url(#paint0_linear_344_204)"/>
<g filter="url(#filter0_d_344_204)">
<path d="M92.8896 42V26H99.0146C100.171 26 101.132 26.1823 101.897 26.5469C102.668 26.9062 103.244 27.3984 103.624 28.0234C104.009 28.6484 104.202 29.3568 104.202 30.1484C104.202 30.7995 104.077 31.3568 103.827 31.8203C103.577 32.2786 103.241 32.651 102.819 32.9375C102.397 33.224 101.926 33.4297 101.405 33.5547V33.7109C101.973 33.7422 102.517 33.9167 103.038 34.2344C103.564 34.5469 103.994 34.9896 104.327 35.5625C104.66 36.1354 104.827 36.8281 104.827 37.6406C104.827 38.4687 104.627 39.2135 104.226 39.875C103.825 40.5312 103.22 41.0495 102.413 41.4297C101.606 41.8099 100.59 42 99.3662 42H92.8896ZM95.7881 39.5781H98.9053C99.9574 39.5781 100.715 39.3776 101.179 38.9766C101.647 38.5703 101.882 38.0495 101.882 37.4141C101.882 36.9401 101.765 36.513 101.53 36.1328C101.296 35.7474 100.963 35.4453 100.53 35.2266C100.098 35.0026 99.5824 34.8906 98.9834 34.8906H95.7881V39.5781ZM95.7881 32.8047H98.6553C99.1553 32.8047 99.6058 32.7135 100.007 32.5312C100.408 32.3437 100.723 32.0807 100.952 31.7422C101.187 31.3984 101.304 30.9922 101.304 30.5234C101.304 29.9036 101.085 29.3932 100.647 28.9922C100.215 28.5911 99.5719 28.3906 98.7178 28.3906H95.7881V32.8047ZM117.915 42.2344C116.717 42.2344 115.688 41.9714 114.829 41.4453C113.975 40.9193 113.316 40.1927 112.853 39.2656C112.394 38.3333 112.165 37.2604 112.165 36.0469C112.165 34.8281 112.399 33.7526 112.868 32.8203C113.337 31.8828 113.998 31.1536 114.853 30.6328C115.712 30.1068 116.728 29.8438 117.899 29.8438C118.873 29.8438 119.735 30.0234 120.485 30.3828C121.241 30.737 121.842 31.2396 122.29 31.8906C122.738 32.5365 122.993 33.2917 123.056 34.1562H120.353C120.243 33.5781 119.983 33.0964 119.571 32.7109C119.165 32.3203 118.621 32.125 117.938 32.125C117.36 32.125 116.853 32.2812 116.415 32.5937C115.978 32.901 115.636 33.3437 115.392 33.9219C115.152 34.5 115.032 35.1927 115.032 36C115.032 36.8177 115.152 37.5208 115.392 38.1094C115.631 38.6927 115.967 39.1432 116.399 39.4609C116.837 39.7734 117.35 39.9297 117.938 39.9297C118.355 39.9297 118.728 39.8516 119.056 39.6953C119.389 39.5339 119.668 39.3021 119.892 39C120.116 38.6979 120.269 38.3307 120.353 37.8984H123.056C122.988 38.7474 122.738 39.5 122.306 40.1562C121.873 40.8073 121.285 41.3177 120.54 41.6875C119.795 42.0521 118.92 42.2344 117.915 42.2344ZM127.136 46.5C126.75 46.5 126.394 46.4688 126.065 46.4063C125.743 46.349 125.485 46.2813 125.292 46.2031L125.948 44C126.36 44.1198 126.727 44.1771 127.05 44.1719C127.373 44.1667 127.657 44.0651 127.901 43.8672C128.151 43.6745 128.362 43.3516 128.534 42.8984L128.776 42.25L124.425 30H127.425L130.19 39.0625H130.315L133.089 30H136.097L131.292 43.4531C131.068 44.0885 130.771 44.6328 130.401 45.0859C130.032 45.5443 129.578 45.8932 129.042 46.1328C128.511 46.3776 127.875 46.5 127.136 46.5ZM144.96 38.7109L148.522 30H150.804L145.952 42H143.976L139.233 30H141.491L144.96 38.7109ZM140.78 30V42H138.054V30H140.78ZM149.257 42V30H151.96V42H149.257ZM154.812 42V30H157.64V34.8437H158.671L162.28 30H165.687L161.241 35.8906L165.733 42H162.312L159.022 37.4766H157.64V42H154.812ZM169.224 46.5C168.838 46.5 168.481 46.4688 168.153 46.4063C167.83 46.349 167.573 46.2813 167.38 46.2031L168.036 44C168.448 44.1198 168.815 44.1771 169.138 44.1719C169.461 44.1667 169.744 44.0651 169.989 43.8672C170.239 43.6745 170.45 43.3516 170.622 42.8984L170.864 42.25L166.513 30H169.513L172.278 39.0625H172.403L175.177 30H178.185L173.38 43.4531C173.156 44.0885 172.859 44.6328 172.489 45.0859C172.119 45.5443 171.666 45.8932 171.13 46.1328C170.599 46.3776 169.963 46.5 169.224 46.5Z" fill="white"/>
</g>
<defs>
<filter id="filter0_d_344_204" x="89.8896" y="23" width="91.2949" height="26.5" filterUnits="userSpaceOnUse" color-interpolation-filters="sRGB">
<feFlood flood-opacity="0" result="BackgroundImageFix"/>
<feColorMatrix in="SourceAlpha" type="matrix" values="0 0 0 0 0 0 0 0 0 0 0 0 0 0 0 0 0 0 127 0" result="hardAlpha"/>
<feOffset/>
<feGaussianBlur stdDeviation="1.5"/>
<feComposite in2="hardAlpha" operator="out"/>
<feColorMatrix type="matrix" values="0 0 0 0 0 0 0 0 0 0 0 0 0 0 0 0 0 0 0.3 0"/>
<feBlend mode="normal" in2="BackgroundImageFix" result="effect1_dropShadow_344_204"/>
<feBlend mode="normal" in="SourceGraphic" in2="effect1_dropShadow_344_204" result="shape"/>
</filter>
<linearGradient id="paint0_linear_344_204" x1="0.912277" y1="-0.193456" x2="20.6817" y2="112.044" gradientUnits="userSpaceOnUse">
<stop stop-color="#23A3F9"/>
<stop offset="1" stop-color="#0744E2"/>
</linearGradient>
</defs>
</svg>
