<svg width="270" height="68" viewBox="0 0 270 68" fill="none" xmlns="http://www.w3.org/2000/svg">
<rect width="270" height="68" rx="8" fill="url(#paint0_linear_344_238)"/>
<g filter="url(#filter0_d_344_238)">
<path d="M118.362 42H115.269L120.901 26H124.479L130.12 42H127.026L122.753 29.2812H122.628L118.362 42ZM118.464 35.7266H126.901V38.0547H118.464V35.7266ZM132.103 42V30H134.931V34.8437H135.962L139.571 30H142.978L138.532 35.8906L143.024 42H139.603L136.313 37.4766H134.931V42H132.103ZM143.972 32.3203V30H154.472V32.3203H150.589V42H147.854V32.3203H143.972Z" fill="white"/>
</g>
<defs>
<filter id="filter0_d_344_238" x="112.269" y="23" width="45.2031" height="22" filterUnits="userSpaceOnUse" color-interpolation-filters="sRGB">
<feFlood flood-opacity="0" result="BackgroundImageFix"/>
<feColorMatrix in="SourceAlpha" type="matrix" values="0 0 0 0 0 0 0 0 0 0 0 0 0 0 0 0 0 0 127 0" result="hardAlpha"/>
<feOffset/>
<feGaussianBlur stdDeviation="1.5"/>
<feComposite in2="hardAlpha" operator="out"/>
<feColorMatrix type="matrix" values="0 0 0 0 0 0 0 0 0 0 0 0 0 0 0 0 0 0 0.3 0"/>
<feBlend mode="normal" in2="BackgroundImageFix" result="effect1_dropShadow_344_238"/>
<feBlend mode="normal" in="SourceGraphic" in2="effect1_dropShadow_344_238" result="shape"/>
</filter>
<linearGradient id="paint0_linear_344_238" x1="0.912277" y1="-0.193456" x2="20.6817" y2="112.044" gradientUnits="userSpaceOnUse">
<stop stop-color="#23A3F9"/>
<stop offset="1" stop-color="#0744E2"/>
</linearGradient>
</defs>
</svg>
