<svg width="270" height="68" viewBox="0 0 270 68" fill="none" xmlns="http://www.w3.org/2000/svg">
<rect width="270" height="68" rx="8" fill="white"/>
<path d="M101.304 26V42H98.4287V28.4062H91.4287V42H88.5537V26H101.304ZM104.645 46.5V30H107.427V31.9844H107.591C107.737 31.6927 107.942 31.3828 108.208 31.0547C108.474 30.7214 108.833 30.4375 109.286 30.2031C109.739 29.9635 110.317 29.8438 111.02 29.8438C111.948 29.8438 112.783 30.0807 113.528 30.5547C114.278 31.0234 114.872 31.7187 115.31 32.6406C115.752 33.5573 115.974 34.6823 115.974 36.0156C115.974 37.3333 115.757 38.4531 115.325 39.375C114.893 40.2969 114.304 41 113.56 41.4844C112.815 41.9688 111.971 42.2109 111.028 42.2109C110.341 42.2109 109.77 42.0964 109.317 41.8672C108.864 41.638 108.5 41.362 108.224 41.0391C107.953 40.7109 107.742 40.401 107.591 40.1094H107.474V46.5H104.645ZM107.419 36C107.419 36.776 107.528 37.4557 107.747 38.0391C107.971 38.6224 108.291 39.0781 108.708 39.4062C109.13 39.7292 109.64 39.8906 110.239 39.8906C110.864 39.8906 111.388 39.724 111.81 39.3906C112.231 39.0521 112.549 38.5911 112.763 38.0078C112.981 37.4193 113.091 36.75 113.091 36C113.091 35.2552 112.984 34.5937 112.77 34.0156C112.557 33.4375 112.239 32.9844 111.817 32.6562C111.395 32.3281 110.869 32.1641 110.239 32.1641C109.635 32.1641 109.122 32.3229 108.7 32.6406C108.278 32.9583 107.958 33.4036 107.739 33.9766C107.526 34.5495 107.419 35.224 107.419 36ZM123.63 42.2344C122.458 42.2344 121.442 41.9766 120.583 41.4609C119.724 40.9453 119.057 40.224 118.583 39.2969C118.114 38.3698 117.88 37.2865 117.88 36.0469C117.88 34.8073 118.114 33.7214 118.583 32.7891C119.057 31.8568 119.724 31.1328 120.583 30.6172C121.442 30.1016 122.458 29.8438 123.63 29.8438C124.802 29.8438 125.817 30.1016 126.677 30.6172C127.536 31.1328 128.2 31.8568 128.669 32.7891C129.143 33.7214 129.38 34.8073 129.38 36.0469C129.38 37.2865 129.143 38.3698 128.669 39.2969C128.2 40.224 127.536 40.9453 126.677 41.4609C125.817 41.9766 124.802 42.2344 123.63 42.2344ZM123.645 39.9687C124.281 39.9687 124.812 39.7943 125.239 39.4453C125.666 39.0911 125.984 38.6172 126.192 38.0234C126.406 37.4297 126.513 36.7682 126.513 36.0391C126.513 35.3047 126.406 34.6406 126.192 34.0469C125.984 33.4479 125.666 32.9714 125.239 32.6172C124.812 32.263 124.281 32.0859 123.645 32.0859C122.994 32.0859 122.453 32.263 122.02 32.6172C121.593 32.9714 121.273 33.4479 121.06 34.0469C120.851 34.6406 120.747 35.3047 120.747 36.0391C120.747 36.7682 120.851 37.4297 121.06 38.0234C121.273 38.6172 121.593 39.0911 122.02 39.4453C122.453 39.7943 122.994 39.9687 123.645 39.9687ZM131.78 42V30H136.819C138.241 30 139.364 30.2839 140.186 30.8516C141.015 31.4193 141.429 32.2109 141.429 33.2266C141.429 33.8984 141.194 34.4479 140.726 34.875C140.262 35.2969 139.629 35.5807 138.827 35.7266C139.457 35.7786 140.009 35.9375 140.483 36.2031C140.963 36.4687 141.338 36.8177 141.608 37.25C141.879 37.6823 142.015 38.1797 142.015 38.7422C142.015 39.4036 141.84 39.9792 141.491 40.4687C141.147 40.9531 140.645 41.3307 139.983 41.6016C139.327 41.8672 138.53 42 137.593 42H131.78ZM134.429 39.7734H137.593C138.114 39.7734 138.522 39.651 138.819 39.4062C139.116 39.1562 139.265 38.8177 139.265 38.3906C139.265 37.8958 139.116 37.5078 138.819 37.2266C138.522 36.9401 138.114 36.7969 137.593 36.7969H134.429V39.7734ZM134.429 34.9687H136.874C137.259 34.9687 137.59 34.9141 137.866 34.8047C138.142 34.6901 138.353 34.5313 138.499 34.3281C138.645 34.1198 138.718 33.8724 138.718 33.5859C138.718 33.1745 138.548 32.8516 138.21 32.6172C137.877 32.3828 137.413 32.2656 136.819 32.2656H134.429V34.9687ZM149.583 42.2344C148.411 42.2344 147.395 41.9766 146.536 41.4609C145.677 40.9453 145.01 40.224 144.536 39.2969C144.067 38.3698 143.833 37.2865 143.833 36.0469C143.833 34.8073 144.067 33.7214 144.536 32.7891C145.01 31.8568 145.677 31.1328 146.536 30.6172C147.395 30.1016 148.411 29.8438 149.583 29.8438C150.755 29.8438 151.77 30.1016 152.63 30.6172C153.489 31.1328 154.153 31.8568 154.622 32.7891C155.096 33.7214 155.333 34.8073 155.333 36.0469C155.333 37.2865 155.096 38.3698 154.622 39.2969C154.153 40.224 153.489 40.9453 152.63 41.4609C151.77 41.9766 150.755 42.2344 149.583 42.2344ZM149.599 39.9687C150.234 39.9687 150.765 39.7943 151.192 39.4453C151.619 39.0911 151.937 38.6172 152.145 38.0234C152.359 37.4297 152.466 36.7682 152.466 36.0391C152.466 35.3047 152.359 34.6406 152.145 34.0469C151.937 33.4479 151.619 32.9714 151.192 32.6172C150.765 32.263 150.234 32.0859 149.599 32.0859C148.948 32.0859 148.406 32.263 147.974 32.6172C147.547 32.9714 147.226 33.4479 147.013 34.0469C146.804 34.6406 146.7 35.3047 146.7 36.0391C146.7 36.7682 146.804 37.4297 147.013 38.0234C147.226 38.6172 147.547 39.0911 147.974 39.4453C148.406 39.7943 148.948 39.9687 149.599 39.9687ZM156.671 45.4844V39.6719H157.624C157.879 39.474 158.093 39.2057 158.265 38.8672C158.436 38.5234 158.577 38.1198 158.686 37.6562C158.801 37.1875 158.895 36.6641 158.968 36.0859C159.041 35.5026 159.106 34.875 159.163 34.2031L159.507 30H168.179V39.6719H170.038V45.4844H167.304V42H159.452V45.4844H156.671ZM160.53 39.6719H165.476V32.2812H161.96L161.772 34.2031C161.668 35.474 161.53 36.5625 161.358 37.4687C161.186 38.375 160.91 39.1094 160.53 39.6719ZM175.603 42.2422C174.842 42.2422 174.157 42.1068 173.548 41.8359C172.944 41.5599 172.464 41.1536 172.11 40.6172C171.761 40.0807 171.587 39.4193 171.587 38.6328C171.587 37.9557 171.712 37.3958 171.962 36.9531C172.212 36.5104 172.553 36.1562 172.985 35.8906C173.418 35.625 173.905 35.4245 174.446 35.2891C174.993 35.1484 175.558 35.0469 176.142 34.9844C176.845 34.9115 177.415 34.8464 177.853 34.7891C178.29 34.7266 178.608 34.6328 178.806 34.5078C179.009 34.3776 179.11 34.1771 179.11 33.9062V33.8594C179.11 33.2708 178.936 32.8151 178.587 32.4922C178.238 32.1693 177.735 32.0078 177.079 32.0078C176.386 32.0078 175.837 32.1589 175.431 32.4609C175.03 32.763 174.759 33.1198 174.618 33.5312L171.978 33.1562C172.186 32.4271 172.53 31.8177 173.009 31.3281C173.488 30.8333 174.074 30.4635 174.767 30.2187C175.459 29.9688 176.225 29.8438 177.063 29.8438C177.642 29.8438 178.217 29.9115 178.79 30.0469C179.363 30.1823 179.886 30.4062 180.36 30.7187C180.834 31.026 181.214 31.4453 181.501 31.9766C181.793 32.5078 181.938 33.1719 181.938 33.9687V42H179.22V40.3516H179.126C178.954 40.6849 178.712 40.9974 178.399 41.2891C178.092 41.5755 177.704 41.8073 177.235 41.9844C176.772 42.1563 176.228 42.2422 175.603 42.2422ZM176.337 40.1641C176.905 40.1641 177.397 40.0521 177.813 39.8281C178.23 39.599 178.55 39.2969 178.774 38.9219C179.004 38.5469 179.118 38.138 179.118 37.6953V36.2812C179.03 36.3542 178.879 36.4219 178.665 36.4844C178.457 36.5469 178.222 36.6016 177.962 36.6484C177.701 36.6953 177.444 36.737 177.188 36.7734C176.933 36.8099 176.712 36.8411 176.524 36.8672C176.103 36.9245 175.725 37.0182 175.392 37.1484C175.058 37.2786 174.795 37.4609 174.603 37.6953C174.41 37.9245 174.313 38.2214 174.313 38.5859C174.313 39.1068 174.504 39.5 174.884 39.7656C175.264 40.0312 175.748 40.1641 176.337 40.1641Z" fill="#313F52"/>
</svg>
