<svg width="270" height="68" viewBox="0 0 270 68" fill="none" xmlns="http://www.w3.org/2000/svg">
<rect width="270" height="68" rx="8" fill="url(#paint0_linear_344_207)"/>
<g filter="url(#filter0_d_344_207)">
<path d="M88.582 42.2187C87.457 42.2187 86.457 42.026 85.582 41.6406C84.7122 41.2552 84.0247 40.7187 83.5195 40.0312C83.0143 39.3437 82.7461 38.5495 82.7148 37.6484H85.6523C85.6784 38.0807 85.8216 38.4583 86.082 38.7812C86.3424 39.099 86.6888 39.3464 87.1211 39.5234C87.5534 39.7005 88.0378 39.7891 88.5742 39.7891C89.1471 39.7891 89.6549 39.6901 90.0977 39.4922C90.5404 39.2891 90.8867 39.0078 91.1367 38.6484C91.3867 38.2891 91.5091 37.875 91.5039 37.4062C91.5091 36.9219 91.3841 36.4948 91.1289 36.125C90.8737 35.7552 90.5039 35.4661 90.0195 35.2578C89.5404 35.0495 88.9622 34.9453 88.2852 34.9453H86.8711V32.7109H88.2852C88.8424 32.7109 89.3294 32.6146 89.7461 32.4219C90.168 32.2292 90.4987 31.9583 90.7383 31.6094C90.9779 31.2552 91.0951 30.8464 91.0898 30.3828C91.0951 29.9297 90.9935 29.5365 90.7852 29.2031C90.582 28.8646 90.293 28.6016 89.918 28.4141C89.5482 28.2266 89.1133 28.1328 88.6133 28.1328C88.1237 28.1328 87.6706 28.2214 87.2539 28.3984C86.8372 28.5755 86.5013 28.8281 86.2461 29.1563C85.9909 29.4792 85.8555 29.8646 85.8398 30.3125H83.0508C83.0716 29.4167 83.3294 28.6302 83.8242 27.9531C84.3242 27.2708 84.9909 26.7396 85.8242 26.3594C86.6576 25.974 87.5924 25.7812 88.6289 25.7812C89.6966 25.7812 90.6237 25.9818 91.4102 26.3828C92.2018 26.7786 92.8138 27.3125 93.2461 27.9844C93.6784 28.6562 93.8945 29.3984 93.8945 30.2109C93.8997 31.112 93.6341 31.8672 93.0977 32.4766C92.5664 33.0859 91.8685 33.4844 91.0039 33.6719V33.7969C92.1289 33.9531 92.9909 34.3698 93.5898 35.0469C94.194 35.7187 94.4935 36.5547 94.4883 37.5547C94.4883 38.4505 94.2331 39.2526 93.7227 39.9609C93.2174 40.6641 92.5195 41.2161 91.6289 41.6172C90.7435 42.0182 89.7279 42.2187 88.582 42.2187ZM100.654 42.2422C99.8939 42.2422 99.209 42.1068 98.5996 41.8359C97.9954 41.5599 97.5163 41.1536 97.1621 40.6172C96.8132 40.0807 96.6387 39.4193 96.6387 38.6328C96.6387 37.9557 96.7637 37.3958 97.0137 36.9531C97.2637 36.5104 97.6048 36.1562 98.0371 35.8906C98.4694 35.625 98.9564 35.4245 99.498 35.2891C100.045 35.1484 100.61 35.0469 101.193 34.9844C101.896 34.9115 102.467 34.8464 102.904 34.7891C103.342 34.7266 103.66 34.6328 103.857 34.5078C104.061 34.3776 104.162 34.1771 104.162 33.9062V33.8594C104.162 33.2708 103.988 32.8151 103.639 32.4922C103.29 32.1693 102.787 32.0078 102.131 32.0078C101.438 32.0078 100.889 32.1589 100.482 32.4609C100.081 32.763 99.8105 33.1198 99.6699 33.5312L97.0293 33.1562C97.2376 32.4271 97.5814 31.8177 98.0605 31.3281C98.5397 30.8333 99.1257 30.4635 99.8184 30.2187C100.511 29.9688 101.277 29.8438 102.115 29.8438C102.693 29.8438 103.269 29.9115 103.842 30.0469C104.415 30.1823 104.938 30.4062 105.412 30.7187C105.886 31.026 106.266 31.4453 106.553 31.9766C106.844 32.5078 106.99 33.1719 106.99 33.9687V42H104.271V40.3516H104.178C104.006 40.6849 103.764 40.9974 103.451 41.2891C103.144 41.5755 102.756 41.8073 102.287 41.9844C101.824 42.1563 101.279 42.2422 100.654 42.2422ZM101.389 40.1641C101.956 40.1641 102.449 40.0521 102.865 39.8281C103.282 39.599 103.602 39.2969 103.826 38.9219C104.055 38.5469 104.17 38.138 104.17 37.6953V36.2812C104.081 36.3542 103.93 36.4219 103.717 36.4844C103.508 36.5469 103.274 36.6016 103.014 36.6484C102.753 36.6953 102.495 36.737 102.24 36.7734C101.985 36.8099 101.764 36.8411 101.576 36.8672C101.154 36.9245 100.777 37.0182 100.443 37.1484C100.11 37.2786 99.847 37.4609 99.6543 37.6953C99.4616 37.9245 99.3652 38.2214 99.3652 38.5859C99.3652 39.1068 99.5553 39.5 99.9355 39.7656C100.316 40.0312 100.8 40.1641 101.389 40.1641ZM116.74 38.7109L120.303 30H122.584L117.732 42H115.756L111.014 30H113.271L116.74 38.7109ZM112.561 30V42H109.834V30H112.561ZM121.037 42V30H123.74V42H121.037ZM131.904 42.2344C130.701 42.2344 129.662 41.9844 128.787 41.4844C127.917 40.9792 127.248 40.2656 126.779 39.3437C126.311 38.4167 126.076 37.3255 126.076 36.0703C126.076 34.8359 126.311 33.7526 126.779 32.8203C127.253 31.8828 127.915 31.1536 128.764 30.6328C129.613 30.1068 130.61 29.8438 131.756 29.8438C132.495 29.8438 133.193 29.9635 133.85 30.2031C134.511 30.4375 135.094 30.8021 135.6 31.2969C136.11 31.7917 136.511 32.4219 136.803 33.1875C137.094 33.9479 137.24 34.8542 137.24 35.9062V36.7734H127.404V34.8672H134.529C134.524 34.3255 134.407 33.8437 134.178 33.4219C133.949 32.9948 133.628 32.6589 133.217 32.4141C132.811 32.1693 132.337 32.0469 131.795 32.0469C131.217 32.0469 130.709 32.1875 130.271 32.4687C129.834 32.7448 129.493 33.1094 129.248 33.5625C129.008 34.0104 128.886 34.5026 128.881 35.0391V36.7031C128.881 37.401 129.008 38 129.264 38.5C129.519 38.9948 129.876 39.375 130.334 39.6406C130.792 39.901 131.329 40.0312 131.943 40.0312C132.355 40.0312 132.727 39.974 133.061 39.8594C133.394 39.7396 133.683 39.5651 133.928 39.3359C134.173 39.1068 134.357 38.8229 134.482 38.4844L137.123 38.7812C136.956 39.4792 136.639 40.0885 136.17 40.6094C135.706 41.125 135.113 41.526 134.389 41.8125C133.665 42.0937 132.837 42.2344 131.904 42.2344ZM147.875 34.8281V37.1484H141.484V34.8281H147.875ZM142.359 30V42H139.633V30H142.359ZM149.727 30V42H147.008V30H149.727ZM155.314 38.1719L160.119 30H163.025V42H160.291V33.8203L155.502 42H152.588V30H155.314V38.1719ZM164.586 32.3203V30H175.086V32.3203H171.203V42H168.469V32.3203H164.586ZM179.252 33.9062H182.791C184.322 33.9062 185.507 34.2786 186.346 35.0234C187.184 35.7682 187.606 36.7448 187.611 37.9531C187.606 38.7396 187.413 39.4375 187.033 40.0469C186.658 40.6562 186.111 41.1354 185.393 41.4844C184.679 41.8281 183.812 42 182.791 42H177.338V30H180.064V39.6797H182.791C183.406 39.6797 183.911 39.5234 184.307 39.2109C184.702 38.8932 184.9 38.487 184.9 37.9922C184.9 37.4714 184.702 37.0469 184.307 36.7187C183.911 36.3906 183.406 36.2266 182.791 36.2266H179.252V33.9062Z" fill="white"/>
</g>
<defs>
<filter id="filter0_d_344_207" x="79.7148" y="22.7812" width="110.896" height="22.4609" filterUnits="userSpaceOnUse" color-interpolation-filters="sRGB">
<feFlood flood-opacity="0" result="BackgroundImageFix"/>
<feColorMatrix in="SourceAlpha" type="matrix" values="0 0 0 0 0 0 0 0 0 0 0 0 0 0 0 0 0 0 127 0" result="hardAlpha"/>
<feOffset/>
<feGaussianBlur stdDeviation="1.5"/>
<feComposite in2="hardAlpha" operator="out"/>
<feColorMatrix type="matrix" values="0 0 0 0 0 0 0 0 0 0 0 0 0 0 0 0 0 0 0.3 0"/>
<feBlend mode="normal" in2="BackgroundImageFix" result="effect1_dropShadow_344_207"/>
<feBlend mode="normal" in="SourceGraphic" in2="effect1_dropShadow_344_207" result="shape"/>
</filter>
<linearGradient id="paint0_linear_344_207" x1="0.912277" y1="-0.193456" x2="20.6817" y2="112.044" gradientUnits="userSpaceOnUse">
<stop stop-color="#F9BD23"/>
<stop offset="1" stop-color="#E25607"/>
</linearGradient>
</defs>
</svg>
