<svg width="270" height="68" viewBox="0 0 270 68" fill="none" xmlns="http://www.w3.org/2000/svg">
<rect width="270" height="68" rx="8" fill="#F0775B"/>
<g filter="url(#filter0_d_344_198)">
<path d="M94.3936 42.2187C93.2686 42.2187 92.2686 42.026 91.3936 41.6406C90.5238 41.2552 89.8363 40.7187 89.3311 40.0312C88.8258 39.3437 88.5576 38.5495 88.5264 37.6484H91.4639C91.4899 38.0807 91.6331 38.4583 91.8936 38.7812C92.154 39.099 92.5003 39.3464 92.9326 39.5234C93.3649 39.7005 93.8493 39.7891 94.3857 39.7891C94.9587 39.7891 95.4665 39.6901 95.9092 39.4922C96.3519 39.2891 96.6982 39.0078 96.9482 38.6484C97.1982 38.2891 97.3206 37.875 97.3154 37.4062C97.3206 36.9219 97.1956 36.4948 96.9404 36.125C96.6852 35.7552 96.3154 35.4661 95.8311 35.2578C95.3519 35.0495 94.7738 34.9453 94.0967 34.9453H92.6826V32.7109H94.0967C94.654 32.7109 95.141 32.6146 95.5576 32.4219C95.9795 32.2292 96.3102 31.9583 96.5498 31.6094C96.7894 31.2552 96.9066 30.8464 96.9014 30.3828C96.9066 29.9297 96.805 29.5365 96.5967 29.2031C96.3936 28.8646 96.1045 28.6016 95.7295 28.4141C95.3597 28.2266 94.9248 28.1328 94.4248 28.1328C93.9352 28.1328 93.4821 28.2214 93.0654 28.3984C92.6488 28.5755 92.3128 28.8281 92.0576 29.1563C91.8024 29.4792 91.667 29.8646 91.6514 30.3125H88.8623C88.8831 29.4167 89.141 28.6302 89.6357 27.9531C90.1357 27.2708 90.8024 26.7396 91.6357 26.3594C92.4691 25.974 93.404 25.7812 94.4404 25.7812C95.5081 25.7812 96.4352 25.9818 97.2217 26.3828C98.0133 26.7786 98.6253 27.3125 99.0576 27.9844C99.4899 28.6562 99.7061 29.3984 99.7061 30.2109C99.7113 31.112 99.4456 31.8672 98.9092 32.4766C98.3779 33.0859 97.68 33.4844 96.8154 33.6719V33.7969C97.9404 33.9531 98.8024 34.3698 99.4014 35.0469C100.006 35.7187 100.305 36.5547 100.3 37.5547C100.3 38.4505 100.045 39.2526 99.5342 39.9609C99.029 40.6641 98.3311 41.2161 97.4404 41.6172C96.555 42.0182 95.5394 42.2187 94.3936 42.2187ZM106.466 42.2422C105.705 42.2422 105.021 42.1068 104.411 41.8359C103.807 41.5599 103.328 41.1536 102.974 40.6172C102.625 40.0807 102.45 39.4193 102.45 38.6328C102.45 37.9557 102.575 37.3958 102.825 36.9531C103.075 36.5104 103.416 36.1562 103.849 35.8906C104.281 35.625 104.768 35.4245 105.31 35.2891C105.856 35.1484 106.422 35.0469 107.005 34.9844C107.708 34.9115 108.278 34.8464 108.716 34.7891C109.153 34.7266 109.471 34.6328 109.669 34.5078C109.872 34.3776 109.974 34.1771 109.974 33.9062V33.8594C109.974 33.2708 109.799 32.8151 109.45 32.4922C109.101 32.1693 108.599 32.0078 107.942 32.0078C107.25 32.0078 106.7 32.1589 106.294 32.4609C105.893 32.763 105.622 33.1198 105.481 33.5312L102.841 33.1562C103.049 32.4271 103.393 31.8177 103.872 31.3281C104.351 30.8333 104.937 30.4635 105.63 30.2187C106.323 29.9688 107.088 29.8438 107.927 29.8438C108.505 29.8438 109.08 29.9115 109.653 30.0469C110.226 30.1823 110.75 30.4062 111.224 30.7187C111.698 31.026 112.078 31.4453 112.364 31.9766C112.656 32.5078 112.802 33.1719 112.802 33.9687V42H110.083V40.3516H109.989C109.817 40.6849 109.575 40.9974 109.263 41.2891C108.955 41.5755 108.567 41.8073 108.099 41.9844C107.635 42.1563 107.091 42.2422 106.466 42.2422ZM107.2 40.1641C107.768 40.1641 108.26 40.0521 108.677 39.8281C109.093 39.599 109.414 39.2969 109.638 38.9219C109.867 38.5469 109.981 38.138 109.981 37.6953V36.2812C109.893 36.3542 109.742 36.4219 109.528 36.4844C109.32 36.5469 109.086 36.6016 108.825 36.6484C108.565 36.6953 108.307 36.737 108.052 36.7734C107.797 36.8099 107.575 36.8411 107.388 36.8672C106.966 36.9245 106.588 37.0182 106.255 37.1484C105.922 37.2786 105.659 37.4609 105.466 37.6953C105.273 37.9245 105.177 38.2214 105.177 38.5859C105.177 39.1068 105.367 39.5 105.747 39.7656C106.127 40.0312 106.612 40.1641 107.2 40.1641ZM115.646 42V30H118.474V34.8437H119.505L123.114 30H126.521L122.075 35.8906L126.567 42H123.146L119.856 37.4766H118.474V42H115.646ZM128.171 46.5V30H130.952V31.9844H131.116C131.262 31.6927 131.468 31.3828 131.733 31.0547C131.999 30.7214 132.358 30.4375 132.812 30.2031C133.265 29.9635 133.843 29.8438 134.546 29.8438C135.473 29.8438 136.309 30.0807 137.054 30.5547C137.804 31.0234 138.397 31.7187 138.835 32.6406C139.278 33.5573 139.499 34.6823 139.499 36.0156C139.499 37.3333 139.283 38.4531 138.851 39.375C138.418 40.2969 137.83 41 137.085 41.4844C136.34 41.9688 135.496 42.2109 134.554 42.2109C133.866 42.2109 133.296 42.0964 132.843 41.8672C132.39 41.638 132.025 41.362 131.749 41.0391C131.478 40.7109 131.267 40.401 131.116 40.1094H130.999V46.5H128.171ZM130.944 36C130.944 36.776 131.054 37.4557 131.272 38.0391C131.496 38.6224 131.817 39.0781 132.233 39.4062C132.655 39.7292 133.166 39.8906 133.765 39.8906C134.39 39.8906 134.913 39.724 135.335 39.3906C135.757 39.0521 136.075 38.5911 136.288 38.0078C136.507 37.4193 136.616 36.75 136.616 36C136.616 35.2552 136.509 34.5937 136.296 34.0156C136.082 33.4375 135.765 32.9844 135.343 32.6562C134.921 32.3281 134.395 32.1641 133.765 32.1641C133.16 32.1641 132.647 32.3229 132.226 32.6406C131.804 32.9583 131.483 33.4036 131.265 33.9766C131.051 34.5495 130.944 35.224 130.944 36ZM143.835 33.9062H147.374C148.905 33.9062 150.09 34.2786 150.929 35.0234C151.767 35.7682 152.189 36.7448 152.194 37.9531C152.189 38.7396 151.996 39.4375 151.616 40.0469C151.241 40.6562 150.694 41.1354 149.976 41.4844C149.262 41.8281 148.395 42 147.374 42H141.921V30H144.647V39.6797H147.374C147.989 39.6797 148.494 39.5234 148.89 39.2109C149.285 38.8932 149.483 38.487 149.483 37.9922C149.483 37.4714 149.285 37.0469 148.89 36.7187C148.494 36.3906 147.989 36.2266 147.374 36.2266H143.835V33.9062ZM153.687 42V30H156.515V42H153.687ZM158.774 32.3203V30H169.274V32.3203H165.392V42H162.657V32.3203H158.774ZM173.44 33.9062H176.979C178.511 33.9062 179.696 34.2786 180.534 35.0234C181.373 35.7682 181.795 36.7448 181.8 37.9531C181.795 38.7396 181.602 39.4375 181.222 40.0469C180.847 40.6562 180.3 41.1354 179.581 41.4844C178.868 41.8281 178 42 176.979 42H171.526V30H174.253V39.6797H176.979C177.594 39.6797 178.099 39.5234 178.495 39.2109C178.891 38.8932 179.089 38.487 179.089 37.9922C179.089 37.4714 178.891 37.0469 178.495 36.7187C178.099 36.3906 177.594 36.2266 176.979 36.2266H173.44V33.9062Z" fill="white"/>
</g>
<defs>
<filter id="filter0_d_344_198" x="85.5264" y="22.7812" width="99.2734" height="26.7188" filterUnits="userSpaceOnUse" color-interpolation-filters="sRGB">
<feFlood flood-opacity="0" result="BackgroundImageFix"/>
<feColorMatrix in="SourceAlpha" type="matrix" values="0 0 0 0 0 0 0 0 0 0 0 0 0 0 0 0 0 0 127 0" result="hardAlpha"/>
<feOffset/>
<feGaussianBlur stdDeviation="1.5"/>
<feComposite in2="hardAlpha" operator="out"/>
<feColorMatrix type="matrix" values="0 0 0 0 0 0 0 0 0 0 0 0 0 0 0 0 0 0 0.3 0"/>
<feBlend mode="normal" in2="BackgroundImageFix" result="effect1_dropShadow_344_198"/>
<feBlend mode="normal" in="SourceGraphic" in2="effect1_dropShadow_344_198" result="shape"/>
</filter>
</defs>
</svg>
