<svg width="270" height="68" viewBox="0 0 270 68" fill="none" xmlns="http://www.w3.org/2000/svg">
<rect width="270" height="68" rx="8" fill="url(#paint0_linear_344_168)"/>
<g filter="url(#filter0_d_344_168)">
<path d="M83.1719 42L77.9063 35.0078H76.4844V42H73.5859V26H76.4844V32.5781H77.2109L82.8984 26H86.4688L80.1484 33.2969L86.7422 42H83.1719ZM92.9395 42.2344C91.7676 42.2344 90.752 41.9766 89.8926 41.4609C89.0332 40.9453 88.3665 40.224 87.8926 39.2969C87.4238 38.3698 87.1895 37.2865 87.1895 36.0469C87.1895 34.8073 87.4238 33.7214 87.8926 32.7891C88.3665 31.8568 89.0332 31.1328 89.8926 30.6172C90.752 30.1016 91.7676 29.8438 92.9395 29.8438C94.1113 29.8438 95.127 30.1016 95.9863 30.6172C96.8457 31.1328 97.5098 31.8568 97.9785 32.7891C98.4525 33.7214 98.6895 34.8073 98.6895 36.0469C98.6895 37.2865 98.4525 38.3698 97.9785 39.2969C97.5098 40.224 96.8457 40.9453 95.9863 41.4609C95.127 41.9766 94.1113 42.2344 92.9395 42.2344ZM92.9551 39.9687C93.5905 39.9687 94.1217 39.7943 94.5488 39.4453C94.9759 39.0911 95.2936 38.6172 95.502 38.0234C95.7155 37.4297 95.8223 36.7682 95.8223 36.0391C95.8223 35.3047 95.7155 34.6406 95.502 34.0469C95.2936 33.4479 94.9759 32.9714 94.5488 32.6172C94.1217 32.263 93.5905 32.0859 92.9551 32.0859C92.304 32.0859 91.7624 32.263 91.3301 32.6172C90.903 32.9714 90.5827 33.4479 90.3691 34.0469C90.1608 34.6406 90.0566 35.3047 90.0566 36.0391C90.0566 36.7682 90.1608 37.4297 90.3691 38.0234C90.5827 38.6172 90.903 39.0911 91.3301 39.4453C91.7624 39.7943 92.304 39.9687 92.9551 39.9687ZM107.996 38.7109L111.559 30H113.84L108.988 42H107.012L102.27 30H104.527L107.996 38.7109ZM103.816 30V42H101.09V30H103.816ZM112.293 42V30H114.996V42H112.293ZM117.848 42V30H127.98V42H125.254V32.3203H120.551V42H117.848ZM132.803 33.9062H136.342C137.873 33.9062 139.058 34.2786 139.896 35.0234C140.735 35.7682 141.157 36.7448 141.162 37.9531C141.157 38.7396 140.964 39.4375 140.584 40.0469C140.209 40.6562 139.662 41.1354 138.943 41.4844C138.23 41.8281 137.363 42 136.342 42H130.889V30H133.615V39.6797H136.342C136.956 39.6797 137.462 39.5234 137.857 39.2109C138.253 38.8932 138.451 38.487 138.451 37.9922C138.451 37.4714 138.253 37.0469 137.857 36.7187C137.462 36.3906 136.956 36.2266 136.342 36.2266H132.803V33.9062ZM149.922 34.9141V37.2422H143.461V34.9141H149.922ZM145.703 30V42H142.867V30H145.703ZM153.547 42.2344C152.391 42.2344 151.388 41.9714 150.539 41.4453C149.695 40.9193 149.042 40.1901 148.578 39.2578C148.115 38.3255 147.883 37.2474 147.883 36.0234C147.883 34.7995 148.115 33.724 148.578 32.7969C149.042 31.8698 149.695 31.1458 150.539 30.625C151.388 30.1042 152.391 29.8438 153.547 29.8438C154.698 29.8438 155.695 30.1042 156.539 30.625C157.388 31.1458 158.044 31.8698 158.508 32.7969C158.977 33.724 159.211 34.7995 159.211 36.0234C159.211 37.2474 158.977 38.3255 158.508 39.2578C158.044 40.1901 157.388 40.9193 156.539 41.4453C155.695 41.9714 154.698 42.2344 153.547 42.2344ZM153.547 39.8906C154.229 39.8906 154.786 39.7187 155.219 39.375C155.651 39.0312 155.969 38.5677 156.172 37.9844C156.375 37.401 156.477 36.7474 156.477 36.0234C156.477 35.2995 156.375 34.6458 156.172 34.0625C155.969 33.4792 155.651 33.0182 155.219 32.6797C154.786 32.3359 154.229 32.1641 153.547 32.1641C152.859 32.1641 152.297 32.3359 151.859 32.6797C151.427 33.0182 151.109 33.4792 150.906 34.0625C150.703 34.6458 150.602 35.2995 150.602 36.0234C150.602 36.7526 150.703 37.4089 150.906 37.9922C151.109 38.5755 151.427 39.0391 151.859 39.3828C152.297 39.7214 152.859 39.8906 153.547 39.8906ZM160.396 32.3203V30H170.896V32.3203H167.014V42H164.279V32.3203H160.396ZM177.967 42.2344C176.764 42.2344 175.725 41.9844 174.85 41.4844C173.98 40.9792 173.311 40.2656 172.842 39.3437C172.373 38.4167 172.139 37.3255 172.139 36.0703C172.139 34.8359 172.373 33.7526 172.842 32.8203C173.316 31.8828 173.977 31.1536 174.826 30.6328C175.675 30.1068 176.673 29.8438 177.818 29.8438C178.558 29.8438 179.256 29.9635 179.912 30.2031C180.574 30.4375 181.157 30.8021 181.662 31.2969C182.173 31.7917 182.574 32.4219 182.865 33.1875C183.157 33.9479 183.303 34.8542 183.303 35.9062V36.7734H173.467V34.8672H180.592C180.587 34.3255 180.469 33.8437 180.24 33.4219C180.011 32.9948 179.691 32.6589 179.279 32.4141C178.873 32.1693 178.399 32.0469 177.857 32.0469C177.279 32.0469 176.771 32.1875 176.334 32.4687C175.896 32.7448 175.555 33.1094 175.311 33.5625C175.071 34.0104 174.949 34.5026 174.943 35.0391V36.7031C174.943 37.401 175.071 38 175.326 38.5C175.581 38.9948 175.938 39.375 176.396 39.6406C176.855 39.901 177.391 40.0312 178.006 40.0312C178.417 40.0312 178.79 39.974 179.123 39.8594C179.456 39.7396 179.745 39.5651 179.99 39.3359C180.235 39.1068 180.42 38.8229 180.545 38.4844L183.186 38.7812C183.019 39.4792 182.701 40.0885 182.232 40.6094C181.769 41.125 181.175 41.526 180.451 41.8125C179.727 42.0937 178.899 42.2344 177.967 42.2344ZM185.695 46.5V30H188.477V31.9844H188.641C188.786 31.6927 188.992 31.3828 189.258 31.0547C189.523 30.7214 189.883 30.4375 190.336 30.2031C190.789 29.9635 191.367 29.8438 192.07 29.8438C192.997 29.8438 193.833 30.0807 194.578 30.5547C195.328 31.0234 195.922 31.7187 196.359 32.6406C196.802 33.5573 197.023 34.6823 197.023 36.0156C197.023 37.3333 196.807 38.4531 196.375 39.375C195.943 40.2969 195.354 41 194.609 41.4844C193.865 41.9688 193.021 42.2109 192.078 42.2109C191.391 42.2109 190.82 42.0964 190.367 41.8672C189.914 41.638 189.549 41.362 189.273 41.0391C189.003 40.7109 188.792 40.401 188.641 40.1094H188.523V46.5H185.695ZM188.469 36C188.469 36.776 188.578 37.4557 188.797 38.0391C189.021 38.6224 189.341 39.0781 189.758 39.4062C190.18 39.7292 190.69 39.8906 191.289 39.8906C191.914 39.8906 192.438 39.724 192.859 39.3906C193.281 39.0521 193.599 38.5911 193.813 38.0078C194.031 37.4193 194.141 36.75 194.141 36C194.141 35.2552 194.034 34.5937 193.82 34.0156C193.607 33.4375 193.289 32.9844 192.867 32.6562C192.445 32.3281 191.919 32.1641 191.289 32.1641C190.685 32.1641 190.172 32.3229 189.75 32.6406C189.328 32.9583 189.008 33.4036 188.789 33.9766C188.576 34.5495 188.469 35.224 188.469 36Z" fill="white"/>
</g>
<defs>
<filter id="filter0_d_344_168" x="70.5859" y="23" width="129.438" height="26.5" filterUnits="userSpaceOnUse" color-interpolation-filters="sRGB">
<feFlood flood-opacity="0" result="BackgroundImageFix"/>
<feColorMatrix in="SourceAlpha" type="matrix" values="0 0 0 0 0 0 0 0 0 0 0 0 0 0 0 0 0 0 127 0" result="hardAlpha"/>
<feOffset/>
<feGaussianBlur stdDeviation="1.5"/>
<feComposite in2="hardAlpha" operator="out"/>
<feColorMatrix type="matrix" values="0 0 0 0 0 0 0 0 0 0 0 0 0 0 0 0 0 0 0.3 0"/>
<feBlend mode="normal" in2="BackgroundImageFix" result="effect1_dropShadow_344_168"/>
<feBlend mode="normal" in="SourceGraphic" in2="effect1_dropShadow_344_168" result="shape"/>
</filter>
<linearGradient id="paint0_linear_344_168" x1="0.912277" y1="-0.193456" x2="20.6817" y2="112.044" gradientUnits="userSpaceOnUse">
<stop stop-color="#23A3F9"/>
<stop offset="1" stop-color="#0744E2"/>
</linearGradient>
</defs>
</svg>
