<svg width="270" height="68" viewBox="0 0 270 68" fill="none" xmlns="http://www.w3.org/2000/svg">
<rect width="270" height="68" rx="8" fill="#438FF4"/>
<g filter="url(#filter0_d_344_126)">
<path d="M101.046 45.8594V39.6328H102.116C102.476 39.3464 102.812 38.9427 103.124 38.4219C103.437 37.901 103.702 37.1875 103.921 36.2812C104.14 35.375 104.291 34.2031 104.374 32.7656L104.796 26H115.022V39.6328H116.804V45.8438H114.022V42H103.827V45.8594H101.046ZM105.491 39.6328H112.241V28.4297H107.405L107.155 32.7656C107.088 33.8542 106.978 34.8281 106.827 35.6875C106.676 36.5469 106.486 37.3047 106.257 37.9609C106.028 38.612 105.772 39.1693 105.491 39.6328ZM122.493 42.2422C121.733 42.2422 121.048 42.1068 120.438 41.8359C119.834 41.5599 119.355 41.1536 119.001 40.6172C118.652 40.0807 118.478 39.4193 118.478 38.6328C118.478 37.9557 118.603 37.3958 118.853 36.9531C119.103 36.5104 119.444 36.1562 119.876 35.8906C120.308 35.625 120.795 35.4245 121.337 35.2891C121.884 35.1484 122.449 35.0469 123.032 34.9844C123.735 34.9115 124.306 34.8464 124.743 34.7891C125.181 34.7266 125.498 34.6328 125.696 34.5078C125.899 34.3776 126.001 34.1771 126.001 33.9062V33.8594C126.001 33.2708 125.826 32.8151 125.478 32.4922C125.129 32.1693 124.626 32.0078 123.97 32.0078C123.277 32.0078 122.728 32.1589 122.321 32.4609C121.92 32.763 121.649 33.1198 121.509 33.5312L118.868 33.1562C119.076 32.4271 119.42 31.8177 119.899 31.3281C120.379 30.8333 120.965 30.4635 121.657 30.2187C122.35 29.9688 123.116 29.8438 123.954 29.8438C124.532 29.8438 125.108 29.9115 125.681 30.0469C126.254 30.1823 126.777 30.4062 127.251 30.7187C127.725 31.026 128.105 31.4453 128.392 31.9766C128.683 32.5078 128.829 33.1719 128.829 33.9687V42H126.11V40.3516H126.017C125.845 40.6849 125.603 40.9974 125.29 41.2891C124.983 41.5755 124.595 41.8073 124.126 41.9844C123.662 42.1563 123.118 42.2422 122.493 42.2422ZM123.228 40.1641C123.795 40.1641 124.287 40.0521 124.704 39.8281C125.121 39.599 125.441 39.2969 125.665 38.9219C125.894 38.5469 126.009 38.138 126.009 37.6953V36.2812C125.92 36.3542 125.769 36.4219 125.556 36.4844C125.347 36.5469 125.113 36.6016 124.853 36.6484C124.592 36.6953 124.334 36.737 124.079 36.7734C123.824 36.8099 123.603 36.8411 123.415 36.8672C122.993 36.9245 122.616 37.0182 122.282 37.1484C121.949 37.2786 121.686 37.4609 121.493 37.6953C121.3 37.9245 121.204 38.2214 121.204 38.5859C121.204 39.1068 121.394 39.5 121.774 39.7656C122.155 40.0312 122.639 40.1641 123.228 40.1641ZM130.845 42L130.829 39.6719H131.243C131.556 39.6719 131.819 39.6016 132.032 39.4609C132.246 39.3203 132.423 39.0859 132.563 38.7578C132.704 38.4245 132.813 37.9766 132.892 37.4141C132.97 36.8516 133.024 36.151 133.056 35.3125L133.267 30H142.017V42H139.282V32.3203H135.837L135.649 36.1875C135.603 37.1875 135.491 38.0547 135.313 38.7891C135.142 39.5182 134.897 40.1198 134.579 40.5938C134.267 41.0677 133.873 41.4219 133.399 41.6562C132.925 41.8854 132.366 42 131.72 42H130.845ZM150.177 42.2344C148.974 42.2344 147.935 41.9844 147.06 41.4844C146.19 40.9792 145.521 40.2656 145.052 39.3437C144.583 38.4167 144.349 37.3255 144.349 36.0703C144.349 34.8359 144.583 33.7526 145.052 32.8203C145.526 31.8828 146.187 31.1536 147.036 30.6328C147.885 30.1068 148.882 29.8438 150.028 29.8438C150.768 29.8438 151.466 29.9635 152.122 30.2031C152.784 30.4375 153.367 30.8021 153.872 31.2969C154.382 31.7917 154.784 32.4219 155.075 33.1875C155.367 33.9479 155.513 34.8542 155.513 35.9062V36.7734H145.677V34.8672H152.802C152.797 34.3255 152.679 33.8437 152.45 33.4219C152.221 32.9948 151.901 32.6589 151.489 32.4141C151.083 32.1693 150.609 32.0469 150.067 32.0469C149.489 32.0469 148.981 32.1875 148.544 32.4687C148.106 32.7448 147.765 33.1094 147.521 33.5625C147.281 34.0104 147.159 34.5026 147.153 35.0391V36.7031C147.153 37.401 147.281 38 147.536 38.5C147.791 38.9948 148.148 39.375 148.606 39.6406C149.065 39.901 149.601 40.0312 150.216 40.0312C150.627 40.0312 151 39.974 151.333 39.8594C151.666 39.7396 151.955 39.5651 152.2 39.3359C152.445 39.1068 152.63 38.8229 152.755 38.4844L155.396 38.7812C155.229 39.4792 154.911 40.0885 154.442 40.6094C153.979 41.125 153.385 41.526 152.661 41.8125C151.937 42.0937 151.109 42.2344 150.177 42.2344ZM163.218 42.2344C162.015 42.2344 160.976 41.9844 160.101 41.4844C159.231 40.9792 158.562 40.2656 158.093 39.3437C157.624 38.4167 157.39 37.3255 157.39 36.0703C157.39 34.8359 157.624 33.7526 158.093 32.8203C158.567 31.8828 159.228 31.1536 160.077 30.6328C160.926 30.1068 161.924 29.8438 163.069 29.8438C163.809 29.8438 164.507 29.9635 165.163 30.2031C165.825 30.4375 166.408 30.8021 166.913 31.2969C167.424 31.7917 167.825 32.4219 168.116 33.1875C168.408 33.9479 168.554 34.8542 168.554 35.9062V36.7734H158.718V34.8672H165.843C165.838 34.3255 165.72 33.8437 165.491 33.4219C165.262 32.9948 164.942 32.6589 164.53 32.4141C164.124 32.1693 163.65 32.0469 163.108 32.0469C162.53 32.0469 162.022 32.1875 161.585 32.4687C161.147 32.7448 160.806 33.1094 160.562 33.5625C160.322 34.0104 160.2 34.5026 160.194 35.0391V36.7031C160.194 37.401 160.322 38 160.577 38.5C160.832 38.9948 161.189 39.375 161.647 39.6406C162.106 39.901 162.642 40.0312 163.257 40.0312C163.668 40.0312 164.041 39.974 164.374 39.8594C164.707 39.7396 164.996 39.5651 165.241 39.3359C165.486 39.1068 165.671 38.8229 165.796 38.4844L168.437 38.7812C168.27 39.4792 167.952 40.0885 167.483 40.6094C167.02 41.125 166.426 41.526 165.702 41.8125C164.978 42.0937 164.15 42.2344 163.218 42.2344Z" fill="white"/>
</g>
<defs>
<filter id="filter0_d_344_126" x="98.0459" y="23" width="73.5078" height="25.8594" filterUnits="userSpaceOnUse" color-interpolation-filters="sRGB">
<feFlood flood-opacity="0" result="BackgroundImageFix"/>
<feColorMatrix in="SourceAlpha" type="matrix" values="0 0 0 0 0 0 0 0 0 0 0 0 0 0 0 0 0 0 127 0" result="hardAlpha"/>
<feOffset/>
<feGaussianBlur stdDeviation="1.5"/>
<feComposite in2="hardAlpha" operator="out"/>
<feColorMatrix type="matrix" values="0 0 0 0 0 0 0 0 0 0 0 0 0 0 0 0 0 0 0.3 0"/>
<feBlend mode="normal" in2="BackgroundImageFix" result="effect1_dropShadow_344_126"/>
<feBlend mode="normal" in="SourceGraphic" in2="effect1_dropShadow_344_126" result="shape"/>
</filter>
</defs>
</svg>
