<svg width="270" height="68" viewBox="0 0 270 68" fill="none" xmlns="http://www.w3.org/2000/svg">
<rect width="270" height="68" rx="8" fill="white"/>
<path d="M71.8058 45.8594V39.6328H72.8761C73.2354 39.3464 73.5714 38.9427 73.8839 38.4219C74.1964 37.901 74.462 37.1875 74.6808 36.2812C74.8995 35.375 75.0505 34.2031 75.1339 32.7656L75.5558 26H85.7823V39.6328H87.5636V45.8438H84.7823V42H74.587V45.8594H71.8058ZM76.2511 39.6328H83.0011V28.4297H78.1651L77.9151 32.7656C77.8474 33.8542 77.738 34.8281 77.587 35.6875C77.436 36.5469 77.2459 37.3047 77.0167 37.9609C76.7875 38.612 76.5323 39.1693 76.2511 39.6328ZM95.0343 42.2344C93.8624 42.2344 92.8468 41.9766 91.9874 41.4609C91.128 40.9453 90.4614 40.224 89.9874 39.2969C89.5186 38.3698 89.2843 37.2865 89.2843 36.0469C89.2843 34.8073 89.5186 33.7214 89.9874 32.7891C90.4614 31.8568 91.128 31.1328 91.9874 30.6172C92.8468 30.1016 93.8624 29.8438 95.0343 29.8438C96.2061 29.8438 97.2218 30.1016 98.0811 30.6172C98.9405 31.1328 99.6046 31.8568 100.073 32.7891C100.547 33.7214 100.784 34.8073 100.784 36.0469C100.784 37.2865 100.547 38.3698 100.073 39.2969C99.6046 40.224 98.9405 40.9453 98.0811 41.4609C97.2218 41.9766 96.2061 42.2344 95.0343 42.2344ZM95.0499 39.9687C95.6853 39.9687 96.2166 39.7943 96.6436 39.4453C97.0707 39.0911 97.3884 38.6172 97.5968 38.0234C97.8103 37.4297 97.9171 36.7682 97.9171 36.0391C97.9171 35.3047 97.8103 34.6406 97.5968 34.0469C97.3884 33.4479 97.0707 32.9714 96.6436 32.6172C96.2166 32.263 95.6853 32.0859 95.0499 32.0859C94.3989 32.0859 93.8572 32.263 93.4249 32.6172C92.9978 32.9714 92.6775 33.4479 92.464 34.0469C92.2556 34.6406 92.1515 35.3047 92.1515 36.0391C92.1515 36.7682 92.2556 37.4297 92.464 38.0234C92.6775 38.6172 92.9978 39.0911 93.4249 39.4453C93.8572 39.7943 94.3989 39.9687 95.0499 39.9687ZM103.185 42V30H106.013V34.8437H107.044L110.653 30H114.06L109.614 35.8906L114.107 42H110.685L107.396 37.4766H106.013V42H103.185ZM117.597 46.5C117.211 46.5 116.855 46.4688 116.526 46.4063C116.204 46.349 115.946 46.2813 115.753 46.2031L116.409 44C116.821 44.1198 117.188 44.1771 117.511 44.1719C117.834 44.1667 118.118 44.0651 118.362 43.8672C118.612 43.6745 118.823 43.3516 118.995 42.8984L119.237 42.25L114.886 30H117.886L120.651 39.0625H120.776L123.55 30H126.558L121.753 43.4531C121.529 44.0885 121.232 44.6328 120.862 45.0859C120.493 45.5443 120.039 45.8932 119.503 46.1328C118.972 46.3776 118.336 46.5 117.597 46.5ZM135.421 38.7109L138.983 30H141.265L136.413 42H134.437L129.694 30H131.952L135.421 38.7109ZM131.241 30V42H128.515V30H131.241ZM139.718 42V30H142.421V42H139.718ZM150.585 42.2344C149.382 42.2344 148.343 41.9844 147.468 41.4844C146.598 40.9792 145.929 40.2656 145.46 39.3437C144.991 38.4167 144.757 37.3255 144.757 36.0703C144.757 34.8359 144.991 33.7526 145.46 32.8203C145.934 31.8828 146.595 31.1536 147.444 30.6328C148.293 30.1068 149.291 29.8438 150.437 29.8438C151.176 29.8438 151.874 29.9635 152.53 30.2031C153.192 30.4375 153.775 30.8021 154.28 31.2969C154.791 31.7917 155.192 32.4219 155.483 33.1875C155.775 33.9479 155.921 34.8542 155.921 35.9062V36.7734H146.085V34.8672H153.21C153.205 34.3255 153.088 33.8437 152.858 33.4219C152.629 32.9948 152.309 32.6589 151.898 32.4141C151.491 32.1693 151.017 32.0469 150.476 32.0469C149.898 32.0469 149.39 32.1875 148.952 32.4687C148.515 32.7448 148.174 33.1094 147.929 33.5625C147.689 34.0104 147.567 34.5026 147.562 35.0391V36.7031C147.562 37.401 147.689 38 147.944 38.5C148.2 38.9948 148.556 39.375 149.015 39.6406C149.473 39.901 150.01 40.0312 150.624 40.0312C151.036 40.0312 151.408 39.974 151.741 39.8594C152.075 39.7396 152.364 39.5651 152.608 39.3359C152.853 39.1068 153.038 38.8229 153.163 38.4844L155.804 38.7812C155.637 39.4792 155.319 40.0885 154.851 40.6094C154.387 41.125 153.793 41.526 153.069 41.8125C152.345 42.0937 151.517 42.2344 150.585 42.2344ZM166.556 34.8281V37.1484H160.165V34.8281H166.556ZM161.04 30V42H158.314V30H161.04ZM168.407 30V42H165.689V30H168.407ZM169.925 32.3203V30H180.425V32.3203H176.542V42H173.808V32.3203H169.925ZM184.591 33.9062H188.13C189.661 33.9062 190.846 34.2786 191.685 35.0234C192.523 35.7682 192.945 36.7448 192.95 37.9531C192.945 38.7396 192.752 39.4375 192.372 40.0469C191.997 40.6562 191.45 41.1354 190.732 41.4844C190.018 41.8281 189.151 42 188.13 42H182.677V30H185.403V39.6797H188.13C188.745 39.6797 189.25 39.5234 189.646 39.2109C190.041 38.8932 190.239 38.487 190.239 37.9922C190.239 37.4714 190.041 37.0469 189.646 36.7187C189.25 36.3906 188.745 36.2266 188.13 36.2266H184.591V33.9062ZM194.442 42V30H197.271V42H194.442Z" fill="#313F52"/>
</svg>
