<svg width="270" height="68" viewBox="0 0 270 68" fill="none" xmlns="http://www.w3.org/2000/svg">
<rect width="270" height="68" rx="8" fill="#438FF4"/>
<g filter="url(#filter0_d_344_189)">
<path d="M96.123 42V26H99.0215V32.7734H106.436V26H109.342V42H106.436V35.2031H99.0215V42H96.123ZM115.822 42.2422C115.062 42.2422 114.377 42.1068 113.768 41.8359C113.163 41.5599 112.684 41.1536 112.33 40.6172C111.981 40.0807 111.807 39.4193 111.807 38.6328C111.807 37.9557 111.932 37.3958 112.182 36.9531C112.432 36.5104 112.773 36.1562 113.205 35.8906C113.637 35.625 114.124 35.4245 114.666 35.2891C115.213 35.1484 115.778 35.0469 116.361 34.9844C117.064 34.9115 117.635 34.8464 118.072 34.7891C118.51 34.7266 118.827 34.6328 119.025 34.5078C119.229 34.3776 119.33 34.1771 119.33 33.9062V33.8594C119.33 33.2708 119.156 32.8151 118.807 32.4922C118.458 32.1693 117.955 32.0078 117.299 32.0078C116.606 32.0078 116.057 32.1589 115.65 32.4609C115.249 32.763 114.979 33.1198 114.838 33.5312L112.197 33.1562C112.406 32.4271 112.749 31.8177 113.229 31.3281C113.708 30.8333 114.294 30.4635 114.986 30.2187C115.679 29.9688 116.445 29.8438 117.283 29.8438C117.861 29.8438 118.437 29.9115 119.01 30.0469C119.583 30.1823 120.106 30.4062 120.58 30.7187C121.054 31.026 121.434 31.4453 121.721 31.9766C122.012 32.5078 122.158 33.1719 122.158 33.9687V42H119.439V40.3516H119.346C119.174 40.6849 118.932 40.9974 118.619 41.2891C118.312 41.5755 117.924 41.8073 117.455 41.9844C116.992 42.1563 116.447 42.2422 115.822 42.2422ZM116.557 40.1641C117.124 40.1641 117.617 40.0521 118.033 39.8281C118.45 39.599 118.77 39.2969 118.994 38.9219C119.223 38.5469 119.338 38.138 119.338 37.6953V36.2812C119.249 36.3542 119.098 36.4219 118.885 36.4844C118.676 36.5469 118.442 36.6016 118.182 36.6484C117.921 36.6953 117.663 36.737 117.408 36.7734C117.153 36.8099 116.932 36.8411 116.744 36.8672C116.322 36.9245 115.945 37.0182 115.611 37.1484C115.278 37.2786 115.015 37.4609 114.822 37.6953C114.63 37.9245 114.533 38.2214 114.533 38.5859C114.533 39.1068 114.723 39.5 115.104 39.7656C115.484 40.0312 115.968 40.1641 116.557 40.1641ZM123.939 45.4844V39.6719H124.893C125.148 39.474 125.361 39.2057 125.533 38.8672C125.705 38.5234 125.846 38.1198 125.955 37.6562C126.07 37.1875 126.163 36.6641 126.236 36.0859C126.309 35.5026 126.374 34.875 126.432 34.2031L126.775 30H135.447V39.6719H137.307V45.4844H134.572V42H126.721V45.4844H123.939ZM127.799 39.6719H132.744V32.2812H129.229L129.041 34.2031C128.937 35.474 128.799 36.5625 128.627 37.4687C128.455 38.375 128.179 39.1094 127.799 39.6719ZM144.73 42.2344C143.527 42.2344 142.488 41.9844 141.613 41.4844C140.743 40.9792 140.074 40.2656 139.605 39.3437C139.137 38.4167 138.902 37.3255 138.902 36.0703C138.902 34.8359 139.137 33.7526 139.605 32.8203C140.079 31.8828 140.741 31.1536 141.59 30.6328C142.439 30.1068 143.436 29.8438 144.582 29.8438C145.322 29.8438 146.02 29.9635 146.676 30.2031C147.337 30.4375 147.921 30.8021 148.426 31.2969C148.936 31.7917 149.337 32.4219 149.629 33.1875C149.921 33.9479 150.066 34.8542 150.066 35.9062V36.7734H140.23V34.8672H147.355C147.35 34.3255 147.233 33.8437 147.004 33.4219C146.775 32.9948 146.454 32.6589 146.043 32.4141C145.637 32.1693 145.163 32.0469 144.621 32.0469C144.043 32.0469 143.535 32.1875 143.098 32.4687C142.66 32.7448 142.319 33.1094 142.074 33.5625C141.835 34.0104 141.712 34.5026 141.707 35.0391V36.7031C141.707 37.401 141.835 38 142.09 38.5C142.345 38.9948 142.702 39.375 143.16 39.6406C143.618 39.901 144.155 40.0312 144.77 40.0312C145.181 40.0312 145.553 39.974 145.887 39.8594C146.22 39.7396 146.509 39.5651 146.754 39.3359C146.999 39.1068 147.184 38.8229 147.309 38.4844L149.949 38.7812C149.783 39.4792 149.465 40.0885 148.996 40.6094C148.533 41.125 147.939 41.526 147.215 41.8125C146.491 42.0937 145.663 42.2344 144.73 42.2344ZM151.459 32.3203V30H161.959V32.3203H158.076V42H155.342V32.3203H151.459ZM166.125 33.9062H169.664C171.195 33.9062 172.38 34.2786 173.219 35.0234C174.057 35.7682 174.479 36.7448 174.484 37.9531C174.479 38.7396 174.286 39.4375 173.906 40.0469C173.531 40.6562 172.984 41.1354 172.266 41.4844C171.552 41.8281 170.685 42 169.664 42H164.211V30H166.938V39.6797H169.664C170.279 39.6797 170.784 39.5234 171.18 39.2109C171.576 38.8932 171.773 38.487 171.773 37.9922C171.773 37.4714 171.576 37.0469 171.18 36.7187C170.784 36.3906 170.279 36.2266 169.664 36.2266H166.125V33.9062Z" fill="white"/>
</g>
<defs>
<filter id="filter0_d_344_189" x="93.123" y="23" width="84.3613" height="25.4844" filterUnits="userSpaceOnUse" color-interpolation-filters="sRGB">
<feFlood flood-opacity="0" result="BackgroundImageFix"/>
<feColorMatrix in="SourceAlpha" type="matrix" values="0 0 0 0 0 0 0 0 0 0 0 0 0 0 0 0 0 0 127 0" result="hardAlpha"/>
<feOffset/>
<feGaussianBlur stdDeviation="1.5"/>
<feComposite in2="hardAlpha" operator="out"/>
<feColorMatrix type="matrix" values="0 0 0 0 0 0 0 0 0 0 0 0 0 0 0 0 0 0 0.3 0"/>
<feBlend mode="normal" in2="BackgroundImageFix" result="effect1_dropShadow_344_189"/>
<feBlend mode="normal" in="SourceGraphic" in2="effect1_dropShadow_344_189" result="shape"/>
</filter>
</defs>
</svg>
