<svg width="270" height="68" viewBox="0 0 270 68" fill="none" xmlns="http://www.w3.org/2000/svg">
<rect width="270" height="68" rx="8" fill="url(#paint0_linear_344_174)"/>
<g filter="url(#filter0_d_344_174)">
<path d="M96.7988 31.3984H93.877C93.7936 30.9193 93.64 30.4948 93.416 30.125C93.1921 29.75 92.9134 29.4323 92.5801 29.1719C92.2467 28.9115 91.8665 28.7161 91.4395 28.5859C91.0176 28.4505 90.5618 28.3828 90.0723 28.3828C89.2025 28.3828 88.4316 28.6016 87.7598 29.0391C87.0879 29.4714 86.5618 30.1068 86.1816 30.9453C85.8014 31.7786 85.6113 32.7969 85.6113 34C85.6113 35.224 85.8014 36.2552 86.1816 37.0937C86.5671 37.9271 87.0931 38.5573 87.7598 38.9844C88.4316 39.4062 89.1999 39.6172 90.0645 39.6172C90.5436 39.6172 90.9915 39.5547 91.4082 39.4297C91.8301 39.2995 92.2077 39.1094 92.541 38.8594C92.8796 38.6094 93.1634 38.3021 93.3926 37.9375C93.627 37.5729 93.7884 37.1562 93.877 36.6875L96.7988 36.7031C96.6895 37.4635 96.4525 38.1771 96.0879 38.8438C95.7285 39.5104 95.2572 40.099 94.6738 40.6094C94.0905 41.1146 93.4082 41.5104 92.627 41.7969C91.8457 42.0781 90.9785 42.2187 90.0254 42.2187C88.6191 42.2187 87.3639 41.8932 86.2598 41.2422C85.1556 40.5911 84.2858 39.651 83.6504 38.4219C83.015 37.1927 82.6973 35.7187 82.6973 34C82.6973 32.276 83.0176 30.8021 83.6582 29.5781C84.2988 28.349 85.1712 27.4089 86.2754 26.7578C87.3796 26.1068 88.6296 25.7812 90.0254 25.7812C90.916 25.7812 91.7441 25.9062 92.5098 26.1562C93.2754 26.4062 93.9577 26.7734 94.5566 27.2578C95.1556 27.737 95.6478 28.3255 96.0332 29.0234C96.4238 29.7161 96.679 30.5078 96.7988 31.3984ZM108.945 25.5625L109.93 27.3906C109.581 27.6927 109.19 27.9115 108.758 28.0469C108.326 28.1823 107.818 28.2708 107.234 28.3125C106.656 28.349 105.969 28.375 105.172 28.3906C104.276 28.4115 103.544 28.5807 102.977 28.8984C102.409 29.2161 101.974 29.6979 101.672 30.3437C101.37 30.9844 101.172 31.8021 101.078 32.7969H101.211C101.586 32.0625 102.112 31.5026 102.789 31.1172C103.466 30.7318 104.26 30.5391 105.172 30.5391C106.167 30.5391 107.044 30.763 107.805 31.2109C108.57 31.6536 109.167 32.2969 109.594 33.1406C110.026 33.9844 110.242 35.0052 110.242 36.2031C110.242 37.4375 110.01 38.5078 109.547 39.4141C109.083 40.3151 108.424 41.0104 107.57 41.5C106.721 41.9896 105.714 42.2344 104.547 42.2344C103.385 42.2344 102.375 41.9818 101.516 41.4766C100.661 40.9661 100 40.2135 99.5313 39.2188C99.0677 38.2187 98.8359 36.987 98.8359 35.5234V34.4453C98.8359 31.6224 99.362 29.5156 100.414 28.125C101.466 26.7344 103.026 26.026 105.094 26C105.708 25.9896 106.258 25.987 106.742 25.9922C107.232 25.9974 107.659 25.974 108.023 25.9219C108.388 25.8698 108.695 25.75 108.945 25.5625ZM104.563 39.9687C105.141 39.9687 105.641 39.8203 106.063 39.5234C106.484 39.2214 106.807 38.7943 107.031 38.2422C107.26 37.6901 107.375 37.0365 107.375 36.2812C107.375 35.5365 107.26 34.9036 107.031 34.3828C106.802 33.8568 106.477 33.4557 106.055 33.1797C105.633 32.9036 105.13 32.7656 104.547 32.7656C104.109 32.7656 103.716 32.8437 103.367 33C103.018 33.1562 102.721 33.3854 102.477 33.6875C102.232 33.9896 102.044 34.3568 101.914 34.7891C101.784 35.2214 101.714 35.7187 101.703 36.2812C101.703 37.4115 101.958 38.3099 102.469 38.9766C102.979 39.638 103.677 39.9687 104.563 39.9687ZM112.648 46.5V30H115.43V31.9844H115.594C115.74 31.6927 115.945 31.3828 116.211 31.0547C116.477 30.7214 116.836 30.4375 117.289 30.2031C117.742 29.9635 118.32 29.8438 119.023 29.8438C119.951 29.8438 120.786 30.0807 121.531 30.5547C122.281 31.0234 122.875 31.7187 123.312 32.6406C123.755 33.5573 123.977 34.6823 123.977 36.0156C123.977 37.3333 123.76 38.4531 123.328 39.375C122.896 40.2969 122.307 41 121.563 41.4844C120.818 41.9688 119.974 42.2109 119.031 42.2109C118.344 42.2109 117.773 42.0964 117.32 41.8672C116.867 41.638 116.503 41.362 116.227 41.0391C115.956 40.7109 115.745 40.401 115.594 40.1094H115.477V46.5H112.648ZM115.422 36C115.422 36.776 115.531 37.4557 115.75 38.0391C115.974 38.6224 116.294 39.0781 116.711 39.4062C117.133 39.7292 117.643 39.8906 118.242 39.8906C118.867 39.8906 119.391 39.724 119.813 39.3906C120.234 39.0521 120.552 38.5911 120.766 38.0078C120.984 37.4193 121.094 36.75 121.094 36C121.094 35.2552 120.987 34.5937 120.773 34.0156C120.56 33.4375 120.242 32.9844 119.82 32.6562C119.398 32.3281 118.872 32.1641 118.242 32.1641C117.638 32.1641 117.125 32.3229 116.703 32.6406C116.281 32.9583 115.961 33.4036 115.742 33.9766C115.529 34.5495 115.422 35.224 115.422 36ZM131.633 42.2344C130.461 42.2344 129.445 41.9766 128.586 41.4609C127.727 40.9453 127.06 40.224 126.586 39.2969C126.117 38.3698 125.883 37.2865 125.883 36.0469C125.883 34.8073 126.117 33.7214 126.586 32.7891C127.06 31.8568 127.727 31.1328 128.586 30.6172C129.445 30.1016 130.461 29.8438 131.633 29.8438C132.805 29.8438 133.82 30.1016 134.68 30.6172C135.539 31.1328 136.203 31.8568 136.672 32.7891C137.146 33.7214 137.383 34.8073 137.383 36.0469C137.383 37.2865 137.146 38.3698 136.672 39.2969C136.203 40.224 135.539 40.9453 134.68 41.4609C133.82 41.9766 132.805 42.2344 131.633 42.2344ZM131.648 39.9687C132.284 39.9687 132.815 39.7943 133.242 39.4453C133.669 39.0911 133.987 38.6172 134.195 38.0234C134.409 37.4297 134.516 36.7682 134.516 36.0391C134.516 35.3047 134.409 34.6406 134.195 34.0469C133.987 33.4479 133.669 32.9714 133.242 32.6172C132.815 32.263 132.284 32.0859 131.648 32.0859C130.997 32.0859 130.456 32.263 130.023 32.6172C129.596 32.9714 129.276 33.4479 129.063 34.0469C128.854 34.6406 128.75 35.3047 128.75 36.0391C128.75 36.7682 128.854 37.4297 129.063 38.0234C129.276 38.6172 129.596 39.0911 130.023 39.4453C130.456 39.7943 130.997 39.9687 131.648 39.9687ZM145.018 42.2344C143.82 42.2344 142.791 41.9714 141.932 41.4453C141.077 40.9193 140.419 40.1927 139.955 39.2656C139.497 38.3333 139.268 37.2604 139.268 36.0469C139.268 34.8281 139.502 33.7526 139.971 32.8203C140.439 31.8828 141.101 31.1536 141.955 30.6328C142.814 30.1068 143.83 29.8438 145.002 29.8438C145.976 29.8438 146.838 30.0234 147.588 30.3828C148.343 30.737 148.945 31.2396 149.393 31.8906C149.84 32.5365 150.096 33.2917 150.158 34.1562H147.455C147.346 33.5781 147.085 33.0964 146.674 32.7109C146.268 32.3203 145.723 32.125 145.041 32.125C144.463 32.125 143.955 32.2812 143.518 32.5937C143.08 32.901 142.739 33.3437 142.494 33.9219C142.255 34.5 142.135 35.1927 142.135 36C142.135 36.8177 142.255 37.5208 142.494 38.1094C142.734 38.6927 143.07 39.1432 143.502 39.4609C143.939 39.7734 144.452 39.9297 145.041 39.9297C145.458 39.9297 145.83 39.8516 146.158 39.6953C146.492 39.5339 146.77 39.3021 146.994 39C147.218 38.6979 147.372 38.3307 147.455 37.8984H150.158C150.09 38.7474 149.84 39.5 149.408 40.1562C148.976 40.8073 148.387 41.3177 147.643 41.6875C146.898 42.0521 146.023 42.2344 145.018 42.2344ZM155.207 38.1719L160.012 30H162.918V42H160.184V33.8203L155.395 42H152.48V30H155.207V38.1719ZM164.479 32.3203V30H174.979V32.3203H171.096V42H168.361V32.3203H164.479ZM179.145 33.9062H182.684C184.215 33.9062 185.4 34.2786 186.238 35.0234C187.077 35.7682 187.499 36.7448 187.504 37.9531C187.499 38.7396 187.306 39.4375 186.926 40.0469C186.551 40.6562 186.004 41.1354 185.285 41.4844C184.572 41.8281 183.704 42 182.684 42H177.23V30H179.957V39.6797H182.684C183.298 39.6797 183.803 39.5234 184.199 39.2109C184.595 38.8932 184.793 38.487 184.793 37.9922C184.793 37.4714 184.595 37.0469 184.199 36.7187C183.803 36.3906 183.298 36.2266 182.684 36.2266H179.145V33.9062Z" fill="white"/>
</g>
<defs>
<filter id="filter0_d_344_174" x="79.6973" y="22.5625" width="110.807" height="26.9375" filterUnits="userSpaceOnUse" color-interpolation-filters="sRGB">
<feFlood flood-opacity="0" result="BackgroundImageFix"/>
<feColorMatrix in="SourceAlpha" type="matrix" values="0 0 0 0 0 0 0 0 0 0 0 0 0 0 0 0 0 0 127 0" result="hardAlpha"/>
<feOffset/>
<feGaussianBlur stdDeviation="1.5"/>
<feComposite in2="hardAlpha" operator="out"/>
<feColorMatrix type="matrix" values="0 0 0 0 0 0 0 0 0 0 0 0 0 0 0 0 0 0 0.3 0"/>
<feBlend mode="normal" in2="BackgroundImageFix" result="effect1_dropShadow_344_174"/>
<feBlend mode="normal" in="SourceGraphic" in2="effect1_dropShadow_344_174" result="shape"/>
</filter>
<linearGradient id="paint0_linear_344_174" x1="0.912277" y1="-0.193456" x2="20.6817" y2="112.044" gradientUnits="userSpaceOnUse">
<stop stop-color="#F9BD23"/>
<stop offset="1" stop-color="#E25607"/>
</linearGradient>
</defs>
</svg>
