<svg width="270" height="68" viewBox="0 0 270 68" fill="none" xmlns="http://www.w3.org/2000/svg">
<rect width="270" height="68" rx="8" fill="#F0775B"/>
<g filter="url(#filter0_d_344_156)">
<path d="M24.3115 42V26H30.4365C31.5928 26 32.5537 26.1823 33.3193 26.5469C34.0902 26.9062 34.6657 27.3984 35.0459 28.0234C35.4313 28.6484 35.624 29.3568 35.624 30.1484C35.624 30.7995 35.499 31.3568 35.249 31.8203C34.999 32.2786 34.6631 32.651 34.2412 32.9375C33.8193 33.224 33.348 33.4297 32.8271 33.5547V33.7109C33.3949 33.7422 33.9391 33.9167 34.46 34.2344C34.986 34.5469 35.4157 34.9896 35.749 35.5625C36.0824 36.1354 36.249 36.8281 36.249 37.6406C36.249 38.4687 36.0485 39.2135 35.6475 39.875C35.2464 40.5312 34.6423 41.0495 33.835 41.4297C33.0277 41.8099 32.012 42 30.7881 42H24.3115ZM27.21 39.5781H30.3271C31.3792 39.5781 32.137 39.3776 32.6006 38.9766C33.0693 38.5703 33.3037 38.0495 33.3037 37.4141C33.3037 36.9401 33.1865 36.513 32.9521 36.1328C32.7178 35.7474 32.3844 35.4453 31.9521 35.2266C31.5199 35.0026 31.0042 34.8906 30.4053 34.8906H27.21V39.5781ZM27.21 32.8047H30.0771C30.5771 32.8047 31.0277 32.7135 31.4287 32.5312C31.8298 32.3437 32.1449 32.0807 32.374 31.7422C32.6084 31.3984 32.7256 30.9922 32.7256 30.5234C32.7256 29.9036 32.5068 29.3932 32.0693 28.9922C31.637 28.5911 30.9938 28.3906 30.1396 28.3906H27.21V32.8047ZM40.5596 33.9062H44.0986C45.6299 33.9062 46.8148 34.2786 47.6533 35.0234C48.4919 35.7682 48.9137 36.7448 48.9189 37.9531C48.9137 38.7396 48.721 39.4375 48.3408 40.0469C47.9658 40.6562 47.4189 41.1354 46.7002 41.4844C45.9867 41.8281 45.1195 42 44.0986 42H38.6455V30H41.3721V39.6797H44.0986C44.7132 39.6797 45.2184 39.5234 45.6143 39.2109C46.0101 38.8932 46.208 38.487 46.208 37.9922C46.208 37.4714 46.0101 37.0469 45.6143 36.7187C45.2184 36.3906 44.7132 36.2266 44.0986 36.2266H40.5596V33.9062ZM50.4111 42V30H53.2393V42H50.4111ZM56.1553 42V30H61.1943C62.6162 30 63.7386 30.2839 64.5615 30.8516C65.3896 31.4193 65.8037 32.2109 65.8037 33.2266C65.8037 33.8984 65.5693 34.4479 65.1006 34.875C64.637 35.2969 64.0042 35.5807 63.2021 35.7266C63.8324 35.7786 64.3844 35.9375 64.8584 36.2031C65.3376 36.4687 65.7126 36.8177 65.9834 37.25C66.2542 37.6823 66.3896 38.1797 66.3896 38.7422C66.3896 39.4036 66.2152 39.9792 65.8662 40.4687C65.5225 40.9531 65.0199 41.3307 64.3584 41.6016C63.7021 41.8672 62.9053 42 61.9678 42H56.1553ZM58.8037 39.7734H61.9678C62.4886 39.7734 62.8975 39.651 63.1943 39.4062C63.4912 39.1562 63.6396 38.8177 63.6396 38.3906C63.6396 37.8958 63.4912 37.5078 63.1943 37.2266C62.8975 36.9401 62.4886 36.7969 61.9678 36.7969H58.8037V39.7734ZM58.8037 34.9687H61.249C61.6344 34.9687 61.9652 34.9141 62.2412 34.8047C62.5173 34.6901 62.7282 34.5313 62.874 34.3281C63.0199 34.1198 63.0928 33.8724 63.0928 33.5859C63.0928 33.1745 62.9235 32.8516 62.585 32.6172C62.2516 32.3828 61.7881 32.2656 61.1943 32.2656H58.8037V34.9687ZM74.0361 42.2344C72.833 42.2344 71.7939 41.9844 70.9189 41.4844C70.0492 40.9792 69.3799 40.2656 68.9111 39.3437C68.4424 38.4167 68.208 37.3255 68.208 36.0703C68.208 34.8359 68.4424 33.7526 68.9111 32.8203C69.3851 31.8828 70.0465 31.1536 70.8955 30.6328C71.7445 30.1068 72.7419 29.8438 73.8877 29.8438C74.6273 29.8438 75.3252 29.9635 75.9814 30.2031C76.6429 30.4375 77.2262 30.8021 77.7314 31.2969C78.2419 31.7917 78.6429 32.4219 78.9346 33.1875C79.2262 33.9479 79.3721 34.8542 79.3721 35.9062V36.7734H69.5361V34.8672H76.6611C76.6559 34.3255 76.5387 33.8437 76.3096 33.4219C76.0804 32.9948 75.7601 32.6589 75.3486 32.4141C74.9424 32.1693 74.4684 32.0469 73.9268 32.0469C73.3486 32.0469 72.8408 32.1875 72.4033 32.4687C71.9658 32.7448 71.6247 33.1094 71.3799 33.5625C71.1403 34.0104 71.0179 34.5026 71.0127 35.0391V36.7031C71.0127 37.401 71.1403 38 71.3955 38.5C71.6507 38.9948 72.0075 39.375 72.4658 39.6406C72.9242 39.901 73.4606 40.0312 74.0752 40.0312C74.4867 40.0312 74.859 39.974 75.1924 39.8594C75.5257 39.7396 75.8148 39.5651 76.0596 39.3359C76.3044 39.1068 76.4893 38.8229 76.6143 38.4844L79.2549 38.7812C79.0882 39.4792 78.7705 40.0885 78.3018 40.6094C77.8382 41.125 77.2445 41.526 76.5205 41.8125C75.7965 42.0937 74.9684 42.2344 74.0361 42.2344ZM86.999 42.2344C85.8011 42.2344 84.7725 41.9714 83.9131 41.4453C83.0589 40.9193 82.4001 40.1927 81.9365 39.2656C81.4782 38.3333 81.249 37.2604 81.249 36.0469C81.249 34.8281 81.4834 33.7526 81.9521 32.8203C82.4209 31.8828 83.0824 31.1536 83.9365 30.6328C84.7959 30.1068 85.8115 29.8438 86.9834 29.8438C87.9574 29.8438 88.8193 30.0234 89.5693 30.3828C90.3245 30.737 90.9261 31.2396 91.374 31.8906C91.8219 32.5365 92.0771 33.2917 92.1396 34.1562H89.4365C89.3271 33.5781 89.0667 33.0964 88.6553 32.7109C88.249 32.3203 87.7048 32.125 87.0225 32.125C86.4443 32.125 85.9365 32.2812 85.499 32.5937C85.0615 32.901 84.7204 33.3437 84.4756 33.9219C84.236 34.5 84.1162 35.1927 84.1162 36C84.1162 36.8177 84.236 37.5208 84.4756 38.1094C84.7152 38.6927 85.0511 39.1432 85.4834 39.4609C85.9209 39.7734 86.4339 39.9297 87.0225 39.9297C87.4391 39.9297 87.8115 39.8516 88.1396 39.6953C88.473 39.5339 88.7516 39.3021 88.9756 39C89.1995 38.6979 89.3532 38.3307 89.4365 37.8984H92.1396C92.0719 38.7474 91.8219 39.5 91.3896 40.1562C90.9574 40.8073 90.3688 41.3177 89.624 41.6875C88.8792 42.0521 88.0042 42.2344 86.999 42.2344ZM93.5908 32.3203V30H104.091V32.3203H100.208V42H97.4736V32.3203H93.5908ZM109.069 38.1719L113.874 30H116.78V42H114.046V33.8203L109.257 42H106.343V30H109.069V38.1719ZM127.868 38.1719L132.673 30H135.579V42H132.845V33.8203L128.056 42H125.142V30H127.868V38.1719ZM137.819 38.7109H140.624C140.65 39.1589 140.851 39.5052 141.226 39.75C141.601 39.9948 142.088 40.1172 142.687 40.1172C143.296 40.1172 143.809 39.9844 144.226 39.7187C144.647 39.4479 144.858 39.0391 144.858 38.4922C144.858 38.1693 144.778 37.8854 144.616 37.6406C144.455 37.3906 144.228 37.1979 143.937 37.0625C143.645 36.9271 143.301 36.8594 142.905 36.8594H141.069V34.8516H142.905C143.494 34.8516 143.939 34.7161 144.241 34.4453C144.549 34.1745 144.702 33.8333 144.702 33.4219C144.702 32.9792 144.541 32.6198 144.218 32.3437C143.9 32.0677 143.46 31.9297 142.897 31.9297C142.335 31.9297 141.866 32.0573 141.491 32.3125C141.121 32.5677 140.929 32.8958 140.913 33.2969H138.124C138.134 32.599 138.343 31.9922 138.749 31.4766C139.16 30.9609 139.713 30.5599 140.405 30.2734C141.103 29.987 141.89 29.8438 142.765 29.8438C143.702 29.8438 144.512 29.9844 145.194 30.2656C145.877 30.5469 146.403 30.9401 146.772 31.4453C147.142 31.9453 147.327 32.5339 147.327 33.2109C147.327 33.862 147.124 34.401 146.718 34.8281C146.312 35.25 145.765 35.5521 145.077 35.7344V35.8594C145.551 35.8854 145.978 36.0208 146.358 36.2656C146.739 36.5052 147.041 36.8307 147.265 37.2422C147.489 37.6536 147.601 38.1302 147.601 38.6719C147.601 39.4062 147.39 40.0417 146.968 40.5781C146.546 41.1094 145.965 41.5182 145.226 41.8047C144.491 42.0911 143.65 42.2344 142.702 42.2344C141.78 42.2344 140.955 42.0964 140.226 41.8203C139.502 41.5391 138.926 41.1354 138.499 40.6094C138.072 40.0833 137.845 39.4505 137.819 38.7109ZM155.284 46.5V30H158.065V31.9844H158.229C158.375 31.6927 158.581 31.3828 158.847 31.0547C159.112 30.7214 159.472 30.4375 159.925 30.2031C160.378 29.9635 160.956 29.8438 161.659 29.8438C162.586 29.8438 163.422 30.0807 164.167 30.5547C164.917 31.0234 165.511 31.7187 165.948 32.6406C166.391 33.5573 166.612 34.6823 166.612 36.0156C166.612 37.3333 166.396 38.4531 165.964 39.375C165.532 40.2969 164.943 41 164.198 41.4844C163.453 41.9688 162.61 42.2109 161.667 42.2109C160.979 42.2109 160.409 42.0964 159.956 41.8672C159.503 41.638 159.138 41.362 158.862 41.0391C158.591 40.7109 158.381 40.401 158.229 40.1094H158.112V46.5H155.284ZM158.058 36C158.058 36.776 158.167 37.4557 158.386 38.0391C158.61 38.6224 158.93 39.0781 159.347 39.4062C159.769 39.7292 160.279 39.8906 160.878 39.8906C161.503 39.8906 162.026 39.724 162.448 39.3906C162.87 39.0521 163.188 38.5911 163.401 38.0078C163.62 37.4193 163.729 36.75 163.729 36C163.729 35.2552 163.623 34.5937 163.409 34.0156C163.196 33.4375 162.878 32.9844 162.456 32.6562C162.034 32.3281 161.508 32.1641 160.878 32.1641C160.274 32.1641 159.761 32.3229 159.339 32.6406C158.917 32.9583 158.597 33.4036 158.378 33.9766C158.164 34.5495 158.058 35.224 158.058 36ZM174.347 42.2344C173.144 42.2344 172.104 41.9844 171.229 41.4844C170.36 40.9792 169.69 40.2656 169.222 39.3437C168.753 38.4167 168.519 37.3255 168.519 36.0703C168.519 34.8359 168.753 33.7526 169.222 32.8203C169.696 31.8828 170.357 31.1536 171.206 30.6328C172.055 30.1068 173.052 29.8438 174.198 29.8438C174.938 29.8438 175.636 29.9635 176.292 30.2031C176.953 30.4375 177.537 30.8021 178.042 31.2969C178.552 31.7917 178.953 32.4219 179.245 33.1875C179.537 33.9479 179.683 34.8542 179.683 35.9062V36.7734H169.847V34.8672H176.972C176.966 34.3255 176.849 33.8437 176.62 33.4219C176.391 32.9948 176.071 32.6589 175.659 32.4141C175.253 32.1693 174.779 32.0469 174.237 32.0469C173.659 32.0469 173.151 32.1875 172.714 32.4687C172.276 32.7448 171.935 33.1094 171.69 33.5625C171.451 34.0104 171.328 34.5026 171.323 35.0391V36.7031C171.323 37.401 171.451 38 171.706 38.5C171.961 38.9948 172.318 39.375 172.776 39.6406C173.235 39.901 173.771 40.0312 174.386 40.0312C174.797 40.0312 175.17 39.974 175.503 39.8594C175.836 39.7396 176.125 39.5651 176.37 39.3359C176.615 39.1068 176.8 38.8229 176.925 38.4844L179.565 38.7812C179.399 39.4792 179.081 40.0885 178.612 40.6094C178.149 41.125 177.555 41.526 176.831 41.8125C176.107 42.0937 175.279 42.2344 174.347 42.2344ZM188.981 38.7109L192.544 30H194.825L189.974 42H187.997L183.255 30H185.513L188.981 38.7109ZM184.802 30V42H182.075V30H184.802ZM193.278 42V30H195.981V42H193.278ZM204.067 42.2344C202.896 42.2344 201.88 41.9766 201.021 41.4609C200.161 40.9453 199.494 40.224 199.021 39.2969C198.552 38.3698 198.317 37.2865 198.317 36.0469C198.317 34.8073 198.552 33.7214 199.021 32.7891C199.494 31.8568 200.161 31.1328 201.021 30.6172C201.88 30.1016 202.896 29.8438 204.067 29.8438C205.239 29.8438 206.255 30.1016 207.114 30.6172C207.974 31.1328 208.638 31.8568 209.106 32.7891C209.58 33.7214 209.817 34.8073 209.817 36.0469C209.817 37.2865 209.58 38.3698 209.106 39.2969C208.638 40.224 207.974 40.9453 207.114 41.4609C206.255 41.9766 205.239 42.2344 204.067 42.2344ZM204.083 39.9687C204.718 39.9687 205.25 39.7943 205.677 39.4453C206.104 39.0911 206.422 38.6172 206.63 38.0234C206.843 37.4297 206.95 36.7682 206.95 36.0391C206.95 35.3047 206.843 34.6406 206.63 34.0469C206.422 33.4479 206.104 32.9714 205.677 32.6172C205.25 32.263 204.718 32.0859 204.083 32.0859C203.432 32.0859 202.89 32.263 202.458 32.6172C202.031 32.9714 201.711 33.4479 201.497 34.0469C201.289 34.6406 201.185 35.3047 201.185 36.0391C201.185 36.7682 201.289 37.4297 201.497 38.0234C201.711 38.6172 202.031 39.0911 202.458 39.4453C202.89 39.7943 203.432 39.9687 204.083 39.9687ZM220.46 34.8281V37.1484H214.069V34.8281H220.46ZM214.944 30V42H212.218V30H214.944ZM222.312 30V42H219.593V30H222.312ZM223.829 32.3203V30H234.329V32.3203H230.446V42H227.712V32.3203H223.829ZM239.54 42.2422C238.78 42.2422 238.095 42.1068 237.485 41.8359C236.881 41.5599 236.402 41.1536 236.048 40.6172C235.699 40.0807 235.524 39.4193 235.524 38.6328C235.524 37.9557 235.649 37.3958 235.899 36.9531C236.149 36.5104 236.491 36.1562 236.923 35.8906C237.355 35.625 237.842 35.4245 238.384 35.2891C238.931 35.1484 239.496 35.0469 240.079 34.9844C240.782 34.9115 241.353 34.8464 241.79 34.7891C242.228 34.7266 242.545 34.6328 242.743 34.5078C242.946 34.3776 243.048 34.1771 243.048 33.9062V33.8594C243.048 33.2708 242.873 32.8151 242.524 32.4922C242.175 32.1693 241.673 32.0078 241.017 32.0078C240.324 32.0078 239.774 32.1589 239.368 32.4609C238.967 32.763 238.696 33.1198 238.556 33.5312L235.915 33.1562C236.123 32.4271 236.467 31.8177 236.946 31.3281C237.425 30.8333 238.011 30.4635 238.704 30.2187C239.397 29.9688 240.162 29.8438 241.001 29.8438C241.579 29.8438 242.155 29.9115 242.728 30.0469C243.3 30.1823 243.824 30.4062 244.298 30.7187C244.772 31.026 245.152 31.4453 245.438 31.9766C245.73 32.5078 245.876 33.1719 245.876 33.9687V42H243.157V40.3516H243.063C242.892 40.6849 242.649 40.9974 242.337 41.2891C242.03 41.5755 241.642 41.8073 241.173 41.9844C240.709 42.1563 240.165 42.2422 239.54 42.2422ZM240.274 40.1641C240.842 40.1641 241.334 40.0521 241.751 39.8281C242.168 39.599 242.488 39.2969 242.712 38.9219C242.941 38.5469 243.056 38.138 243.056 37.6953V36.2812C242.967 36.3542 242.816 36.4219 242.603 36.4844C242.394 36.5469 242.16 36.6016 241.899 36.6484C241.639 36.6953 241.381 36.737 241.126 36.7734C240.871 36.8099 240.649 36.8411 240.462 36.8672C240.04 36.9245 239.662 37.0182 239.329 37.1484C238.996 37.2786 238.733 37.4609 238.54 37.6953C238.347 37.9245 238.251 38.2214 238.251 38.5859C238.251 39.1068 238.441 39.5 238.821 39.7656C239.201 40.0312 239.686 40.1641 240.274 40.1641Z" fill="white"/>
</g>
<defs>
<filter id="filter0_d_344_156" x="21.3115" y="23" width="227.564" height="26.5" filterUnits="userSpaceOnUse" color-interpolation-filters="sRGB">
<feFlood flood-opacity="0" result="BackgroundImageFix"/>
<feColorMatrix in="SourceAlpha" type="matrix" values="0 0 0 0 0 0 0 0 0 0 0 0 0 0 0 0 0 0 127 0" result="hardAlpha"/>
<feOffset/>
<feGaussianBlur stdDeviation="1.5"/>
<feComposite in2="hardAlpha" operator="out"/>
<feColorMatrix type="matrix" values="0 0 0 0 0 0 0 0 0 0 0 0 0 0 0 0 0 0 0.3 0"/>
<feBlend mode="normal" in2="BackgroundImageFix" result="effect1_dropShadow_344_156"/>
<feBlend mode="normal" in="SourceGraphic" in2="effect1_dropShadow_344_156" result="shape"/>
</filter>
</defs>
</svg>
