<svg width="270" height="68" viewBox="0 0 270 68" fill="none" xmlns="http://www.w3.org/2000/svg">
<rect width="270" height="68" rx="8" fill="white"/>
<path d="M66.2052 27.7813H69.4395C70.6895 27.7813 71.7989 28.0495 72.7677 28.5859C73.7364 29.1224 74.4968 29.8776 75.0489 30.8516C75.601 31.8203 75.877 32.9557 75.877 34.2578C75.877 35.5286 75.601 36.6406 75.0489 37.5937C74.4968 38.5469 73.7364 39.2891 72.7677 39.8203C71.7989 40.3464 70.6895 40.6094 69.4395 40.6094H66.2052C64.95 40.6094 63.8354 40.349 62.8614 39.8281C61.8927 39.3021 61.1323 38.5625 60.5802 37.6094C60.0281 36.6562 59.752 35.5417 59.752 34.2656C59.752 32.9635 60.0307 31.8281 60.588 30.8594C61.1453 29.8854 61.9083 29.1302 62.877 28.5938C63.851 28.0521 64.9604 27.7813 66.2052 27.7813ZM66.2052 30.2344C65.4448 30.2344 64.7859 30.3906 64.2286 30.7031C63.6765 31.0104 63.2494 31.4635 62.9474 32.0625C62.6453 32.6615 62.4942 33.3958 62.4942 34.2656C62.4942 35.099 62.6453 35.8047 62.9474 36.3828C63.2546 36.9609 63.6869 37.401 64.2442 37.7031C64.8015 38.0052 65.4552 38.1562 66.2052 38.1562H69.4474C70.2026 38.1562 70.8536 38.0052 71.4005 37.7031C71.9526 37.3958 72.377 36.9531 72.6739 36.375C72.976 35.7917 73.127 35.0859 73.127 34.2578C73.127 33.3984 72.976 32.6693 72.6739 32.0703C72.377 31.4714 71.9526 31.0156 71.4005 30.7031C70.8536 30.3906 70.2026 30.2344 69.4474 30.2344H66.2052ZM69.2208 25.7188V42.6563H66.4317V25.7188H69.2208ZM83.7442 42.2344C82.5724 42.2344 81.5567 41.9766 80.6974 41.4609C79.838 40.9453 79.1713 40.224 78.6974 39.2969C78.2286 38.3698 77.9942 37.2865 77.9942 36.0469C77.9942 34.8073 78.2286 33.7214 78.6974 32.7891C79.1713 31.8568 79.838 31.1328 80.6974 30.6172C81.5567 30.1016 82.5724 29.8438 83.7442 29.8438C84.9161 29.8438 85.9317 30.1016 86.7911 30.6172C87.6505 31.1328 88.3145 31.8568 88.7833 32.7891C89.2573 33.7214 89.4942 34.8073 89.4942 36.0469C89.4942 37.2865 89.2573 38.3698 88.7833 39.2969C88.3145 40.224 87.6505 40.9453 86.7911 41.4609C85.9317 41.9766 84.9161 42.2344 83.7442 42.2344ZM83.7599 39.9687C84.3953 39.9687 84.9265 39.7943 85.3536 39.4453C85.7807 39.0911 86.0984 38.6172 86.3067 38.0234C86.5203 37.4297 86.627 36.7682 86.627 36.0391C86.627 35.3047 86.5203 34.6406 86.3067 34.0469C86.0984 33.4479 85.7807 32.9714 85.3536 32.6172C84.9265 32.263 84.3953 32.0859 83.7599 32.0859C83.1088 32.0859 82.5671 32.263 82.1349 32.6172C81.7078 32.9714 81.3875 33.4479 81.1739 34.0469C80.9656 34.6406 80.8614 35.3047 80.8614 36.0391C80.8614 36.7682 80.9656 37.4297 81.1739 38.0234C81.3875 38.6172 81.7078 39.0911 82.1349 39.4453C82.5671 39.7943 83.1088 39.9687 83.7599 39.9687ZM91.8946 46.5V30H94.6759V31.9844H94.8399C94.9858 31.6927 95.1915 31.3828 95.4571 31.0547C95.7227 30.7214 96.0821 30.4375 96.5352 30.2031C96.9884 29.9635 97.5665 29.8438 98.2696 29.8438C99.1967 29.8438 100.033 30.0807 100.777 30.5547C101.527 31.0234 102.121 31.7187 102.559 32.6406C103.001 33.5573 103.223 34.6823 103.223 36.0156C103.223 37.3333 103.007 38.4531 102.574 39.375C102.142 40.2969 101.553 41 100.809 41.4844C100.064 41.9688 99.2201 42.2109 98.2774 42.2109C97.5899 42.2109 97.0196 42.0964 96.5665 41.8672C96.1134 41.638 95.7488 41.362 95.4727 41.0391C95.2019 40.7109 94.991 40.401 94.8399 40.1094H94.7227V46.5H91.8946ZM94.6681 36C94.6681 36.776 94.7774 37.4557 94.9962 38.0391C95.2201 38.6224 95.5405 39.0781 95.9571 39.4062C96.379 39.7292 96.8894 39.8906 97.4884 39.8906C98.1134 39.8906 98.6368 39.724 99.0587 39.3906C99.4806 39.0521 99.7983 38.5911 100.012 38.0078C100.231 37.4193 100.34 36.75 100.34 36C100.34 35.2552 100.233 34.5937 100.02 34.0156C99.8061 33.4375 99.4884 32.9844 99.0665 32.6562C98.6446 32.3281 98.1186 32.1641 97.4884 32.1641C96.8842 32.1641 96.3712 32.3229 95.9493 32.6406C95.5274 32.9583 95.2071 33.4036 94.9884 33.9766C94.7748 34.5495 94.6681 35.224 94.6681 36ZM112.551 38.7109L116.113 30H118.395L113.543 42H111.566L106.824 30H109.082L112.551 38.7109ZM108.371 30V42H105.645V30H108.371ZM116.848 42V30H119.551V42H116.848ZM123.731 46.5C123.345 46.5 122.988 46.4688 122.66 46.4063C122.337 46.349 122.08 46.2813 121.887 46.2031L122.543 44C122.955 44.1198 123.322 44.1771 123.645 44.1719C123.968 44.1667 124.251 44.0651 124.496 43.8672C124.746 43.6745 124.957 43.3516 125.129 42.8984L125.371 42.25L121.02 30H124.02L126.785 39.0625H126.91L129.684 30H132.691L127.887 43.4531C127.663 44.0885 127.366 44.6328 126.996 45.0859C126.626 45.5443 126.173 45.8932 125.637 46.1328C125.106 46.3776 124.47 46.5 123.731 46.5ZM132.832 42L132.816 39.6719H133.231C133.543 39.6719 133.806 39.6016 134.02 39.4609C134.233 39.3203 134.41 39.0859 134.551 38.7578C134.691 38.4245 134.801 37.9766 134.879 37.4141C134.957 36.8516 135.012 36.151 135.043 35.3125L135.254 30H144.004V42H141.27V32.3203H137.824L137.637 36.1875C137.59 37.1875 137.478 38.0547 137.301 38.7891C137.129 39.5182 136.884 40.1198 136.566 40.5938C136.254 41.0677 135.861 41.4219 135.387 41.6562C134.913 41.8854 134.353 42 133.707 42H132.832ZM153.945 42V32.2969H151.383C150.732 32.2969 150.232 32.4479 149.883 32.75C149.534 33.0521 149.362 33.4271 149.367 33.875C149.362 34.3229 149.526 34.6927 149.859 34.9844C150.193 35.276 150.669 35.4219 151.289 35.4219H154.836V37.4844H151.289C150.331 37.4844 149.503 37.3333 148.805 37.0312C148.107 36.7292 147.57 36.3021 147.195 35.75C146.82 35.1979 146.633 34.5521 146.633 33.8125C146.633 33.0417 146.823 32.3724 147.203 31.8047C147.589 31.2318 148.136 30.7891 148.844 30.4766C149.557 30.1589 150.404 30 151.383 30H156.594V42H153.945ZM146.195 42L149.547 35.8437H152.336L148.977 42H146.195ZM159.441 46.5V30H162.223V31.9844H162.387C162.533 31.6927 162.738 31.3828 163.004 31.0547C163.27 30.7214 163.629 30.4375 164.082 30.2031C164.535 29.9635 165.113 29.8438 165.816 29.8438C166.744 29.8438 167.58 30.0807 168.324 30.5547C169.074 31.0234 169.668 31.7187 170.106 32.6406C170.548 33.5573 170.77 34.6823 170.77 36.0156C170.77 37.3333 170.553 38.4531 170.121 39.375C169.689 40.2969 169.1 41 168.356 41.4844C167.611 41.9688 166.767 42.2109 165.824 42.2109C165.137 42.2109 164.566 42.0964 164.113 41.8672C163.66 41.638 163.296 41.362 163.02 41.0391C162.749 40.7109 162.538 40.401 162.387 40.1094H162.27V46.5H159.441ZM162.215 36C162.215 36.776 162.324 37.4557 162.543 38.0391C162.767 38.6224 163.087 39.0781 163.504 39.4062C163.926 39.7292 164.436 39.8906 165.035 39.8906C165.66 39.8906 166.184 39.724 166.606 39.3906C167.027 39.0521 167.345 38.5911 167.559 38.0078C167.777 37.4193 167.887 36.75 167.887 36C167.887 35.2552 167.78 34.5937 167.566 34.0156C167.353 33.4375 167.035 32.9844 166.613 32.6562C166.191 32.3281 165.665 32.1641 165.035 32.1641C164.431 32.1641 163.918 32.3229 163.496 32.6406C163.074 32.9583 162.754 33.4036 162.535 33.9766C162.322 34.5495 162.215 35.224 162.215 36ZM187.469 30.3984C187.396 29.7161 187.089 29.1849 186.547 28.8047C186.011 28.4245 185.313 28.2344 184.453 28.2344C183.849 28.2344 183.331 28.3255 182.899 28.5078C182.466 28.6901 182.136 28.9375 181.906 29.25C181.677 29.5625 181.56 29.9193 181.555 30.3203C181.555 30.6536 181.63 30.9427 181.781 31.1875C181.938 31.4323 182.149 31.6406 182.414 31.8125C182.68 31.9792 182.974 32.1198 183.297 32.2344C183.62 32.349 183.945 32.4453 184.274 32.5234L185.774 32.8984C186.378 33.0391 186.958 33.2292 187.516 33.4687C188.078 33.7083 188.581 34.0104 189.024 34.375C189.471 34.7396 189.826 35.1797 190.086 35.6953C190.346 36.2109 190.477 36.8151 190.477 37.5078C190.477 38.4453 190.237 39.2708 189.758 39.9844C189.279 40.6927 188.586 41.2474 187.68 41.6484C186.779 42.0443 185.688 42.2422 184.406 42.2422C183.162 42.2422 182.081 42.0495 181.164 41.6641C180.253 41.2786 179.539 40.7161 179.024 39.9766C178.513 39.237 178.237 38.3359 178.195 37.2734H181.047C181.089 37.8307 181.261 38.2943 181.563 38.6641C181.865 39.0339 182.258 39.3099 182.742 39.4922C183.232 39.6745 183.779 39.7656 184.383 39.7656C185.013 39.7656 185.565 39.6719 186.039 39.4844C186.518 39.2917 186.893 39.026 187.164 38.6875C187.435 38.3437 187.573 37.9427 187.578 37.4844C187.573 37.0677 187.451 36.724 187.211 36.4531C186.971 36.1771 186.636 35.9479 186.203 35.7656C185.776 35.5781 185.276 35.4115 184.703 35.2656L182.883 34.7969C181.565 34.4583 180.524 33.9453 179.758 33.2578C178.997 32.5651 178.617 31.6458 178.617 30.5C178.617 29.5573 178.872 28.7318 179.383 28.0234C179.899 27.3151 180.599 26.7656 181.484 26.375C182.37 25.9792 183.372 25.7812 184.492 25.7812C185.628 25.7812 186.622 25.9792 187.477 26.375C188.336 26.7656 189.011 27.3099 189.5 28.0078C189.99 28.7005 190.242 29.4974 190.258 30.3984H187.469ZM193.061 26H196.608L201.358 37.5937H201.545L206.295 26H209.842V42H207.061V31.0078H206.912L202.49 41.9531H200.412L195.99 30.9844H195.842V42H193.061V26Z" fill="#313F52"/>
</svg>
