<svg width="270" height="68" viewBox="0 0 270 68" fill="none" xmlns="http://www.w3.org/2000/svg">
<rect width="270" height="68" rx="8" fill="#C0C0C0"/>
<path d="M104.146 31.3984H101.225C101.141 30.9193 100.988 30.4948 100.764 30.125C100.54 29.75 100.261 29.4323 99.9277 29.1719C99.5944 28.9115 99.2142 28.7161 98.7871 28.5859C98.3652 28.4505 97.9095 28.3828 97.4199 28.3828C96.5501 28.3828 95.7793 28.6016 95.1074 29.0391C94.4355 29.4714 93.9095 30.1068 93.5293 30.9453C93.1491 31.7786 92.9589 32.7969 92.9589 34C92.9589 35.224 93.1491 36.2552 93.5293 37.0937C93.9147 37.9271 94.4407 38.5573 95.1074 38.9844C95.7793 39.4062 96.5475 39.6172 97.4121 39.6172C97.8912 39.6172 98.3392 39.5547 98.7558 39.4297C99.1777 39.2995 99.5553 39.1094 99.8886 38.8594C100.227 38.6094 100.511 38.3021 100.74 37.9375C100.975 37.5729 101.136 37.1562 101.225 36.6875L104.146 36.7031C104.037 37.4635 103.8 38.1771 103.436 38.8438C103.076 39.5104 102.605 40.099 102.021 40.6094C101.438 41.1146 100.756 41.5104 99.9746 41.7969C99.1933 42.0781 98.3261 42.2187 97.373 42.2187C95.9668 42.2187 94.7116 41.8932 93.6074 41.2422C92.5032 40.5911 91.6334 39.651 90.998 38.4219C90.3626 37.1927 90.0449 35.7187 90.0449 34C90.0449 32.276 90.3652 30.8021 91.0058 29.5781C91.6464 28.349 92.5188 27.4089 93.623 26.7578C94.7272 26.1068 95.9772 25.7812 97.373 25.7812C98.2636 25.7812 99.0918 25.9062 99.8574 26.1562C100.623 26.4062 101.305 26.7734 101.904 27.2578C102.503 27.737 102.995 28.3255 103.381 29.0234C103.771 29.7161 104.027 30.5078 104.146 31.3984ZM116.699 30V42H113.98V30H116.699ZM115.426 35.4219V37.7344C115.118 37.8698 114.769 37.9922 114.379 38.1016C113.993 38.2057 113.585 38.2891 113.152 38.3516C112.725 38.4141 112.298 38.4453 111.871 38.4453C110.267 38.4453 108.999 38.0859 108.066 37.3672C107.139 36.6432 106.676 35.5156 106.676 33.9844V29.9844H109.379V33.9844C109.379 34.5 109.47 34.9141 109.652 35.2266C109.835 35.5391 110.111 35.7682 110.48 35.9141C110.85 36.0547 111.314 36.125 111.871 36.125C112.496 36.125 113.09 36.0625 113.652 35.9375C114.215 35.8125 114.806 35.6406 115.426 35.4219ZM124.857 42.2344C123.654 42.2344 122.615 41.9844 121.74 41.4844C120.87 40.9792 120.201 40.2656 119.732 39.3437C119.264 38.4167 119.029 37.3255 119.029 36.0703C119.029 34.8359 119.264 33.7526 119.732 32.8203C120.206 31.8828 120.868 31.1536 121.717 30.6328C122.566 30.1068 123.563 29.8438 124.709 29.8438C125.449 29.8438 126.146 29.9635 126.803 30.2031C127.464 30.4375 128.047 30.8021 128.553 31.2969C129.063 31.7917 129.464 32.4219 129.756 33.1875C130.047 33.9479 130.193 34.8542 130.193 35.9062V36.7734H120.357V34.8672H127.482C127.477 34.3255 127.36 33.8437 127.131 33.4219C126.902 32.9948 126.581 32.6589 126.17 32.4141C125.764 32.1693 125.29 32.0469 124.748 32.0469C124.17 32.0469 123.662 32.1875 123.225 32.4687C122.787 32.7448 122.446 33.1094 122.201 33.5625C121.962 34.0104 121.839 34.5026 121.834 35.0391V36.7031C121.834 37.401 121.962 38 122.217 38.5C122.472 38.9948 122.829 39.375 123.287 39.6406C123.745 39.901 124.282 40.0312 124.896 40.0312C125.308 40.0312 125.68 39.974 126.014 39.8594C126.347 39.7396 126.636 39.5651 126.881 39.3359C127.126 39.1068 127.311 38.8229 127.436 38.4844L130.076 38.7812C129.909 39.4792 129.592 40.0885 129.123 40.6094C128.659 41.125 128.066 41.526 127.342 41.8125C126.618 42.0937 125.79 42.2344 124.857 42.2344ZM131.586 32.3203V30H142.086V32.3203H138.203V42H135.469V32.3203H131.586ZM153.867 30V42H151.148V30H153.867ZM152.594 35.4219V37.7344C152.286 37.8698 151.937 37.9922 151.547 38.1016C151.161 38.2057 150.753 38.2891 150.32 38.3516C149.893 38.4141 149.466 38.4453 149.039 38.4453C147.435 38.4453 146.167 38.0859 145.234 37.3672C144.307 36.6432 143.844 35.5156 143.844 33.9844V29.9844H146.547V33.9844C146.547 34.5 146.638 34.9141 146.82 35.2266C147.003 35.5391 147.279 35.7682 147.648 35.9141C148.018 36.0547 148.482 36.125 149.039 36.125C149.664 36.125 150.258 36.0625 150.82 35.9375C151.383 35.8125 151.974 35.6406 152.594 35.4219ZM159.439 38.1719L164.244 30H167.15V42H164.416V33.8203L159.627 42H156.713V30H159.439V38.1719ZM170.055 42V30H172.883V34.8437H173.914L177.523 30H180.93L176.484 35.8906L180.977 42H177.555L174.266 37.4766H172.883V42H170.055Z" fill="#313F52"/>
</svg>
