<svg width="270" height="68" viewBox="0 0 270 68" fill="none" xmlns="http://www.w3.org/2000/svg">
<rect width="270" height="68" rx="8" fill="white"/>
<path d="M47.6172 28.4297V26H60.3828V28.4297H55.4375V42H52.5625V28.4297H47.6172ZM61.4727 46.5V30H64.2539V31.9844H64.418C64.5638 31.6927 64.7695 31.3828 65.0352 31.0547C65.3008 30.7214 65.6602 30.4375 66.1133 30.2031C66.5664 29.9635 67.1445 29.8438 67.8477 29.8438C68.7747 29.8438 69.6107 30.0807 70.3555 30.5547C71.1055 31.0234 71.6992 31.7187 72.1367 32.6406C72.5794 33.5573 72.8008 34.6823 72.8008 36.0156C72.8008 37.3333 72.5846 38.4531 72.1523 39.375C71.7201 40.2969 71.1315 41 70.3867 41.4844C69.6419 41.9688 68.7982 42.2109 67.8555 42.2109C67.168 42.2109 66.5977 42.0964 66.1445 41.8672C65.6914 41.638 65.3268 41.362 65.0508 41.0391C64.7799 40.7109 64.569 40.401 64.418 40.1094H64.3008V46.5H61.4727ZM64.2461 36C64.2461 36.776 64.3555 37.4557 64.5742 38.0391C64.7982 38.6224 65.1185 39.0781 65.5352 39.4062C65.957 39.7292 66.4674 39.8906 67.0664 39.8906C67.6914 39.8906 68.2148 39.724 68.6367 39.3906C69.0586 39.0521 69.3763 38.5911 69.5898 38.0078C69.8086 37.4193 69.918 36.75 69.918 36C69.918 35.2552 69.8112 34.5937 69.5977 34.0156C69.3841 33.4375 69.0664 32.9844 68.6445 32.6562C68.2227 32.3281 67.6966 32.1641 67.0664 32.1641C66.4622 32.1641 65.9492 32.3229 65.5273 32.6406C65.1055 32.9583 64.7852 33.4036 64.5664 33.9766C64.3529 34.5495 64.2461 35.224 64.2461 36ZM78.6758 42.2422C77.9154 42.2422 77.2305 42.1068 76.6211 41.8359C76.0169 41.5599 75.5378 41.1536 75.1836 40.6172C74.8346 40.0807 74.6602 39.4193 74.6602 38.6328C74.6602 37.9557 74.7852 37.3958 75.0352 36.9531C75.2852 36.5104 75.6263 36.1562 76.0586 35.8906C76.4909 35.625 76.9779 35.4245 77.5195 35.2891C78.0664 35.1484 78.6315 35.0469 79.2148 34.9844C79.918 34.9115 80.4883 34.8464 80.9258 34.7891C81.3633 34.7266 81.681 34.6328 81.8789 34.5078C82.082 34.3776 82.1836 34.1771 82.1836 33.9062V33.8594C82.1836 33.2708 82.0091 32.8151 81.6602 32.4922C81.3112 32.1693 80.8086 32.0078 80.1523 32.0078C79.4596 32.0078 78.9102 32.1589 78.5039 32.4609C78.1029 32.763 77.832 33.1198 77.6914 33.5312L75.0508 33.1562C75.2591 32.4271 75.6029 31.8177 76.082 31.3281C76.5612 30.8333 77.1471 30.4635 77.8398 30.2187C78.5326 29.9688 79.2982 29.8438 80.1367 29.8438C80.7148 29.8438 81.2904 29.9115 81.8633 30.0469C82.4362 30.1823 82.9596 30.4062 83.4336 30.7187C83.9076 31.026 84.2878 31.4453 84.5742 31.9766C84.8659 32.5078 85.0117 33.1719 85.0117 33.9687V42H82.293V40.3516H82.1992C82.0273 40.6849 81.7852 40.9974 81.4727 41.2891C81.1654 41.5755 80.7773 41.8073 80.3086 41.9844C79.8451 42.1563 79.3008 42.2422 78.6758 42.2422ZM79.4102 40.1641C79.9779 40.1641 80.4701 40.0521 80.8867 39.8281C81.3034 39.599 81.6237 39.2969 81.8477 38.9219C82.0768 38.5469 82.1914 38.138 82.1914 37.6953V36.2812C82.1029 36.3542 81.9518 36.4219 81.7383 36.4844C81.5299 36.5469 81.2956 36.6016 81.0352 36.6484C80.7747 36.6953 80.5169 36.737 80.2617 36.7734C80.0065 36.8099 79.7852 36.8411 79.5977 36.8672C79.1758 36.9245 78.7982 37.0182 78.4648 37.1484C78.1315 37.2786 77.8685 37.4609 77.6758 37.6953C77.4831 37.9245 77.3867 38.2214 77.3867 38.5859C77.3867 39.1068 77.5768 39.5 77.957 39.7656C78.3372 40.0312 78.8216 40.1641 79.4102 40.1641ZM96.0977 34.8281V37.1484H89.707V34.8281H96.0977ZM90.582 30V42H87.8555V30H90.582ZM97.9492 30V42H95.2305V30H97.9492ZM106.045 42.2344C104.847 42.2344 103.818 41.9714 102.959 41.4453C102.105 40.9193 101.446 40.1927 100.982 39.2656C100.524 38.3333 100.295 37.2604 100.295 36.0469C100.295 34.8281 100.529 33.7526 100.998 32.8203C101.467 31.8828 102.128 31.1536 102.982 30.6328C103.842 30.1068 104.857 29.8438 106.029 29.8438C107.003 29.8438 107.865 30.0234 108.615 30.3828C109.37 30.737 109.972 31.2396 110.42 31.8906C110.868 32.5365 111.123 33.2917 111.186 34.1562H108.482C108.373 33.5781 108.113 33.0964 107.701 32.7109C107.295 32.3203 106.751 32.125 106.068 32.125C105.49 32.125 104.982 32.2812 104.545 32.5937C104.107 32.901 103.766 33.3437 103.521 33.9219C103.282 34.5 103.162 35.1927 103.162 36C103.162 36.8177 103.282 37.5208 103.521 38.1094C103.761 38.6927 104.097 39.1432 104.529 39.4609C104.967 39.7734 105.48 39.9297 106.068 39.9297C106.485 39.9297 106.857 39.8516 107.186 39.6953C107.519 39.5339 107.798 39.3021 108.021 39C108.245 38.6979 108.399 38.3307 108.482 37.8984H111.186C111.118 38.7474 110.868 39.5 110.436 40.1562C110.003 40.8073 109.415 41.3177 108.67 41.6875C107.925 42.0521 107.05 42.2344 106.045 42.2344ZM118.953 46.0781V26H121.789V46.0781H118.953ZM118.953 42.2344C118.073 42.2344 117.268 42.0859 116.539 41.7891C115.81 41.4922 115.18 41.0703 114.648 40.5234C114.122 39.9766 113.714 39.3255 113.422 38.5703C113.135 37.8099 112.992 36.9687 112.992 36.0469C112.992 35.125 113.135 34.2839 113.422 33.5234C113.714 32.763 114.122 32.1094 114.648 31.5625C115.18 31.0104 115.81 30.5859 116.539 30.2891C117.268 29.9922 118.073 29.8438 118.953 29.8438H119.555V42.2344H118.953ZM118.953 39.9531H119.305V32.125H118.953C118.453 32.125 118.01 32.2292 117.625 32.4375C117.245 32.6406 116.924 32.9245 116.664 33.2891C116.409 33.6484 116.214 34.0651 116.078 34.5391C115.948 35.0078 115.883 35.5104 115.883 36.0469C115.883 36.7604 116 37.4141 116.234 38.0078C116.469 38.5964 116.813 39.0677 117.266 39.4219C117.724 39.776 118.286 39.9531 118.953 39.9531ZM121.789 42.2344H121.188V29.8438H121.789C122.669 29.8438 123.474 29.9922 124.203 30.2891C124.932 30.5859 125.56 31.0104 126.086 31.5625C126.617 32.1094 127.026 32.763 127.313 33.5234C127.604 34.2839 127.75 35.125 127.75 36.0469C127.75 36.9687 127.604 37.8099 127.313 38.5703C127.026 39.3255 126.617 39.9766 126.086 40.5234C125.56 41.0703 124.932 41.4922 124.203 41.7891C123.474 42.0859 122.669 42.2344 121.789 42.2344ZM121.789 39.9531C122.294 39.9531 122.737 39.8516 123.117 39.6484C123.497 39.4453 123.815 39.1641 124.07 38.8047C124.331 38.4453 124.526 38.0312 124.656 37.5625C124.786 37.0885 124.852 36.5833 124.852 36.0469C124.852 35.3333 124.737 34.6797 124.508 34.0859C124.279 33.4922 123.935 33.0182 123.477 32.6641C123.023 32.3047 122.461 32.125 121.789 32.125H121.438V39.9531H121.789ZM135.371 42.2344C134.199 42.2344 133.184 41.9766 132.324 41.4609C131.465 40.9453 130.798 40.224 130.324 39.2969C129.855 38.3698 129.621 37.2865 129.621 36.0469C129.621 34.8073 129.855 33.7214 130.324 32.7891C130.798 31.8568 131.465 31.1328 132.324 30.6172C133.184 30.1016 134.199 29.8438 135.371 29.8438C136.543 29.8438 137.559 30.1016 138.418 30.6172C139.277 31.1328 139.941 31.8568 140.41 32.7891C140.884 33.7214 141.121 34.8073 141.121 36.0469C141.121 37.2865 140.884 38.3698 140.41 39.2969C139.941 40.224 139.277 40.9453 138.418 41.4609C137.559 41.9766 136.543 42.2344 135.371 42.2344ZM135.387 39.9687C136.022 39.9687 136.553 39.7943 136.98 39.4453C137.408 39.0911 137.725 38.6172 137.934 38.0234C138.147 37.4297 138.254 36.7682 138.254 36.0391C138.254 35.3047 138.147 34.6406 137.934 34.0469C137.725 33.4479 137.408 32.9714 136.98 32.6172C136.553 32.263 136.022 32.0859 135.387 32.0859C134.736 32.0859 134.194 32.263 133.762 32.6172C133.335 32.9714 133.014 33.4479 132.801 34.0469C132.592 34.6406 132.488 35.3047 132.488 36.0391C132.488 36.7682 132.592 37.4297 132.801 38.0234C133.014 38.6172 133.335 39.0911 133.762 39.4453C134.194 39.7943 134.736 39.9687 135.387 39.9687ZM143.521 46.5V30H146.303V31.9844H146.467C146.613 31.6927 146.818 31.3828 147.084 31.0547C147.35 30.7214 147.709 30.4375 148.162 30.2031C148.615 29.9635 149.193 29.8438 149.896 29.8438C150.824 29.8438 151.66 30.0807 152.404 30.5547C153.154 31.0234 153.748 31.7187 154.186 32.6406C154.628 33.5573 154.85 34.6823 154.85 36.0156C154.85 37.3333 154.633 38.4531 154.201 39.375C153.769 40.2969 153.18 41 152.436 41.4844C151.691 41.9688 150.847 42.2109 149.904 42.2109C149.217 42.2109 148.646 42.0964 148.193 41.8672C147.74 41.638 147.376 41.362 147.1 41.0391C146.829 40.7109 146.618 40.401 146.467 40.1094H146.35V46.5H143.521ZM146.295 36C146.295 36.776 146.404 37.4557 146.623 38.0391C146.847 38.6224 147.167 39.0781 147.584 39.4062C148.006 39.7292 148.516 39.8906 149.115 39.8906C149.74 39.8906 150.264 39.724 150.686 39.3906C151.107 39.0521 151.425 38.5911 151.639 38.0078C151.857 37.4193 151.967 36.75 151.967 36C151.967 35.2552 151.86 34.5937 151.646 34.0156C151.433 33.4375 151.115 32.9844 150.693 32.6562C150.271 32.3281 149.745 32.1641 149.115 32.1641C148.511 32.1641 147.998 32.3229 147.576 32.6406C147.154 32.9583 146.834 33.4036 146.615 33.9766C146.402 34.5495 146.295 35.224 146.295 36ZM164.178 38.7109L167.74 30H170.021L165.17 42H163.193L158.451 30H160.709L164.178 38.7109ZM159.998 30V42H157.271V30H159.998ZM168.475 42V30H171.178V42H168.475ZM177.482 42.2422C176.722 42.2422 176.037 42.1068 175.428 41.8359C174.824 41.5599 174.344 41.1536 173.99 40.6172C173.641 40.0807 173.467 39.4193 173.467 38.6328C173.467 37.9557 173.592 37.3958 173.842 36.9531C174.092 36.5104 174.433 36.1562 174.865 35.8906C175.298 35.625 175.785 35.4245 176.326 35.2891C176.873 35.1484 177.438 35.0469 178.021 34.9844C178.725 34.9115 179.295 34.8464 179.732 34.7891C180.17 34.7266 180.488 34.6328 180.686 34.5078C180.889 34.3776 180.99 34.1771 180.99 33.9062V33.8594C180.99 33.2708 180.816 32.8151 180.467 32.4922C180.118 32.1693 179.615 32.0078 178.959 32.0078C178.266 32.0078 177.717 32.1589 177.311 32.4609C176.91 32.763 176.639 33.1198 176.498 33.5312L173.857 33.1562C174.066 32.4271 174.41 31.8177 174.889 31.3281C175.368 30.8333 175.954 30.4635 176.646 30.2187C177.339 29.9688 178.105 29.8438 178.943 29.8438C179.521 29.8438 180.097 29.9115 180.67 30.0469C181.243 30.1823 181.766 30.4062 182.24 30.7187C182.714 31.026 183.094 31.4453 183.381 31.9766C183.673 32.5078 183.818 33.1719 183.818 33.9687V42H181.1V40.3516H181.006C180.834 40.6849 180.592 40.9974 180.279 41.2891C179.972 41.5755 179.584 41.8073 179.115 41.9844C178.652 42.1563 178.107 42.2422 177.482 42.2422ZM178.217 40.1641C178.785 40.1641 179.277 40.0521 179.693 39.8281C180.11 39.599 180.43 39.2969 180.654 38.9219C180.883 38.5469 180.998 38.138 180.998 37.6953V36.2812C180.91 36.3542 180.758 36.4219 180.545 36.4844C180.337 36.5469 180.102 36.6016 179.842 36.6484C179.581 36.6953 179.324 36.737 179.068 36.7734C178.813 36.8099 178.592 36.8411 178.404 36.8672C177.982 36.9245 177.605 37.0182 177.271 37.1484C176.938 37.2786 176.675 37.4609 176.482 37.6953C176.29 37.9245 176.193 38.2214 176.193 38.5859C176.193 39.1068 176.383 39.5 176.764 39.7656C177.144 40.0312 177.628 40.1641 178.217 40.1641ZM185.318 32.3203V30H195.818V32.3203H191.936V42H189.201V32.3203H185.318ZM202.811 42.2344C201.639 42.2344 200.623 41.9766 199.764 41.4609C198.904 40.9453 198.238 40.224 197.764 39.2969C197.295 38.3698 197.061 37.2865 197.061 36.0469C197.061 34.8073 197.295 33.7214 197.764 32.7891C198.238 31.8568 198.904 31.1328 199.764 30.6172C200.623 30.1016 201.639 29.8438 202.811 29.8438C203.982 29.8438 204.998 30.1016 205.857 30.6172C206.717 31.1328 207.381 31.8568 207.85 32.7891C208.324 33.7214 208.561 34.8073 208.561 36.0469C208.561 37.2865 208.324 38.3698 207.85 39.2969C207.381 40.224 206.717 40.9453 205.857 41.4609C204.998 41.9766 203.982 42.2344 202.811 42.2344ZM202.826 39.9687C203.462 39.9687 203.993 39.7943 204.42 39.4453C204.847 39.0911 205.165 38.6172 205.373 38.0234C205.587 37.4297 205.693 36.7682 205.693 36.0391C205.693 35.3047 205.587 34.6406 205.373 34.0469C205.165 33.4479 204.847 32.9714 204.42 32.6172C203.993 32.263 203.462 32.0859 202.826 32.0859C202.175 32.0859 201.633 32.263 201.201 32.6172C200.774 32.9714 200.454 33.4479 200.24 34.0469C200.032 34.6406 199.928 35.3047 199.928 36.0391C199.928 36.7682 200.032 37.4297 200.24 38.0234C200.454 38.6172 200.774 39.0911 201.201 39.4453C201.633 39.7943 202.175 39.9687 202.826 39.9687ZM210.961 46.5V30H213.742V31.9844H213.906C214.052 31.6927 214.258 31.3828 214.523 31.0547C214.789 30.7214 215.148 30.4375 215.602 30.2031C216.055 29.9635 216.633 29.8438 217.336 29.8438C218.263 29.8438 219.099 30.0807 219.844 30.5547C220.594 31.0234 221.188 31.7187 221.625 32.6406C222.068 33.5573 222.289 34.6823 222.289 36.0156C222.289 37.3333 222.073 38.4531 221.641 39.375C221.208 40.2969 220.62 41 219.875 41.4844C219.13 41.9688 218.286 42.2109 217.344 42.2109C216.656 42.2109 216.086 42.0964 215.633 41.8672C215.18 41.638 214.815 41.362 214.539 41.0391C214.268 40.7109 214.057 40.401 213.906 40.1094H213.789V46.5H210.961ZM213.734 36C213.734 36.776 213.844 37.4557 214.062 38.0391C214.286 38.6224 214.607 39.0781 215.023 39.4062C215.445 39.7292 215.956 39.8906 216.555 39.8906C217.18 39.8906 217.703 39.724 218.125 39.3906C218.547 39.0521 218.865 38.5911 219.078 38.0078C219.297 37.4193 219.406 36.75 219.406 36C219.406 35.2552 219.299 34.5937 219.086 34.0156C218.872 33.4375 218.555 32.9844 218.133 32.6562C217.711 32.3281 217.185 32.1641 216.555 32.1641C215.951 32.1641 215.438 32.3229 215.016 32.6406C214.594 32.9583 214.273 33.4036 214.055 33.9766C213.841 34.5495 213.734 35.224 213.734 36Z" fill="#313F52"/>
</svg>
