<svg width="270" height="68" viewBox="0 0 270 68" fill="none" xmlns="http://www.w3.org/2000/svg">
<rect width="270" height="68" rx="8" fill="url(#paint0_linear_344_123)"/>
<g filter="url(#filter0_d_344_123)">
<path d="M75.3809 42.2187V39.7812H76.2949C76.7064 39.7812 77.0449 39.7214 77.3105 39.6016C77.5762 39.4818 77.7897 39.3099 77.9512 39.0859C78.1178 38.862 78.2559 38.6016 78.3652 38.3047L78.5762 37.7656L72.8574 26H75.8887L79.873 34.5625L83.3184 26H86.3027L80.7871 39.0469C80.5319 39.6094 80.2376 40.1328 79.9043 40.6172C79.571 41.0964 79.1361 41.4844 78.5996 41.7813C78.0684 42.0729 77.3757 42.2187 76.5215 42.2187H75.3809ZM91.2422 42.2344C90.0443 42.2344 89.0156 41.9714 88.1563 41.4453C87.3021 40.9193 86.6432 40.1927 86.1797 39.2656C85.7214 38.3333 85.4922 37.2604 85.4922 36.0469C85.4922 34.8281 85.7266 33.7526 86.1953 32.8203C86.6641 31.8828 87.3255 31.1536 88.1797 30.6328C89.0391 30.1068 90.0547 29.8438 91.2266 29.8438C92.2005 29.8438 93.0625 30.0234 93.8125 30.3828C94.5677 30.737 95.1693 31.2396 95.6172 31.8906C96.0651 32.5365 96.3203 33.2917 96.3828 34.1562H93.6797C93.5703 33.5781 93.3099 33.0964 92.8984 32.7109C92.4922 32.3203 91.9479 32.125 91.2656 32.125C90.6875 32.125 90.1797 32.2812 89.7422 32.5937C89.3047 32.901 88.9635 33.3437 88.7188 33.9219C88.4792 34.5 88.3594 35.1927 88.3594 36C88.3594 36.8177 88.4792 37.5208 88.7188 38.1094C88.9583 38.6927 89.2943 39.1432 89.7266 39.4609C90.1641 39.7734 90.6771 39.9297 91.2656 39.9297C91.6823 39.9297 92.0547 39.8516 92.3828 39.6953C92.7161 39.5339 92.9948 39.3021 93.2188 39C93.4427 38.6979 93.5964 38.3307 93.6797 37.8984H96.3828C96.3151 38.7474 96.0651 39.5 95.6328 40.1562C95.2005 40.8073 94.612 41.3177 93.8672 41.6875C93.1224 42.0521 92.2474 42.2344 91.2422 42.2344ZM97.834 32.3203V30H108.334V32.3203H104.451V42H101.717V32.3203H97.834ZM113.545 42.2422C112.785 42.2422 112.1 42.1068 111.49 41.8359C110.886 41.5599 110.407 41.1536 110.053 40.6172C109.704 40.0807 109.529 39.4193 109.529 38.6328C109.529 37.9557 109.654 37.3958 109.904 36.9531C110.154 36.5104 110.495 36.1562 110.928 35.8906C111.36 35.625 111.847 35.4245 112.389 35.2891C112.936 35.1484 113.501 35.0469 114.084 34.9844C114.787 34.9115 115.357 34.8464 115.795 34.7891C116.232 34.7266 116.55 34.6328 116.748 34.5078C116.951 34.3776 117.053 34.1771 117.053 33.9062V33.8594C117.053 33.2708 116.878 32.8151 116.529 32.4922C116.18 32.1693 115.678 32.0078 115.021 32.0078C114.329 32.0078 113.779 32.1589 113.373 32.4609C112.972 32.763 112.701 33.1198 112.561 33.5312L109.92 33.1562C110.128 32.4271 110.472 31.8177 110.951 31.3281C111.43 30.8333 112.016 30.4635 112.709 30.2187C113.402 29.9688 114.167 29.8438 115.006 29.8438C115.584 29.8438 116.16 29.9115 116.732 30.0469C117.305 30.1823 117.829 30.4062 118.303 30.7187C118.777 31.026 119.157 31.4453 119.443 31.9766C119.735 32.5078 119.881 33.1719 119.881 33.9687V42H117.162V40.3516H117.068C116.896 40.6849 116.654 40.9974 116.342 41.2891C116.035 41.5755 115.646 41.8073 115.178 41.9844C114.714 42.1563 114.17 42.2422 113.545 42.2422ZM114.279 40.1641C114.847 40.1641 115.339 40.0521 115.756 39.8281C116.173 39.599 116.493 39.2969 116.717 38.9219C116.946 38.5469 117.061 38.138 117.061 37.6953V36.2812C116.972 36.3542 116.821 36.4219 116.607 36.4844C116.399 36.5469 116.165 36.6016 115.904 36.6484C115.644 36.6953 115.386 36.737 115.131 36.7734C114.876 36.8099 114.654 36.8411 114.467 36.8672C114.045 36.9245 113.667 37.0182 113.334 37.1484C113.001 37.2786 112.738 37.4609 112.545 37.6953C112.352 37.9245 112.256 38.2214 112.256 38.5859C112.256 39.1068 112.446 39.5 112.826 39.7656C113.206 40.0312 113.691 40.1641 114.279 40.1641ZM130.967 34.8281V37.1484H124.576V34.8281H130.967ZM125.451 30V42H122.725V30H125.451ZM132.818 30V42H130.1V30H132.818ZM140.914 42.2344C139.742 42.2344 138.727 41.9766 137.867 41.4609C137.008 40.9453 136.341 40.224 135.867 39.2969C135.398 38.3698 135.164 37.2865 135.164 36.0469C135.164 34.8073 135.398 33.7214 135.867 32.7891C136.341 31.8568 137.008 31.1328 137.867 30.6172C138.727 30.1016 139.742 29.8438 140.914 29.8438C142.086 29.8438 143.102 30.1016 143.961 30.6172C144.82 31.1328 145.484 31.8568 145.953 32.7891C146.427 33.7214 146.664 34.8073 146.664 36.0469C146.664 37.2865 146.427 38.3698 145.953 39.2969C145.484 40.224 144.82 40.9453 143.961 41.4609C143.102 41.9766 142.086 42.2344 140.914 42.2344ZM140.93 39.9687C141.565 39.9687 142.096 39.7943 142.523 39.4453C142.951 39.0911 143.268 38.6172 143.477 38.0234C143.69 37.4297 143.797 36.7682 143.797 36.0391C143.797 35.3047 143.69 34.6406 143.477 34.0469C143.268 33.4479 142.951 32.9714 142.523 32.6172C142.096 32.263 141.565 32.0859 140.93 32.0859C140.279 32.0859 139.737 32.263 139.305 32.6172C138.878 32.9714 138.557 33.4479 138.344 34.0469C138.135 34.6406 138.031 35.3047 138.031 36.0391C138.031 36.7682 138.135 37.4297 138.344 38.0234C138.557 38.6172 138.878 39.0911 139.305 39.4453C139.737 39.7943 140.279 39.9687 140.93 39.9687ZM149.064 42V30H154.104C155.525 30 156.648 30.2839 157.471 30.8516C158.299 31.4193 158.713 32.2109 158.713 33.2266C158.713 33.8984 158.479 34.4479 158.01 34.875C157.546 35.2969 156.913 35.5807 156.111 35.7266C156.742 35.7786 157.294 35.9375 157.768 36.2031C158.247 36.4687 158.622 36.8177 158.893 37.25C159.163 37.6823 159.299 38.1797 159.299 38.7422C159.299 39.4036 159.124 39.9792 158.775 40.4687C158.432 40.9531 157.929 41.3307 157.268 41.6016C156.611 41.8672 155.814 42 154.877 42H149.064ZM151.713 39.7734H154.877C155.398 39.7734 155.807 39.651 156.104 39.4062C156.4 39.1562 156.549 38.8177 156.549 38.3906C156.549 37.8958 156.4 37.5078 156.104 37.2266C155.807 36.9401 155.398 36.7969 154.877 36.7969H151.713V39.7734ZM151.713 34.9687H154.158C154.544 34.9687 154.874 34.9141 155.15 34.8047C155.426 34.6901 155.637 34.5313 155.783 34.3281C155.929 34.1198 156.002 33.8724 156.002 33.5859C156.002 33.1745 155.833 32.8516 155.494 32.6172C155.161 32.3828 154.697 32.2656 154.104 32.2656H151.713V34.9687ZM164.359 38.1719L169.164 30H172.07V42H169.336V33.8203L164.547 42H161.633V30H164.359V38.1719ZM173.631 32.3203V30H184.131V32.3203H180.248V42H177.514V32.3203H173.631ZM188.297 33.9062H191.836C193.367 33.9062 194.552 34.2786 195.391 35.0234C196.229 35.7682 196.651 36.7448 196.656 37.9531C196.651 38.7396 196.458 39.4375 196.078 40.0469C195.703 40.6562 195.156 41.1354 194.438 41.4844C193.724 41.8281 192.857 42 191.836 42H186.383V30H189.109V39.6797H191.836C192.451 39.6797 192.956 39.5234 193.352 39.2109C193.747 38.8932 193.945 38.487 193.945 37.9922C193.945 37.4714 193.747 37.0469 193.352 36.7187C192.956 36.3906 192.451 36.2266 191.836 36.2266H188.297V33.9062Z" fill="white"/>
</g>
<defs>
<filter id="filter0_d_344_123" x="69.8574" y="23" width="129.799" height="22.2422" filterUnits="userSpaceOnUse" color-interpolation-filters="sRGB">
<feFlood flood-opacity="0" result="BackgroundImageFix"/>
<feColorMatrix in="SourceAlpha" type="matrix" values="0 0 0 0 0 0 0 0 0 0 0 0 0 0 0 0 0 0 127 0" result="hardAlpha"/>
<feOffset/>
<feGaussianBlur stdDeviation="1.5"/>
<feComposite in2="hardAlpha" operator="out"/>
<feColorMatrix type="matrix" values="0 0 0 0 0 0 0 0 0 0 0 0 0 0 0 0 0 0 0.3 0"/>
<feBlend mode="normal" in2="BackgroundImageFix" result="effect1_dropShadow_344_123"/>
<feBlend mode="normal" in="SourceGraphic" in2="effect1_dropShadow_344_123" result="shape"/>
</filter>
<linearGradient id="paint0_linear_344_123" x1="0.912277" y1="-0.193456" x2="20.6817" y2="112.044" gradientUnits="userSpaceOnUse">
<stop stop-color="#23A3F9"/>
<stop offset="1" stop-color="#0744E2"/>
</linearGradient>
</defs>
</svg>
