<svg width="409" height="64" viewBox="0 0 409 64" fill="none" xmlns="http://www.w3.org/2000/svg">
<path d="M0.793501 22V0.181818H8.78356C10.3319 0.181818 11.6138 0.437499 12.6294 0.948863C13.6451 1.45312 14.405 2.13849 14.9093 3.00497C15.4135 3.86435 15.6657 4.83381 15.6657 5.91335C15.6657 6.82244 15.4988 7.58949 15.165 8.21449C14.8311 8.83239 14.3837 9.32954 13.8226 9.70597C13.2686 10.0753 12.6578 10.3452 11.9902 10.5156V10.7287C12.7147 10.7642 13.4213 10.9986 14.1103 11.4318C14.8063 11.858 15.3816 12.4652 15.8361 13.2536C16.2907 14.0419 16.5179 15.0007 16.5179 16.13C16.5179 17.245 16.2551 18.2464 15.7296 19.1342C15.2111 20.0149 14.4086 20.7145 13.3219 21.233C12.2353 21.7443 10.8468 22 9.15643 22H0.793501ZM4.0854 19.1768H8.83683C10.4135 19.1768 11.5428 18.8714 12.2246 18.2607C12.9064 17.6499 13.2473 16.8864 13.2473 15.9702C13.2473 15.2812 13.0733 14.6491 12.7253 14.0739C12.3773 13.4986 11.8801 13.0405 11.2338 12.6996C10.5946 12.3587 9.83469 12.1882 8.95401 12.1882H4.0854V19.1768ZM4.0854 9.62074H8.49592C9.23455 9.62074 9.89862 9.47869 10.4881 9.1946C11.0847 8.91051 11.557 8.51278 11.905 8.00142C12.2601 7.48295 12.4377 6.87216 12.4377 6.16903C12.4377 5.26705 12.1216 4.51065 11.4895 3.89986C10.8574 3.28906 9.88796 2.98366 8.58114 2.98366H4.0854V9.62074ZM20.1667 22V5.63636H26.9529C28.7995 5.63636 30.2626 6.03054 31.3422 6.81889C32.4217 7.60014 32.9615 8.66193 32.9615 10.0043C32.9615 10.9631 32.6561 11.723 32.0453 12.2841C31.4345 12.8452 30.6248 13.2216 29.6163 13.4134C30.3478 13.4986 31.019 13.7187 31.6298 14.0739C32.2406 14.4219 32.7306 14.8906 33.1 15.4801C33.4764 16.0696 33.6646 16.7727 33.6646 17.5895C33.6646 18.456 33.4409 19.223 32.9934 19.8906C32.546 20.5511 31.8961 21.0696 31.0439 21.446C30.1987 21.8153 29.1795 22 27.9863 22H20.1667ZM23.1603 19.3366H27.9863C28.7747 19.3366 29.3926 19.1484 29.84 18.772C30.2875 18.3956 30.5112 17.8842 30.5112 17.2379C30.5112 16.478 30.2875 15.8814 29.84 15.4482C29.3926 15.0078 28.7747 14.7876 27.9863 14.7876H23.1603V19.3366ZM23.1603 12.4545H26.9849C27.5815 12.4545 28.0929 12.3693 28.519 12.1989C28.9522 12.0284 29.2825 11.7869 29.5098 11.4744C29.7441 11.1548 29.8613 10.7784 29.8613 10.3452C29.8613 9.71307 29.6021 9.21946 29.0836 8.86435C28.5652 8.50923 27.8549 8.33168 26.9529 8.33168H23.1603V12.4545ZM44.2115 22.3303C42.5993 22.3303 41.2108 21.9858 40.046 21.2969C38.8883 20.6009 37.9934 19.6243 37.3613 18.3672C36.7363 17.103 36.4238 15.6222 36.4238 13.9247C36.4238 12.2486 36.7363 10.7713 37.3613 9.4929C37.9934 8.21449 38.8741 7.21662 40.0034 6.49929C41.1397 5.78196 42.4679 5.4233 43.9877 5.4233C44.911 5.4233 45.8059 5.57599 46.6724 5.88139C47.5389 6.18679 48.3166 6.66619 49.0055 7.3196C49.6944 7.97301 50.2377 8.82173 50.6355 9.86577C51.0332 10.9027 51.2321 12.1634 51.2321 13.6477V14.777H38.2243V12.3906H48.1106C48.1106 11.5526 47.9402 10.8104 47.5993 10.1641C47.2583 9.51065 46.7789 8.99574 46.161 8.61932C45.5502 8.2429 44.8329 8.05469 44.0091 8.05469C43.1142 8.05469 42.3329 8.27486 41.6653 8.7152C41.0048 9.14844 40.4934 9.71662 40.1312 10.4197C39.7761 11.1158 39.5985 11.8722 39.5985 12.6889V14.5533C39.5985 15.647 39.7903 16.5774 40.1738 17.3445C40.5645 18.1115 41.1078 18.6974 41.8038 19.1023C42.4998 19.5 43.313 19.6989 44.2434 19.6989C44.8471 19.6989 45.3976 19.6136 45.8947 19.4432C46.3919 19.2656 46.8216 19.0028 47.1838 18.6548C47.546 18.3068 47.823 17.8771 48.0147 17.3658L51.0297 17.9091C50.7882 18.7969 50.3549 19.5746 49.7299 20.2422C49.112 20.9027 48.3343 21.4176 47.3968 21.7869C46.4664 22.1491 45.4047 22.3303 44.2115 22.3303ZM53.1683 26.7195V19.2408H54.5C54.8409 18.9283 55.1286 18.5554 55.3629 18.1222C55.6044 17.6889 55.8068 17.174 55.9702 16.5774C56.1406 15.9808 56.2827 15.2848 56.3963 14.4893C56.5099 13.6868 56.6094 12.7706 56.6946 11.7408L57.206 5.63636H68.3281V19.2408H70.8423V26.7195H67.7315V22H56.3217V26.7195H53.1683ZM57.9091 19.2408H65.2173V8.36364H60.0611L59.7202 11.7408C59.5568 13.4595 59.3509 14.951 59.1023 16.2152C58.8537 17.4723 58.456 18.4808 57.9091 19.2408ZM77.0772 17.5362L84.2896 5.63636H87.72V22H84.5985V10.0895L77.4181 22H73.9558V5.63636H77.0772V17.5362ZM89.9732 8.38494V5.63636H103.78V8.38494H98.4426V22H95.3319V8.38494H89.9732ZM113.44 22.3303C111.828 22.3303 110.439 21.9858 109.275 21.2969C108.117 20.6009 107.222 19.6243 106.59 18.3672C105.965 17.103 105.652 15.6222 105.652 13.9247C105.652 12.2486 105.965 10.7713 106.59 9.4929C107.222 8.21449 108.103 7.21662 109.232 6.49929C110.368 5.78196 111.696 5.4233 113.216 5.4233C114.14 5.4233 115.034 5.57599 115.901 5.88139C116.767 6.18679 117.545 6.66619 118.234 7.3196C118.923 7.97301 119.466 8.82173 119.864 9.86577C120.262 10.9027 120.461 12.1634 120.461 13.6477V14.777H107.453V12.3906H117.339C117.339 11.5526 117.169 10.8104 116.828 10.1641C116.487 9.51065 116.007 8.99574 115.39 8.61932C114.779 8.2429 114.061 8.05469 113.238 8.05469C112.343 8.05469 111.561 8.27486 110.894 8.7152C110.233 9.14844 109.722 9.71662 109.36 10.4197C109.005 11.1158 108.827 11.8722 108.827 12.6889V14.5533C108.827 15.647 109.019 16.5774 109.402 17.3445C109.793 18.1115 110.336 18.6974 111.032 19.1023C111.728 19.5 112.542 19.6989 113.472 19.6989C114.076 19.6989 114.626 19.6136 115.123 19.4432C115.62 19.2656 116.05 19.0028 116.412 18.6548C116.775 18.3068 117.051 17.8771 117.243 17.3658L120.258 17.9091C120.017 18.7969 119.583 19.5746 118.958 20.2422C118.341 20.9027 117.563 21.4176 116.625 21.7869C115.695 22.1491 114.633 22.3303 113.44 22.3303ZM136.696 22.3622C135.659 22.3622 134.722 22.1705 133.884 21.7869C133.046 21.3963 132.382 20.8317 131.892 20.093C131.409 19.3544 131.167 18.4489 131.167 17.3764C131.167 16.4531 131.345 15.6932 131.7 15.0966C132.055 14.5 132.534 14.0277 133.138 13.6797C133.742 13.3317 134.417 13.0689 135.162 12.8913C135.908 12.7138 136.668 12.5788 137.442 12.4865C138.422 12.3729 139.218 12.2805 139.828 12.2095C140.439 12.1314 140.883 12.0071 141.16 11.8366C141.437 11.6662 141.576 11.3892 141.576 11.0057V10.9311C141.576 10.0007 141.313 9.27983 140.787 8.76847C140.269 8.2571 139.495 8.00142 138.465 8.00142C137.392 8.00142 136.547 8.23935 135.929 8.7152C135.319 9.18395 134.896 9.70597 134.662 10.2812L131.668 9.59943C132.023 8.60511 132.542 7.80256 133.223 7.19176C133.912 6.57386 134.704 6.12642 135.599 5.84943C136.494 5.56534 137.435 5.4233 138.422 5.4233C139.076 5.4233 139.768 5.50142 140.5 5.65767C141.238 5.80682 141.927 6.08381 142.566 6.48864C143.213 6.89347 143.742 7.4723 144.154 8.22514C144.566 8.97088 144.772 9.94034 144.772 11.1335V22H141.661V19.7628H141.533C141.327 20.1747 141.018 20.5795 140.606 20.9773C140.194 21.375 139.665 21.7053 139.019 21.968C138.373 22.2308 137.598 22.3622 136.696 22.3622ZM137.389 19.8054C138.27 19.8054 139.022 19.6314 139.647 19.2834C140.279 18.9354 140.759 18.4808 141.086 17.9197C141.419 17.3516 141.586 16.7443 141.586 16.098V13.9886C141.473 14.1023 141.252 14.2088 140.926 14.3082C140.606 14.4006 140.24 14.4822 139.828 14.5533C139.417 14.6172 139.015 14.6776 138.625 14.7344C138.234 14.7841 137.907 14.8267 137.645 14.8622C137.027 14.9403 136.462 15.0717 135.951 15.2564C135.446 15.4411 135.042 15.7074 134.736 16.0554C134.438 16.3963 134.289 16.8509 134.289 17.419C134.289 18.2074 134.58 18.804 135.162 19.2088C135.745 19.6065 136.487 19.8054 137.389 19.8054ZM147.416 26.7195V19.2408H148.748C149.089 18.9283 149.377 18.5554 149.611 18.1222C149.852 17.6889 150.055 17.174 150.218 16.5774C150.389 15.9808 150.531 15.2848 150.644 14.4893C150.758 13.6868 150.857 12.7706 150.943 11.7408L151.454 5.63636H162.576V19.2408H165.09V26.7195H161.98V22H150.57V26.7195H147.416ZM152.157 19.2408H159.465V8.36364H154.309L153.968 11.7408C153.805 13.4595 153.599 14.951 153.35 16.2152C153.102 17.4723 152.704 18.4808 152.157 19.2408ZM168.204 28.1364V5.63636H171.315V8.28906H171.581C171.766 7.94815 172.032 7.55398 172.38 7.10653C172.728 6.65909 173.211 6.26847 173.829 5.93466C174.447 5.59375 175.263 5.4233 176.279 5.4233C177.6 5.4233 178.779 5.7571 179.816 6.42472C180.853 7.09233 181.666 8.05469 182.256 9.31179C182.852 10.5689 183.151 12.0817 183.151 13.8501C183.151 15.6186 182.856 17.1349 182.266 18.3991C181.677 19.6562 180.867 20.6257 179.837 21.3075C178.808 21.9822 177.632 22.3196 176.311 22.3196C175.317 22.3196 174.504 22.1527 173.871 21.8189C173.246 21.4851 172.756 21.0945 172.401 20.647C172.046 20.1996 171.773 19.8018 171.581 19.4538H171.389V28.1364H168.204ZM171.325 13.8182C171.325 14.9687 171.492 15.9773 171.826 16.8438C172.16 17.7102 172.643 18.3885 173.275 18.8786C173.907 19.3615 174.681 19.603 175.597 19.603C176.549 19.603 177.344 19.3509 177.984 18.8466C178.623 18.3352 179.106 17.6428 179.433 16.7692C179.766 15.8956 179.933 14.9119 179.933 13.8182C179.933 12.7386 179.77 11.7692 179.443 10.9098C179.124 10.0504 178.641 9.37216 177.994 8.875C177.355 8.37784 176.556 8.12926 175.597 8.12926C174.674 8.12926 173.893 8.36719 173.254 8.84304C172.621 9.31889 172.142 9.98295 171.815 10.8352C171.489 11.6875 171.325 12.6818 171.325 13.8182ZM193.772 22.3303C192.16 22.3303 190.771 21.9858 189.607 21.2969C188.449 20.6009 187.554 19.6243 186.922 18.3672C186.297 17.103 185.984 15.6222 185.984 13.9247C185.984 12.2486 186.297 10.7713 186.922 9.4929C187.554 8.21449 188.435 7.21662 189.564 6.49929C190.7 5.78196 192.028 5.4233 193.548 5.4233C194.472 5.4233 195.366 5.57599 196.233 5.88139C197.099 6.18679 197.877 6.66619 198.566 7.3196C199.255 7.97301 199.798 8.82173 200.196 9.86577C200.594 10.9027 200.793 12.1634 200.793 13.6477V14.777H187.785V12.3906H197.671C197.671 11.5526 197.501 10.8104 197.16 10.1641C196.819 9.51065 196.339 8.99574 195.722 8.61932C195.111 8.2429 194.393 8.05469 193.57 8.05469C192.675 8.05469 191.893 8.27486 191.226 8.7152C190.565 9.14844 190.054 9.71662 189.692 10.4197C189.337 11.1158 189.159 11.8722 189.159 12.6889V14.5533C189.159 15.647 189.351 16.5774 189.734 17.3445C190.125 18.1115 190.668 18.6974 191.364 19.1023C192.06 19.5 192.874 19.6989 193.804 19.6989C194.408 19.6989 194.958 19.6136 195.455 19.4432C195.952 19.2656 196.382 19.0028 196.744 18.6548C197.107 18.3068 197.384 17.8771 197.575 17.3658L200.59 17.9091C200.349 18.7969 199.915 19.5746 199.29 20.2422C198.673 20.9027 197.895 21.4176 196.957 21.7869C196.027 22.1491 194.965 22.3303 193.772 22.3303ZM211.22 22.3303C209.636 22.3303 208.272 21.9716 207.129 21.2543C205.992 20.5298 205.119 19.532 204.508 18.2607C203.897 16.9893 203.592 15.5334 203.592 13.8928C203.592 12.2308 203.904 10.7642 204.529 9.4929C205.154 8.21449 206.035 7.21662 207.171 6.49929C208.308 5.78196 209.646 5.4233 211.188 5.4233C212.431 5.4233 213.539 5.65412 214.512 6.11577C215.485 6.57031 216.269 7.20952 216.866 8.03338C217.47 8.85724 217.828 9.8196 217.942 10.9205H214.842C214.671 10.1534 214.281 9.4929 213.67 8.93892C213.066 8.38494 212.257 8.10795 211.241 8.10795C210.353 8.10795 209.575 8.34233 208.908 8.81108C208.247 9.27273 207.732 9.93324 207.363 10.7926C206.994 11.6449 206.809 12.6534 206.809 13.8182C206.809 15.0114 206.99 16.0412 207.352 16.9077C207.715 17.7741 208.226 18.4453 208.887 18.9212C209.554 19.397 210.339 19.6349 211.241 19.6349C211.845 19.6349 212.392 19.5249 212.882 19.3047C213.379 19.0774 213.794 18.7543 214.128 18.3352C214.469 17.9162 214.707 17.4119 214.842 16.8224H217.942C217.828 17.8807 217.484 18.8253 216.909 19.6562C216.333 20.4872 215.563 21.1406 214.597 21.6165C213.638 22.0923 212.512 22.3303 211.22 22.3303ZM229.288 22V5.63636H232.473V12.4972H234.007L239.409 5.63636H243.35L237.012 13.5945L243.425 22H239.472L234.54 15.4588H232.473V22H229.288ZM252.118 22.3303C250.584 22.3303 249.245 21.9787 248.102 21.2756C246.958 20.5724 246.07 19.5888 245.438 18.3246C244.806 17.0604 244.49 15.5831 244.49 13.8928C244.49 12.1953 244.806 10.7109 245.438 9.43963C246.07 8.16832 246.958 7.18111 248.102 6.47798C249.245 5.77486 250.584 5.4233 252.118 5.4233C253.652 5.4233 254.991 5.77486 256.134 6.47798C257.278 7.18111 258.166 8.16832 258.798 9.43963C259.43 10.7109 259.746 12.1953 259.746 13.8928C259.746 15.5831 259.43 17.0604 258.798 18.3246C258.166 19.5888 257.278 20.5724 256.134 21.2756C254.991 21.9787 253.652 22.3303 252.118 22.3303ZM252.129 19.6562C253.123 19.6562 253.947 19.3935 254.6 18.8679C255.254 18.3423 255.737 17.6428 256.049 16.7692C256.369 15.8956 256.529 14.9332 256.529 13.8821C256.529 12.8381 256.369 11.8793 256.049 11.0057C255.737 10.125 255.254 9.41832 254.6 8.88565C253.947 8.35298 253.123 8.08665 252.129 8.08665C251.127 8.08665 250.296 8.35298 249.636 8.88565C248.982 9.41832 248.496 10.125 248.176 11.0057C247.864 11.8793 247.708 12.8381 247.708 13.8821C247.708 14.9332 247.864 15.8956 248.176 16.7692C248.496 17.6428 248.982 18.3423 249.636 18.8679C250.296 19.3935 251.127 19.6562 252.129 19.6562ZM272.485 18.0582L277.769 5.63636H280.517L273.667 22H271.302L264.591 5.63636H267.307L272.485 18.0582ZM266.423 5.63636V22H263.301V5.63636H266.423ZM278.632 22V5.63636H281.732V22H278.632ZM285.977 22V5.63636H299.326V22H296.205V8.38494H289.077V22H285.977ZM305.982 11.2614H310.733C312.736 11.2614 314.277 11.7585 315.357 12.7528C316.436 13.7472 316.976 15.0291 316.976 16.5987C316.976 17.6214 316.735 18.5412 316.252 19.358C315.769 20.1747 315.062 20.821 314.132 21.2969C313.201 21.7656 312.068 22 310.733 22H303.585V5.63636H306.706V19.2514H310.733C311.649 19.2514 312.402 19.0135 312.992 18.5376C313.581 18.0547 313.876 17.4403 313.876 16.6946C313.876 15.9062 313.581 15.2635 312.992 14.7663C312.402 14.2621 311.649 14.0099 310.733 14.0099H305.982V11.2614ZM328.783 12.5611V15.331H320.058V12.5611H328.783ZM322.646 5.63636V22H319.461V5.63636H322.646ZM333.768 22.3303C332.249 22.3303 330.92 21.9751 329.784 21.2649C328.648 20.5547 327.767 19.5675 327.142 18.3033C326.517 17.032 326.205 15.5582 326.205 13.8821C326.205 12.1918 326.517 10.7145 327.142 9.45028C327.767 8.17898 328.648 7.19176 329.784 6.48864C330.92 5.77841 332.249 5.4233 333.768 5.4233C335.295 5.4233 336.624 5.77841 337.753 6.48864C338.889 7.19176 339.77 8.17898 340.395 9.45028C341.027 10.7145 341.343 12.1918 341.343 13.8821C341.343 15.5582 341.027 17.032 340.395 18.3033C339.77 19.5675 338.889 20.5547 337.753 21.2649C336.624 21.9751 335.295 22.3303 333.768 22.3303ZM333.768 19.603C334.798 19.603 335.64 19.3437 336.293 18.8253C336.954 18.2997 337.44 17.6037 337.753 16.7372C338.065 15.8707 338.222 14.919 338.222 13.8821C338.222 12.8381 338.065 11.8828 337.753 11.0163C337.44 10.1428 336.954 9.44318 336.293 8.91761C335.64 8.39205 334.798 8.12926 333.768 8.12926C332.746 8.12926 331.904 8.39205 331.244 8.91761C330.583 9.44318 330.097 10.1428 329.784 11.0163C329.472 11.8828 329.315 12.8381 329.315 13.8821C329.315 14.919 329.472 15.8707 329.784 16.7372C330.097 17.6037 330.583 18.2997 331.244 18.8253C331.904 19.3437 332.746 19.603 333.768 19.603ZM343.127 8.38494V5.63636H356.934V8.38494H351.597V22H348.486V8.38494H343.127ZM366.594 22.3303C364.982 22.3303 363.594 21.9858 362.429 21.2969C361.271 20.6009 360.376 19.6243 359.744 18.3672C359.119 17.103 358.807 15.6222 358.807 13.9247C358.807 12.2486 359.119 10.7713 359.744 9.4929C360.376 8.21449 361.257 7.21662 362.386 6.49929C363.523 5.78196 364.851 5.4233 366.371 5.4233C367.294 5.4233 368.189 5.57599 369.055 5.88139C369.922 6.18679 370.699 6.66619 371.388 7.3196C372.077 7.97301 372.621 8.82173 373.018 9.86577C373.416 10.9027 373.615 12.1634 373.615 13.6477V14.777H360.607V12.3906H370.493C370.493 11.5526 370.323 10.8104 369.982 10.1641C369.641 9.51065 369.162 8.99574 368.544 8.61932C367.933 8.2429 367.216 8.05469 366.392 8.05469C365.497 8.05469 364.716 8.27486 364.048 8.7152C363.388 9.14844 362.876 9.71662 362.514 10.4197C362.159 11.1158 361.981 11.8722 361.981 12.6889V14.5533C361.981 15.647 362.173 16.5774 362.557 17.3445C362.947 18.1115 363.491 18.6974 364.187 19.1023C364.883 19.5 365.696 19.6989 366.626 19.6989C367.23 19.6989 367.78 19.6136 368.278 19.4432C368.775 19.2656 369.204 19.0028 369.567 18.6548C369.929 18.3068 370.206 17.8771 370.398 17.3658L373.412 17.9091C373.171 18.7969 372.738 19.5746 372.113 20.2422C371.495 20.9027 370.717 21.4176 369.78 21.7869C368.849 22.1491 367.787 22.3303 366.594 22.3303ZM377.149 28.1364V5.63636H380.26V8.28906H380.526C380.711 7.94815 380.977 7.55398 381.325 7.10653C381.673 6.65909 382.156 6.26847 382.774 5.93466C383.392 5.59375 384.209 5.4233 385.224 5.4233C386.545 5.4233 387.724 5.7571 388.761 6.42472C389.798 7.09233 390.612 8.05469 391.201 9.31179C391.798 10.5689 392.096 12.0817 392.096 13.8501C392.096 15.6186 391.801 17.1349 391.212 18.3991C390.622 19.6562 389.813 20.6257 388.783 21.3075C387.753 21.9822 386.577 22.3196 385.256 22.3196C384.262 22.3196 383.449 22.1527 382.817 21.8189C382.192 21.4851 381.702 21.0945 381.347 20.647C380.991 20.1996 380.718 19.8018 380.526 19.4538H380.335V28.1364H377.149ZM380.271 13.8182C380.271 14.9687 380.438 15.9773 380.771 16.8438C381.105 17.7102 381.588 18.3885 382.22 18.8786C382.852 19.3615 383.626 19.603 384.543 19.603C385.494 19.603 386.29 19.3509 386.929 18.8466C387.568 18.3352 388.051 17.6428 388.378 16.7692C388.712 15.8956 388.879 14.9119 388.879 13.8182C388.879 12.7386 388.715 11.7692 388.388 10.9098C388.069 10.0504 387.586 9.37216 386.94 8.875C386.3 8.37784 385.501 8.12926 384.543 8.12926C383.619 8.12926 382.838 8.36719 382.199 8.84304C381.567 9.31889 381.087 9.98295 380.761 10.8352C380.434 11.6875 380.271 12.6818 380.271 13.8182ZM400.427 22.3622C399.39 22.3622 398.452 22.1705 397.614 21.7869C396.776 21.3963 396.112 20.8317 395.622 20.093C395.139 19.3544 394.898 18.4489 394.898 17.3764C394.898 16.4531 395.075 15.6932 395.43 15.0966C395.786 14.5 396.265 14.0277 396.869 13.6797C397.472 13.3317 398.147 13.0689 398.893 12.8913C399.638 12.7138 400.398 12.5788 401.173 12.4865C402.153 12.3729 402.948 12.2805 403.559 12.2095C404.17 12.1314 404.614 12.0071 404.891 11.8366C405.168 11.6662 405.306 11.3892 405.306 11.0057V10.9311C405.306 10.0007 405.043 9.27983 404.518 8.76847C403.999 8.2571 403.225 8.00142 402.195 8.00142C401.123 8.00142 400.278 8.23935 399.66 8.7152C399.049 9.18395 398.626 9.70597 398.392 10.2812L395.398 9.59943C395.754 8.60511 396.272 7.80256 396.954 7.19176C397.643 6.57386 398.435 6.12642 399.33 5.84943C400.224 5.56534 401.165 5.4233 402.153 5.4233C402.806 5.4233 403.499 5.50142 404.23 5.65767C404.969 5.80682 405.658 6.08381 406.297 6.48864C406.943 6.89347 407.472 7.4723 407.884 8.22514C408.296 8.97088 408.502 9.94034 408.502 11.1335V22H405.391V19.7628H405.263C405.058 20.1747 404.749 20.5795 404.337 20.9773C403.925 21.375 403.396 21.7053 402.749 21.968C402.103 22.2308 401.329 22.3622 400.427 22.3622ZM401.119 19.8054C402 19.8054 402.753 19.6314 403.378 19.2834C404.01 18.9354 404.489 18.4808 404.816 17.9197C405.15 17.3516 405.317 16.7443 405.317 16.098V13.9886C405.203 14.1023 404.983 14.2088 404.656 14.3082C404.337 14.4006 403.971 14.4822 403.559 14.5533C403.147 14.6172 402.746 14.6776 402.355 14.7344C401.964 14.7841 401.638 14.8267 401.375 14.8622C400.757 14.9403 400.192 15.0717 399.681 15.2564C399.177 15.4411 398.772 15.7074 398.467 16.0554C398.168 16.3963 398.019 16.8509 398.019 17.419C398.019 18.2074 398.31 18.804 398.893 19.2088C399.475 19.6065 400.217 19.8054 401.119 19.8054ZM60.0531 61.7195V54.2408H61.3848C61.7257 53.9283 62.0133 53.5554 62.2477 53.1222C62.4892 52.6889 62.6916 52.174 62.8549 51.5774C63.0254 50.9808 63.1674 50.2848 63.2811 49.4893C63.3947 48.6868 63.4941 47.7706 63.5794 46.7408L64.0907 40.6364H75.2129V54.2408H77.7271V61.7195H74.6163V57H63.2065V61.7195H60.0531ZM64.7939 54.2408H72.1021V43.3636H66.9458L66.6049 46.7408C66.4416 48.4595 66.2356 49.951 65.987 51.2152C65.7385 52.4723 65.3407 53.4808 64.7939 54.2408ZM79.5515 57L79.5408 54.2408H80.1268C80.5813 54.2408 80.9613 54.1449 81.2667 53.9531C81.5792 53.7543 81.8349 53.4205 82.0337 52.9517C82.2326 52.483 82.3853 51.8366 82.4918 51.0128C82.5984 50.1818 82.6765 49.1378 82.7262 47.8807L83.0138 40.6364H94.4343V57H91.3129V43.3849H85.9648L85.7092 48.946C85.6452 50.2955 85.5067 51.4744 85.2937 52.483C85.0877 53.4915 84.7859 54.3331 84.3881 55.0078C83.9904 55.6754 83.479 56.1761 82.854 56.5099C82.229 56.8366 81.4691 57 80.5742 57H79.5515ZM108.441 57V43.353H104.52C103.59 43.353 102.866 43.5696 102.347 44.0028C101.829 44.4361 101.569 45.0043 101.569 45.7074C101.569 46.4034 101.807 46.9645 102.283 47.3906C102.766 47.8097 103.441 48.0192 104.307 48.0192H109.368V50.5973H104.307C103.1 50.5973 102.056 50.3984 101.175 50.0007C100.302 49.5959 99.627 49.0241 99.1511 48.2855C98.6824 47.5469 98.448 46.6733 98.448 45.6648C98.448 44.6349 98.6895 43.7472 99.1724 43.0014C99.6625 42.2486 100.362 41.6662 101.271 41.2543C102.187 40.8423 103.27 40.6364 104.52 40.6364H111.434V57H108.441ZM97.7022 57L102.315 48.733H105.575L100.962 57H97.7022ZM123.614 63.1364V40.6364H126.725V43.2891H126.991C127.176 42.9482 127.442 42.554 127.79 42.1065C128.138 41.6591 128.621 41.2685 129.239 40.9347C129.857 40.5938 130.674 40.4233 131.689 40.4233C133.01 40.4233 134.189 40.7571 135.226 41.4247C136.263 42.0923 137.076 43.0547 137.666 44.3118C138.262 45.5689 138.561 47.0817 138.561 48.8501C138.561 50.6186 138.266 52.1349 137.676 53.3991C137.087 54.6562 136.277 55.6257 135.248 56.3075C134.218 56.9822 133.042 57.3196 131.721 57.3196C130.727 57.3196 129.914 57.1527 129.282 56.8189C128.657 56.4851 128.167 56.0945 127.811 55.647C127.456 55.1996 127.183 54.8018 126.991 54.4538H126.799V63.1364H123.614ZM126.735 48.8182C126.735 49.9687 126.902 50.9773 127.236 51.8438C127.57 52.7102 128.053 53.3885 128.685 53.8786C129.317 54.3615 130.091 54.603 131.007 54.603C131.959 54.603 132.755 54.3509 133.394 53.8466C134.033 53.3352 134.516 52.6428 134.843 51.7692C135.176 50.8956 135.343 49.9119 135.343 48.8182C135.343 47.7386 135.18 46.7692 134.853 45.9098C134.534 45.0504 134.051 44.3722 133.404 43.875C132.765 43.3778 131.966 43.1293 131.007 43.1293C130.084 43.1293 129.303 43.3672 128.664 43.843C128.032 44.3189 127.552 44.983 127.225 45.8352C126.899 46.6875 126.735 47.6818 126.735 48.8182ZM146.892 57.3622C145.855 57.3622 144.917 57.1705 144.079 56.7869C143.241 56.3963 142.577 55.8317 142.087 55.093C141.604 54.3544 141.363 53.4489 141.363 52.3764C141.363 51.4531 141.54 50.6932 141.895 50.0966C142.25 49.5 142.73 49.0277 143.333 48.6797C143.937 48.3317 144.612 48.0689 145.358 47.8913C146.103 47.7138 146.863 47.5788 147.637 47.4865C148.618 47.3729 149.413 47.2805 150.024 47.2095C150.635 47.1314 151.078 47.0071 151.355 46.8366C151.632 46.6662 151.771 46.3892 151.771 46.0057V45.9311C151.771 45.0007 151.508 44.2798 150.983 43.7685C150.464 43.2571 149.69 43.0014 148.66 43.0014C147.588 43.0014 146.743 43.2393 146.125 43.7152C145.514 44.1839 145.091 44.706 144.857 45.2812L141.863 44.5994C142.218 43.6051 142.737 42.8026 143.419 42.1918C144.108 41.5739 144.9 41.1264 145.794 40.8494C146.689 40.5653 147.63 40.4233 148.618 40.4233C149.271 40.4233 149.963 40.5014 150.695 40.6577C151.434 40.8068 152.123 41.0838 152.762 41.4886C153.408 41.8935 153.937 42.4723 154.349 43.2251C154.761 43.9709 154.967 44.9403 154.967 46.1335V57H151.856V54.7628H151.728C151.522 55.1747 151.213 55.5795 150.801 55.9773C150.39 56.375 149.86 56.7053 149.214 56.968C148.568 57.2308 147.794 57.3622 146.892 57.3622ZM147.584 54.8054C148.465 54.8054 149.218 54.6314 149.843 54.2834C150.475 53.9354 150.954 53.4808 151.281 52.9197C151.615 52.3516 151.782 51.7443 151.782 51.098V48.9886C151.668 49.1023 151.448 49.2088 151.121 49.3082C150.801 49.4006 150.436 49.4822 150.024 49.5533C149.612 49.6172 149.211 49.6776 148.82 49.7344C148.429 49.7841 148.103 49.8267 147.84 49.8622C147.222 49.9403 146.657 50.0717 146.146 50.2564C145.642 50.4411 145.237 50.7074 144.931 51.0554C144.633 51.3963 144.484 51.8509 144.484 52.419C144.484 53.2074 144.775 53.804 145.358 54.2088C145.94 54.6065 146.682 54.8054 147.584 54.8054ZM171.834 34.5426L173.155 36.5561C172.665 37.0036 172.107 37.3232 171.482 37.5149C170.865 37.6996 170.151 37.8168 169.341 37.8665C168.531 37.9091 167.605 37.9482 166.561 37.9837C165.382 38.0192 164.412 38.2749 163.652 38.7507C162.892 39.2195 162.306 39.9155 161.894 40.8388C161.49 41.755 161.227 42.9055 161.106 44.2905H161.308C161.841 43.2749 162.58 42.5149 163.524 42.0107C164.476 41.5064 165.545 41.2543 166.731 41.2543C168.052 41.2543 169.227 41.5561 170.257 42.1598C171.287 42.7635 172.097 43.6477 172.686 44.8125C173.283 45.9702 173.581 47.3871 173.581 49.0632C173.581 50.7607 173.269 52.2273 172.644 53.4631C172.026 54.6989 171.152 55.6541 170.023 56.3288C168.901 56.9964 167.576 57.3303 166.049 57.3303C164.522 57.3303 163.191 56.9858 162.054 56.2969C160.925 55.6009 160.048 54.571 159.423 53.2074C158.805 51.8437 158.496 50.1605 158.496 48.1577V46.5384C158.496 42.7955 159.164 39.9794 160.499 38.0902C161.834 36.201 163.83 35.2315 166.486 35.1818C167.345 35.1605 168.112 35.157 168.787 35.1712C169.462 35.1783 170.051 35.1463 170.556 35.0753C171.067 34.9972 171.493 34.8196 171.834 34.5426ZM166.06 54.6562C166.948 54.6562 167.711 54.4325 168.35 53.9851C168.997 53.5305 169.494 52.8878 169.842 52.0568C170.19 51.2259 170.364 50.2457 170.364 49.1165C170.364 48.0085 170.19 47.0675 169.842 46.2933C169.494 45.5192 168.997 44.9297 168.35 44.5249C167.704 44.1129 166.93 43.907 166.028 43.907C165.36 43.907 164.764 44.0241 164.238 44.2585C163.713 44.4858 163.262 44.8232 162.885 45.2706C162.516 45.718 162.228 46.2649 162.022 46.9112C161.823 47.5504 161.717 48.2855 161.703 49.1165C161.703 50.8068 162.09 52.1527 162.864 53.1541C163.645 54.1555 164.71 54.6562 166.06 54.6562ZM184.032 57.3303C182.498 57.3303 181.159 56.9787 180.016 56.2756C178.872 55.5724 177.985 54.5888 177.352 53.3246C176.72 52.0604 176.404 50.5831 176.404 48.8928C176.404 47.1953 176.72 45.7109 177.352 44.4396C177.985 43.1683 178.872 42.1811 180.016 41.478C181.159 40.7749 182.498 40.4233 184.032 40.4233C185.566 40.4233 186.905 40.7749 188.048 41.478C189.192 42.1811 190.08 43.1683 190.712 44.4396C191.344 45.7109 191.66 47.1953 191.66 48.8928C191.66 50.5831 191.344 52.0604 190.712 53.3246C190.08 54.5888 189.192 55.5724 188.048 56.2756C186.905 56.9787 185.566 57.3303 184.032 57.3303ZM184.043 54.6562C185.037 54.6562 185.861 54.3935 186.514 53.8679C187.168 53.3423 187.651 52.6428 187.963 51.7692C188.283 50.8956 188.443 49.9332 188.443 48.8821C188.443 47.8381 188.283 46.8793 187.963 46.0057C187.651 45.125 187.168 44.4183 186.514 43.8857C185.861 43.353 185.037 43.0866 184.043 43.0866C183.041 43.0866 182.21 43.353 181.55 43.8857C180.896 44.4183 180.41 45.125 180.09 46.0057C179.778 46.8793 179.622 47.8381 179.622 48.8821C179.622 49.9332 179.778 50.8956 180.09 51.7692C180.41 52.6428 180.896 53.3423 181.55 53.8679C182.21 54.3935 183.041 54.6562 184.043 54.6562ZM193.245 43.3849V40.6364H207.051V43.3849H201.714V57H198.603V43.3849H193.245ZM212.818 46.2614H217.569C219.572 46.2614 221.113 46.7585 222.193 47.7528C223.272 48.7472 223.812 50.0291 223.812 51.5987C223.812 52.6214 223.57 53.5412 223.088 54.358C222.605 55.1747 221.898 55.821 220.968 56.2969C220.037 56.7656 218.904 57 217.569 57H210.421V40.6364H213.542V54.2514H217.569C218.485 54.2514 219.238 54.0135 219.828 53.5376C220.417 53.0547 220.712 52.4403 220.712 51.6946C220.712 50.9062 220.417 50.2635 219.828 49.7663C219.238 49.2621 218.485 49.0099 217.569 49.0099H212.818V46.2614ZM226.134 57V40.6364H229.32V57H226.134ZM248.427 57.3303C246.843 57.3303 245.479 56.9716 244.336 56.2543C243.199 55.5298 242.326 54.532 241.715 53.2607C241.104 51.9893 240.799 50.5334 240.799 48.8928C240.799 47.2308 241.111 45.7642 241.736 44.4929C242.361 43.2145 243.242 42.2166 244.378 41.4993C245.515 40.782 246.854 40.4233 248.395 40.4233C249.638 40.4233 250.746 40.6541 251.719 41.1158C252.692 41.5703 253.476 42.2095 254.073 43.0334C254.677 43.8572 255.035 44.8196 255.149 45.9205H252.049C251.878 45.1534 251.488 44.4929 250.877 43.9389C250.273 43.3849 249.464 43.108 248.448 43.108C247.56 43.108 246.782 43.3423 246.115 43.8111C245.454 44.2727 244.939 44.9332 244.57 45.7926C244.201 46.6449 244.016 47.6534 244.016 48.8182C244.016 50.0114 244.197 51.0412 244.559 51.9077C244.922 52.7741 245.433 53.4453 246.094 53.9212C246.761 54.397 247.546 54.6349 248.448 54.6349C249.052 54.6349 249.599 54.5249 250.089 54.3047C250.586 54.0774 251.001 53.7543 251.335 53.3352C251.676 52.9162 251.914 52.4119 252.049 51.8224H255.149C255.035 52.8807 254.691 53.8253 254.116 54.6562C253.54 55.4872 252.77 56.1406 251.804 56.6165C250.845 57.0923 249.719 57.3303 248.427 57.3303ZM268.295 57.2983V54.4006H269.606C270.153 54.4006 270.604 54.3082 270.959 54.1236C271.321 53.9389 271.616 53.6903 271.843 53.3778C272.077 53.0582 272.273 52.7102 272.429 52.3338L272.738 51.5561L265.067 35.1818H268.562L274.282 47.7955L279.375 35.1818H282.827L275.284 53.218C274.964 53.9425 274.595 54.6136 274.176 55.2315C273.764 55.8494 273.214 56.3501 272.525 56.7337C271.836 57.1101 270.923 57.2983 269.787 57.2983H268.295ZM302.948 42.277H299.624C299.496 41.5668 299.259 40.9418 298.911 40.402C298.563 39.8622 298.136 39.4041 297.632 39.0277C297.128 38.6513 296.563 38.3672 295.938 38.1754C295.32 37.9837 294.663 37.8878 293.967 37.8878C292.71 37.8878 291.585 38.2038 290.59 38.8359C289.603 39.468 288.822 40.3949 288.246 41.6165C287.678 42.8381 287.394 44.3295 287.394 46.0909C287.394 47.8665 287.678 49.3651 288.246 50.5866C288.822 51.8082 289.607 52.7315 290.601 53.3565C291.595 53.9815 292.714 54.294 293.957 54.294C294.646 54.294 295.299 54.2017 295.917 54.017C296.542 53.8253 297.107 53.5447 297.611 53.1754C298.115 52.8061 298.541 52.3551 298.889 51.8224C299.244 51.2827 299.489 50.6648 299.624 49.9688L302.948 49.9794C302.771 51.0518 302.426 52.0391 301.915 52.9411C301.411 53.8359 300.761 54.6101 299.965 55.2635C299.177 55.9098 298.275 56.4105 297.259 56.7656C296.244 57.1207 295.136 57.2983 293.935 57.2983C292.046 57.2983 290.363 56.8509 288.886 55.956C287.408 55.054 286.244 53.7649 285.391 52.0888C284.546 50.4126 284.124 48.4134 284.124 46.0909C284.124 43.7614 284.55 41.7621 285.402 40.093C286.254 38.4169 287.419 37.1314 288.896 36.2365C290.374 35.3345 292.053 34.8835 293.935 34.8835C295.093 34.8835 296.173 35.0504 297.174 35.3842C298.183 35.7109 299.088 36.1939 299.891 36.8331C300.693 37.4652 301.357 38.2393 301.883 39.1555C302.408 40.0646 302.763 41.1051 302.948 42.277ZM323.943 35.1818V57H320.662V37.9943H310.392V57H307.111V35.1818H323.943ZM327.326 62.2734V54.2088H328.764C329.254 53.7969 329.712 53.2109 330.138 52.451C330.564 51.6911 330.927 50.6648 331.225 49.3722C331.523 48.0795 331.729 46.4212 331.843 44.397L332.354 35.1818H345.809V54.2088H348.281V62.2415H345.128V57H330.479V62.2734H327.326ZM332.642 54.2088H342.656V38.0156H335.337L334.996 44.397C334.904 45.9382 334.751 47.3232 334.538 48.5518C334.332 49.7805 334.066 50.8672 333.739 51.8118C333.42 52.7493 333.054 53.5483 332.642 54.2088Z" fill="url(#paint0_linear_344_151)"/>
<defs>
<linearGradient id="paint0_linear_344_151" x1="-60.1991" y1="-13.239" x2="-44.6324" y2="127.993" gradientUnits="userSpaceOnUse">
<stop stop-color="#23A3F9"/>
<stop offset="1" stop-color="#0744E2"/>
</linearGradient>
</defs>
</svg>
