<svg width="270" height="68" viewBox="0 0 270 68" fill="none" xmlns="http://www.w3.org/2000/svg">
<rect width="270" height="68" rx="8" fill="#C0C0C0"/>
<path d="M65.003 42V26H71.003C72.2322 26 73.2634 26.2292 74.0968 26.6875C74.9353 27.1458 75.5681 27.776 75.9952 28.5781C76.4275 29.375 76.6436 30.2812 76.6436 31.2969C76.6436 32.3229 76.4275 33.2344 75.9952 34.0313C75.5629 34.8281 74.9249 35.4557 74.0811 35.9141C73.2374 36.3672 72.1983 36.5937 70.964 36.5937H66.9874V34.2109H70.5733C71.2921 34.2109 71.8806 34.0859 72.339 33.8359C72.7973 33.5859 73.1358 33.2422 73.3546 32.8047C73.5785 32.3672 73.6905 31.8646 73.6905 31.2969C73.6905 30.7292 73.5785 30.2292 73.3546 29.7969C73.1358 29.3646 72.7947 29.0286 72.3311 28.7891C71.8728 28.5443 71.2817 28.4219 70.5577 28.4219H67.9015V42H65.003ZM80.794 46.5C80.4086 46.5 80.0518 46.4688 79.7237 46.4063C79.4008 46.349 79.143 46.2813 78.9503 46.2031L79.6065 44C80.018 44.1198 80.3852 44.1771 80.7081 44.1719C81.031 44.1667 81.3149 44.0651 81.5597 43.8672C81.8097 43.6745 82.0206 43.3516 82.1925 42.8984L82.4347 42.25L78.0831 30H81.0831L83.8487 39.0625H83.9737L86.7472 30H89.755L84.9503 43.4531C84.7263 44.0885 84.4295 44.6328 84.0597 45.0859C83.6899 45.5443 83.2367 45.8932 82.7003 46.1328C82.169 46.3776 81.5336 46.5 80.794 46.5ZM91.712 42V30H94.5401V34.8437H95.5714L99.1808 30H102.587L98.1417 35.8906L102.634 42H99.212L95.9229 37.4766H94.5401V42H91.712ZM108.978 42.2344C107.806 42.2344 106.79 41.9766 105.931 41.4609C105.071 40.9453 104.405 40.224 103.931 39.2969C103.462 38.3698 103.228 37.2865 103.228 36.0469C103.228 34.8073 103.462 33.7214 103.931 32.7891C104.405 31.8568 105.071 31.1328 105.931 30.6172C106.79 30.1016 107.806 29.8438 108.978 29.8438C110.15 29.8438 111.165 30.1016 112.025 30.6172C112.884 31.1328 113.548 31.8568 114.017 32.7891C114.491 33.7214 114.728 34.8073 114.728 36.0469C114.728 37.2865 114.491 38.3698 114.017 39.2969C113.548 40.224 112.884 40.9453 112.025 41.4609C111.165 41.9766 110.15 42.2344 108.978 42.2344ZM108.993 39.9687C109.629 39.9687 110.16 39.7943 110.587 39.4453C111.014 39.0911 111.332 38.6172 111.54 38.0234C111.754 37.4297 111.86 36.7682 111.86 36.0391C111.86 35.3047 111.754 34.6406 111.54 34.0469C111.332 33.4479 111.014 32.9714 110.587 32.6172C110.16 32.263 109.629 32.0859 108.993 32.0859C108.342 32.0859 107.801 32.263 107.368 32.6172C106.941 32.9714 106.621 33.4479 106.407 34.0469C106.199 34.6406 106.095 35.3047 106.095 36.0391C106.095 36.7682 106.199 37.4297 106.407 38.0234C106.621 38.6172 106.941 39.0911 107.368 39.4453C107.801 39.7943 108.342 39.9687 108.993 39.9687ZM117.128 42V30H122.167C123.589 30 124.711 30.2839 125.534 30.8516C126.362 31.4193 126.776 32.2109 126.776 33.2266C126.776 33.8984 126.542 34.4479 126.073 34.875C125.61 35.2969 124.977 35.5807 124.175 35.7266C124.805 35.7786 125.357 35.9375 125.831 36.2031C126.31 36.4687 126.685 36.8177 126.956 37.25C127.227 37.6823 127.362 38.1797 127.362 38.7422C127.362 39.4036 127.188 39.9792 126.839 40.4687C126.495 40.9531 125.993 41.3307 125.331 41.6016C124.675 41.8672 123.878 42 122.941 42H117.128ZM119.776 39.7734H122.941C123.461 39.7734 123.87 39.651 124.167 39.4062C124.464 39.1562 124.612 38.8177 124.612 38.3906C124.612 37.8958 124.464 37.5078 124.167 37.2266C123.87 36.9401 123.461 36.7969 122.941 36.7969H119.776V39.7734ZM119.776 34.9687H122.222C122.607 34.9687 122.938 34.9141 123.214 34.8047C123.49 34.6901 123.701 34.5313 123.847 34.3281C123.993 34.1198 124.066 33.8724 124.066 33.5859C124.066 33.1745 123.896 32.8516 123.558 32.6172C123.224 32.3828 122.761 32.2656 122.167 32.2656H119.776V34.9687ZM134.931 42.2344C133.759 42.2344 132.743 41.9766 131.884 41.4609C131.025 40.9453 130.358 40.224 129.884 39.2969C129.415 38.3698 129.181 37.2865 129.181 36.0469C129.181 34.8073 129.415 33.7214 129.884 32.7891C130.358 31.8568 131.025 31.1328 131.884 30.6172C132.743 30.1016 133.759 29.8438 134.931 29.8438C136.103 29.8438 137.118 30.1016 137.978 30.6172C138.837 31.1328 139.501 31.8568 139.97 32.7891C140.444 33.7214 140.681 34.8073 140.681 36.0469C140.681 37.2865 140.444 38.3698 139.97 39.2969C139.501 40.224 138.837 40.9453 137.978 41.4609C137.118 41.9766 136.103 42.2344 134.931 42.2344ZM134.946 39.9687C135.582 39.9687 136.113 39.7943 136.54 39.4453C136.967 39.0911 137.285 38.6172 137.493 38.0234C137.707 37.4297 137.814 36.7682 137.814 36.0391C137.814 35.3047 137.707 34.6406 137.493 34.0469C137.285 33.4479 136.967 32.9714 136.54 32.6172C136.113 32.263 135.582 32.0859 134.946 32.0859C134.295 32.0859 133.754 32.263 133.321 32.6172C132.894 32.9714 132.574 33.4479 132.36 34.0469C132.152 34.6406 132.048 35.3047 132.048 36.0391C132.048 36.7682 132.152 37.4297 132.36 38.0234C132.574 38.6172 132.894 39.0911 133.321 39.4453C133.754 39.7943 134.295 39.9687 134.946 39.9687ZM142.019 45.4844V39.6719H142.972C143.227 39.474 143.441 39.2057 143.612 38.8672C143.784 38.5234 143.925 38.1198 144.034 37.6562C144.149 37.1875 144.243 36.6641 144.316 36.0859C144.388 35.5026 144.454 34.875 144.511 34.2031L144.855 30H153.526V39.6719H155.386V45.4844H152.651V42H144.8V45.4844H142.019ZM145.878 39.6719H150.823V32.2812H147.308L147.12 34.2031C147.016 35.474 146.878 36.5625 146.706 37.4687C146.534 38.375 146.258 39.1094 145.878 39.6719ZM162.732 42.2344C161.534 42.2344 160.505 41.9714 159.646 41.4453C158.791 40.9193 158.133 40.1927 157.669 39.2656C157.211 38.3333 156.982 37.2604 156.982 36.0469C156.982 34.8281 157.216 33.7526 157.685 32.8203C158.153 31.8828 158.815 31.1536 159.669 30.6328C160.528 30.1068 161.544 29.8438 162.716 29.8438C163.69 29.8438 164.552 30.0234 165.302 30.3828C166.057 30.737 166.659 31.2396 167.107 31.8906C167.554 32.5365 167.81 33.2917 167.872 34.1562H165.169C165.06 33.5781 164.799 33.0964 164.388 32.7109C163.982 32.3203 163.437 32.125 162.755 32.125C162.177 32.125 161.669 32.2812 161.232 32.5937C160.794 32.901 160.453 33.3437 160.208 33.9219C159.969 34.5 159.849 35.1927 159.849 36C159.849 36.8177 159.969 37.5208 160.208 38.1094C160.448 38.6927 160.784 39.1432 161.216 39.4609C161.653 39.7734 162.166 39.9297 162.755 39.9297C163.172 39.9297 163.544 39.8516 163.872 39.6953C164.205 39.5339 164.484 39.3021 164.708 39C164.932 38.6979 165.086 38.3307 165.169 37.8984H167.872C167.804 38.7474 167.554 39.5 167.122 40.1562C166.69 40.8073 166.101 41.3177 165.357 41.6875C164.612 42.0521 163.737 42.2344 162.732 42.2344ZM169.323 32.3203V30H179.823V32.3203H175.941V42H173.206V32.3203H169.323ZM182.075 42V30H187.114C188.536 30 189.659 30.2839 190.482 30.8516C191.31 31.4193 191.724 32.2109 191.724 33.2266C191.724 33.8984 191.489 34.4479 191.021 34.875C190.557 35.2969 189.924 35.5807 189.122 35.7266C189.752 35.7786 190.304 35.9375 190.778 36.2031C191.258 36.4687 191.633 36.8177 191.903 37.25C192.174 37.6823 192.31 38.1797 192.31 38.7422C192.31 39.4036 192.135 39.9792 191.786 40.4687C191.442 40.9531 190.94 41.3307 190.278 41.6016C189.622 41.8672 188.825 42 187.888 42H182.075ZM184.724 39.7734H187.888C188.409 39.7734 188.817 39.651 189.114 39.4062C189.411 39.1562 189.56 38.8177 189.56 38.3906C189.56 37.8958 189.411 37.5078 189.114 37.2266C188.817 36.9401 188.409 36.7969 187.888 36.7969H184.724V39.7734ZM184.724 34.9687H187.169C187.554 34.9687 187.885 34.9141 188.161 34.8047C188.437 34.6901 188.648 34.5313 188.794 34.3281C188.94 34.1198 189.013 33.8724 189.013 33.5859C189.013 33.1745 188.844 32.8516 188.505 32.6172C188.172 32.3828 187.708 32.2656 187.114 32.2656H184.724V34.9687ZM199.878 42.2344C198.706 42.2344 197.691 41.9766 196.831 41.4609C195.972 40.9453 195.305 40.224 194.831 39.2969C194.362 38.3698 194.128 37.2865 194.128 36.0469C194.128 34.8073 194.362 33.7214 194.831 32.7891C195.305 31.8568 195.972 31.1328 196.831 30.6172C197.691 30.1016 198.706 29.8438 199.878 29.8438C201.05 29.8438 202.066 30.1016 202.925 30.6172C203.784 31.1328 204.448 31.8568 204.917 32.7891C205.391 33.7214 205.628 34.8073 205.628 36.0469C205.628 37.2865 205.391 38.3698 204.917 39.2969C204.448 40.224 203.784 40.9453 202.925 41.4609C202.066 41.9766 201.05 42.2344 199.878 42.2344ZM199.894 39.9687C200.529 39.9687 201.06 39.7943 201.487 39.4453C201.914 39.0911 202.232 38.6172 202.441 38.0234C202.654 37.4297 202.761 36.7682 202.761 36.0391C202.761 35.3047 202.654 34.6406 202.441 34.0469C202.232 33.4479 201.914 32.9714 201.487 32.6172C201.06 32.263 200.529 32.0859 199.894 32.0859C199.243 32.0859 198.701 32.263 198.269 32.6172C197.842 32.9714 197.521 33.4479 197.308 34.0469C197.099 34.6406 196.995 35.3047 196.995 36.0391C196.995 36.7682 197.099 37.4297 197.308 38.0234C197.521 38.6172 197.842 39.0911 198.269 39.4453C198.701 39.7943 199.243 39.9687 199.894 39.9687Z" fill="#313F52"/>
</svg>
