<svg width="270" height="68" viewBox="0 0 270 68" fill="none" xmlns="http://www.w3.org/2000/svg">
<rect width="270" height="68" rx="8" fill="#C0C0C0"/>
<path d="M85.2519 26H88.7988L93.5488 37.5937H93.7363L98.4863 26H102.033V42H99.2519V31.0078H99.1035L94.6816 41.9531H92.6035L88.1816 30.9844H88.0332V42H85.2519V26ZM108.518 42.2422C107.757 42.2422 107.072 42.1068 106.463 41.8359C105.859 41.5599 105.38 41.1536 105.025 40.6172C104.676 40.0807 104.502 39.4193 104.502 38.6328C104.502 37.9557 104.627 37.3958 104.877 36.9531C105.127 36.5104 105.468 36.1562 105.9 35.8906C106.333 35.625 106.82 35.4245 107.361 35.2891C107.908 35.1484 108.473 35.0469 109.057 34.9844C109.76 34.9115 110.33 34.8464 110.768 34.7891C111.205 34.7266 111.523 34.6328 111.721 34.5078C111.924 34.3776 112.025 34.1771 112.025 33.9062V33.8594C112.025 33.2708 111.851 32.8151 111.502 32.4922C111.153 32.1693 110.65 32.0078 109.994 32.0078C109.301 32.0078 108.752 32.1589 108.346 32.4609C107.945 32.763 107.674 33.1198 107.533 33.5312L104.893 33.1562C105.101 32.4271 105.445 31.8177 105.924 31.3281C106.403 30.8333 106.989 30.4635 107.682 30.2187C108.374 29.9688 109.14 29.8438 109.978 29.8438C110.557 29.8438 111.132 29.9115 111.705 30.0469C112.278 30.1823 112.801 30.4062 113.275 30.7187C113.749 31.026 114.13 31.4453 114.416 31.9766C114.708 32.5078 114.853 33.1719 114.853 33.9687V42H112.135V40.3516H112.041C111.869 40.6849 111.627 40.9974 111.314 41.2891C111.007 41.5755 110.619 41.8073 110.15 41.9844C109.687 42.1563 109.143 42.2422 108.518 42.2422ZM109.252 40.1641C109.82 40.1641 110.312 40.0521 110.728 39.8281C111.145 39.599 111.465 39.2969 111.689 38.9219C111.919 38.5469 112.033 38.138 112.033 37.6953V36.2812C111.945 36.3542 111.794 36.4219 111.58 36.4844C111.372 36.5469 111.137 36.6016 110.877 36.6484C110.616 36.6953 110.359 36.737 110.103 36.7734C109.848 36.8099 109.627 36.8411 109.439 36.8672C109.018 36.9245 108.64 37.0182 108.307 37.1484C107.973 37.2786 107.71 37.4609 107.518 37.6953C107.325 37.9245 107.228 38.2214 107.228 38.5859C107.228 39.1068 107.419 39.5 107.799 39.7656C108.179 40.0312 108.663 40.1641 109.252 40.1641ZM117.697 46.5V30H120.478V31.9844H120.643C120.788 31.6927 120.994 31.3828 121.26 31.0547C121.525 30.7214 121.885 30.4375 122.338 30.2031C122.791 29.9635 123.369 29.8438 124.072 29.8438C124.999 29.8438 125.835 30.0807 126.58 30.5547C127.33 31.0234 127.924 31.7187 128.361 32.6406C128.804 33.5573 129.025 34.6823 129.025 36.0156C129.025 37.3333 128.809 38.4531 128.377 39.375C127.945 40.2969 127.356 41 126.611 41.4844C125.866 41.9688 125.023 42.2109 124.08 42.2109C123.393 42.2109 122.822 42.0964 122.369 41.8672C121.916 41.638 121.551 41.362 121.275 41.0391C121.005 40.7109 120.794 40.401 120.643 40.1094H120.525V46.5H117.697ZM120.471 36C120.471 36.776 120.58 37.4557 120.799 38.0391C121.023 38.6224 121.343 39.0781 121.76 39.4062C122.182 39.7292 122.692 39.8906 123.291 39.8906C123.916 39.8906 124.439 39.724 124.861 39.3906C125.283 39.0521 125.601 38.5911 125.814 38.0078C126.033 37.4193 126.143 36.75 126.143 36C126.143 35.2552 126.036 34.5937 125.822 34.0156C125.609 33.4375 125.291 32.9844 124.869 32.6562C124.447 32.3281 123.921 32.1641 123.291 32.1641C122.687 32.1641 122.174 32.3229 121.752 32.6406C121.33 32.9583 121.01 33.4036 120.791 33.9766C120.577 34.5495 120.471 35.224 120.471 36ZM131.447 42V30H134.275V34.8437H135.307L138.916 30H142.322L137.877 35.8906L142.369 42H138.947L135.658 37.4766H134.275V42H131.447ZM148.791 42.2344C147.588 42.2344 146.549 41.9844 145.674 41.4844C144.804 40.9792 144.135 40.2656 143.666 39.3437C143.197 38.4167 142.963 37.3255 142.963 36.0703C142.963 34.8359 143.197 33.7526 143.666 32.8203C144.14 31.8828 144.801 31.1536 145.65 30.6328C146.499 30.1068 147.497 29.8438 148.643 29.8438C149.382 29.8438 150.08 29.9635 150.736 30.2031C151.398 30.4375 151.981 30.8021 152.486 31.2969C152.997 31.7917 153.398 32.4219 153.689 33.1875C153.981 33.9479 154.127 34.8542 154.127 35.9062V36.7734H144.291V34.8672H151.416C151.411 34.3255 151.294 33.8437 151.064 33.4219C150.835 32.9948 150.515 32.6589 150.103 32.4141C149.697 32.1693 149.223 32.0469 148.682 32.0469C148.103 32.0469 147.596 32.1875 147.158 32.4687C146.721 32.7448 146.38 33.1094 146.135 33.5625C145.895 34.0104 145.773 34.5026 145.768 35.0391V36.7031C145.768 37.401 145.895 38 146.15 38.5C146.406 38.9948 146.762 39.375 147.221 39.6406C147.679 39.901 148.215 40.0312 148.83 40.0312C149.241 40.0312 149.614 39.974 149.947 39.8594C150.281 39.7396 150.57 39.5651 150.814 39.3359C151.059 39.1068 151.244 38.8229 151.369 38.4844L154.01 38.7812C153.843 39.4792 153.525 40.0885 153.057 40.6094C152.593 41.125 151.999 41.526 151.275 41.8125C150.551 42.0937 149.723 42.2344 148.791 42.2344ZM156.519 46.5V30H159.301V31.9844H159.465C159.611 31.6927 159.816 31.3828 160.082 31.0547C160.348 30.7214 160.707 30.4375 161.16 30.2031C161.613 29.9635 162.191 29.8438 162.894 29.8438C163.822 29.8438 164.658 30.0807 165.402 30.5547C166.152 31.0234 166.746 31.7187 167.184 32.6406C167.626 33.5573 167.848 34.6823 167.848 36.0156C167.848 37.3333 167.631 38.4531 167.199 39.375C166.767 40.2969 166.178 41 165.434 41.4844C164.689 41.9688 163.845 42.2109 162.902 42.2109C162.215 42.2109 161.644 42.0964 161.191 41.8672C160.738 41.638 160.374 41.362 160.098 41.0391C159.827 40.7109 159.616 40.401 159.465 40.1094H159.348V46.5H156.519ZM159.293 36C159.293 36.776 159.402 37.4557 159.621 38.0391C159.845 38.6224 160.165 39.0781 160.582 39.4062C161.004 39.7292 161.514 39.8906 162.113 39.8906C162.738 39.8906 163.262 39.724 163.684 39.3906C164.105 39.0521 164.423 38.5911 164.637 38.0078C164.855 37.4193 164.965 36.75 164.965 36C164.965 35.2552 164.858 34.5937 164.644 34.0156C164.431 33.4375 164.113 32.9844 163.691 32.6562C163.269 32.3281 162.743 32.1641 162.113 32.1641C161.509 32.1641 160.996 32.3229 160.574 32.6406C160.152 32.9583 159.832 33.4036 159.613 33.9766C159.4 34.5495 159.293 35.224 159.293 36ZM172.184 33.9062H175.723C177.254 33.9062 178.439 34.2786 179.277 35.0234C180.116 35.7682 180.538 36.7448 180.543 37.9531C180.538 38.7396 180.345 39.4375 179.965 40.0469C179.59 40.6562 179.043 41.1354 178.324 41.4844C177.611 41.8281 176.743 42 175.723 42H170.269V30H172.996V39.6797H175.723C176.337 39.6797 176.842 39.5234 177.238 39.2109C177.634 38.8932 177.832 38.487 177.832 37.9922C177.832 37.4714 177.634 37.0469 177.238 36.7187C176.842 36.3906 176.337 36.2266 175.723 36.2266H172.184V33.9062ZM182.035 42V30H184.863V42H182.035Z" fill="#313F52"/>
</svg>
