<svg width="270" height="68" viewBox="0 0 270 68" fill="none" xmlns="http://www.w3.org/2000/svg">
<rect width="270" height="68" rx="8" fill="white"/>
<path d="M104.545 26H108.092L112.842 37.5937H113.029L117.779 26H121.326V42H118.545V31.0078H118.397L113.975 41.9531H111.897L107.475 30.9844H107.326V42H104.545V26ZM129.67 42.2344C128.467 42.2344 127.428 41.9844 126.553 41.4844C125.683 40.9792 125.014 40.2656 124.545 39.3437C124.076 38.4167 123.842 37.3255 123.842 36.0703C123.842 34.8359 124.076 33.7526 124.545 32.8203C125.019 31.8828 125.68 31.1536 126.529 30.6328C127.378 30.1068 128.376 29.8438 129.522 29.8438C130.261 29.8438 130.959 29.9635 131.615 30.2031C132.277 30.4375 132.86 30.8021 133.365 31.2969C133.876 31.7917 134.277 32.4219 134.568 33.1875C134.86 33.9479 135.006 34.8542 135.006 35.9062V36.7734H125.17V34.8672H132.295C132.29 34.3255 132.173 33.8437 131.943 33.4219C131.714 32.9948 131.394 32.6589 130.983 32.4141C130.576 32.1693 130.102 32.0469 129.561 32.0469C128.983 32.0469 128.475 32.1875 128.037 32.4687C127.6 32.7448 127.259 33.1094 127.014 33.5625C126.774 34.0104 126.652 34.5026 126.647 35.0391V36.7031C126.647 37.401 126.774 38 127.029 38.5C127.285 38.9948 127.641 39.375 128.1 39.6406C128.558 39.901 129.094 40.0312 129.709 40.0312C130.121 40.0312 130.493 39.974 130.826 39.8594C131.16 39.7396 131.449 39.5651 131.693 39.3359C131.938 39.1068 132.123 38.8229 132.248 38.4844L134.889 38.7812C134.722 39.4792 134.404 40.0885 133.936 40.6094C133.472 41.125 132.878 41.526 132.154 41.8125C131.43 42.0937 130.602 42.2344 129.67 42.2344ZM145.641 34.8281V37.1484H139.25V34.8281H145.641ZM140.125 30V42H137.399V30H140.125ZM147.492 30V42H144.774V30H147.492ZM156.69 34.9141V37.2422H150.229V34.9141H156.69ZM152.471 30V42H149.635V30H152.471ZM160.315 42.2344C159.158 42.2344 158.156 41.9714 157.307 41.4453C156.463 40.9193 155.809 40.1901 155.346 39.2578C154.882 38.3255 154.65 37.2474 154.65 36.0234C154.65 34.7995 154.882 33.724 155.346 32.7969C155.809 31.8698 156.463 31.1458 157.307 30.625C158.156 30.1042 159.158 29.8438 160.315 29.8438C161.466 29.8438 162.463 30.1042 163.307 30.625C164.156 31.1458 164.812 31.8698 165.275 32.7969C165.744 33.724 165.979 34.7995 165.979 36.0234C165.979 37.2474 165.744 38.3255 165.275 39.2578C164.812 40.1901 164.156 40.9193 163.307 41.4453C162.463 41.9714 161.466 42.2344 160.315 42.2344ZM160.315 39.8906C160.997 39.8906 161.554 39.7187 161.986 39.375C162.419 39.0312 162.736 38.5677 162.94 37.9844C163.143 37.401 163.244 36.7474 163.244 36.0234C163.244 35.2995 163.143 34.6458 162.94 34.0625C162.736 33.4792 162.419 33.0182 161.986 32.6797C161.554 32.3359 160.997 32.1641 160.315 32.1641C159.627 32.1641 159.065 32.3359 158.627 32.6797C158.195 33.0182 157.877 33.4792 157.674 34.0625C157.471 34.6458 157.369 35.2995 157.369 36.0234C157.369 36.7526 157.471 37.4089 157.674 37.9922C157.877 38.5755 158.195 39.0391 158.627 39.3828C159.065 39.7214 159.627 39.8906 160.315 39.8906Z" fill="#313F52"/>
</svg>
