<svg width="270" height="68" viewBox="0 0 270 68" fill="none" xmlns="http://www.w3.org/2000/svg">
<rect width="270" height="68" rx="8" fill="#438FF4"/>
<g filter="url(#filter0_d_344_218)">
<path d="M93.4189 12V28H90.5439V14.4062H83.5439V28H80.6689V12H93.4189ZM102.073 28.2344C100.87 28.2344 99.8311 27.9844 98.9561 27.4844C98.0863 26.9792 97.417 26.2656 96.9482 25.3437C96.4795 24.4167 96.2451 23.3255 96.2451 22.0703C96.2451 20.8359 96.4795 19.7526 96.9482 18.8203C97.4222 17.8828 98.0837 17.1536 98.9326 16.6328C99.7816 16.1068 100.779 15.8438 101.925 15.8438C102.664 15.8438 103.362 15.9635 104.019 16.2031C104.68 16.4375 105.263 16.8021 105.769 17.2969C106.279 17.7917 106.68 18.4219 106.972 19.1875C107.263 19.9479 107.409 20.8542 107.409 21.9062V22.7734H97.5732V20.8672H104.698C104.693 20.3255 104.576 19.8437 104.347 19.4219C104.118 18.9948 103.797 18.6589 103.386 18.4141C102.979 18.1693 102.506 18.0469 101.964 18.0469C101.386 18.0469 100.878 18.1875 100.44 18.4687C100.003 18.7448 99.6618 19.1094 99.417 19.5625C99.1774 20.0104 99.055 20.5026 99.0498 21.0391V22.7031C99.0498 23.401 99.1774 24 99.4326 24.5C99.6878 24.9948 100.045 25.375 100.503 25.6406C100.961 25.901 101.498 26.0312 102.112 26.0312C102.524 26.0312 102.896 25.974 103.229 25.8594C103.563 25.7396 103.852 25.5651 104.097 25.3359C104.341 25.1068 104.526 24.8229 104.651 24.4844L107.292 24.7812C107.125 25.4792 106.808 26.0885 106.339 26.6094C105.875 27.125 105.282 27.526 104.558 27.8125C103.834 28.0937 103.006 28.2344 102.073 28.2344ZM109.802 32.5V16H112.583V17.9844H112.747C112.893 17.6927 113.099 17.3828 113.364 17.0547C113.63 16.7214 113.989 16.4375 114.442 16.2031C114.896 15.9635 115.474 15.8438 116.177 15.8438C117.104 15.8438 117.94 16.0807 118.685 16.5547C119.435 17.0234 120.028 17.7187 120.466 18.6406C120.909 19.5573 121.13 20.6823 121.13 22.0156C121.13 23.3333 120.914 24.4531 120.481 25.375C120.049 26.2969 119.461 27 118.716 27.4844C117.971 27.9688 117.127 28.2109 116.185 28.2109C115.497 28.2109 114.927 28.0964 114.474 27.8672C114.021 27.638 113.656 27.362 113.38 27.0391C113.109 26.7109 112.898 26.401 112.747 26.1094H112.63V32.5H109.802ZM112.575 22C112.575 22.776 112.685 23.4557 112.903 24.0391C113.127 24.6224 113.448 25.0781 113.864 25.4062C114.286 25.7292 114.797 25.8906 115.396 25.8906C116.021 25.8906 116.544 25.724 116.966 25.3906C117.388 25.0521 117.705 24.5911 117.919 24.0078C118.138 23.4193 118.247 22.75 118.247 22C118.247 21.2552 118.14 20.5937 117.927 20.0156C117.713 19.4375 117.396 18.9844 116.974 18.6562C116.552 18.3281 116.026 18.1641 115.396 18.1641C114.791 18.1641 114.278 18.3229 113.856 18.6406C113.435 18.9583 113.114 19.4036 112.896 19.9766C112.682 20.5495 112.575 21.224 112.575 22ZM128.864 28.2344C127.661 28.2344 126.622 27.9844 125.747 27.4844C124.877 26.9792 124.208 26.2656 123.739 25.3437C123.271 24.4167 123.036 23.3255 123.036 22.0703C123.036 20.8359 123.271 19.7526 123.739 18.8203C124.213 17.8828 124.875 17.1536 125.724 16.6328C126.573 16.1068 127.57 15.8438 128.716 15.8438C129.455 15.8438 130.153 15.9635 130.81 16.2031C131.471 16.4375 132.054 16.8021 132.56 17.2969C133.07 17.7917 133.471 18.4219 133.763 19.1875C134.054 19.9479 134.2 20.8542 134.2 21.9062V22.7734H124.364V20.8672H131.489C131.484 20.3255 131.367 19.8437 131.138 19.4219C130.909 18.9948 130.588 18.6589 130.177 18.4141C129.771 18.1693 129.297 18.0469 128.755 18.0469C128.177 18.0469 127.669 18.1875 127.231 18.4687C126.794 18.7448 126.453 19.1094 126.208 19.5625C125.968 20.0104 125.846 20.5026 125.841 21.0391V22.7031C125.841 23.401 125.968 24 126.224 24.5C126.479 24.9948 126.836 25.375 127.294 25.6406C127.752 25.901 128.289 26.0312 128.903 26.0312C129.315 26.0312 129.687 25.974 130.021 25.8594C130.354 25.7396 130.643 25.5651 130.888 25.3359C131.132 25.1068 131.317 24.8229 131.442 24.4844L134.083 24.7812C133.916 25.4792 133.599 26.0885 133.13 26.6094C132.666 27.125 132.073 27.526 131.349 27.8125C130.625 28.0937 129.797 28.2344 128.864 28.2344ZM139.319 24.1719L144.124 16H147.03V28H144.296V19.8203L139.507 28H136.593V16H139.319V24.1719ZM143.351 11.875H145.468C145.468 12.7865 145.137 13.526 144.476 14.0937C143.819 14.6562 142.929 14.9375 141.804 14.9375C140.689 14.9375 139.801 14.6562 139.14 14.0937C138.483 13.526 138.158 12.7865 138.163 11.875H140.265C140.265 12.25 140.379 12.5859 140.608 12.8828C140.843 13.1745 141.241 13.3203 141.804 13.3203C142.356 13.3203 142.749 13.1745 142.983 12.8828C143.223 12.5911 143.345 12.2552 143.351 11.875ZM148.591 18.3203V16H159.091V18.3203H155.208V28H152.474V18.3203H148.591ZM164.069 24.1719L168.874 16H171.78V28H169.046V19.8203L164.257 28H161.343V16H164.069V24.1719ZM180.142 28V16H182.97V20.8437H184.001L187.61 16H191.017L186.571 21.8906L191.063 28H187.642L184.353 23.4766H182.97V28H180.142ZM35.3291 53.2344C34.1312 53.2344 33.1025 52.9714 32.2432 52.4453C31.389 51.9193 30.7301 51.1927 30.2666 50.2656C29.8083 49.3333 29.5791 48.2604 29.5791 47.0469C29.5791 45.8281 29.8135 44.7526 30.2822 43.8203C30.751 42.8828 31.4124 42.1536 32.2666 41.6328C33.126 41.1068 34.1416 40.8438 35.3135 40.8438C36.2874 40.8438 37.1494 41.0234 37.8994 41.3828C38.6546 41.737 39.2562 42.2396 39.7041 42.8906C40.152 43.5365 40.4072 44.2917 40.4697 45.1562H37.7666C37.6572 44.5781 37.3968 44.0964 36.9854 43.7109C36.5791 43.3203 36.0348 43.125 35.3525 43.125C34.7744 43.125 34.2666 43.2812 33.8291 43.5937C33.3916 43.901 33.0505 44.3437 32.8057 44.9219C32.5661 45.5 32.4463 46.1927 32.4463 47C32.4463 47.8177 32.5661 48.5208 32.8057 49.1094C33.0452 49.6927 33.3812 50.1432 33.8135 50.4609C34.251 50.7734 34.764 50.9297 35.3525 50.9297C35.7692 50.9297 36.1416 50.8516 36.4697 50.6953C36.8031 50.5339 37.0817 50.3021 37.3057 50C37.5296 49.6979 37.6833 49.3307 37.7666 48.8984H40.4697C40.402 49.7474 40.152 50.5 39.7197 51.1562C39.2874 51.8073 38.6989 52.3177 37.9541 52.6875C37.2093 53.0521 36.3343 53.2344 35.3291 53.2344ZM41.9639 53L41.9482 50.6719H42.3623C42.6748 50.6719 42.9378 50.6016 43.1514 50.4609C43.3649 50.3203 43.542 50.0859 43.6826 49.7578C43.8232 49.4245 43.9326 48.9766 44.0107 48.4141C44.0889 47.8516 44.1436 47.151 44.1748 46.3125L44.3857 41H53.1357V53H50.4014V43.3203H46.9561L46.7686 47.1875C46.7217 48.1875 46.6097 49.0547 46.4326 49.7891C46.2607 50.5182 46.016 51.1198 45.6982 51.5938C45.3857 52.0677 44.9925 52.4219 44.5186 52.6562C44.0446 52.8854 43.4847 53 42.8389 53H41.9639ZM61.2959 53.2344C60.0928 53.2344 59.0537 52.9844 58.1787 52.4844C57.3089 51.9792 56.6396 51.2656 56.1709 50.3437C55.7021 49.4167 55.4678 48.3255 55.4678 47.0703C55.4678 45.8359 55.7021 44.7526 56.1709 43.8203C56.6449 42.8828 57.3063 42.1536 58.1553 41.6328C59.0042 41.1068 60.0016 40.8438 61.1475 40.8438C61.887 40.8438 62.585 40.9635 63.2412 41.2031C63.9027 41.4375 64.486 41.8021 64.9912 42.2969C65.5016 42.7917 65.9027 43.4219 66.1943 44.1875C66.486 44.9479 66.6318 45.8542 66.6318 46.9062V47.7734H56.7959V45.8672H63.9209C63.9157 45.3255 63.7985 44.8437 63.5693 44.4219C63.3402 43.9948 63.0199 43.6589 62.6084 43.4141C62.2021 43.1693 61.7282 43.0469 61.1865 43.0469C60.6084 43.0469 60.1006 43.1875 59.6631 43.4687C59.2256 43.7448 58.8844 44.1094 58.6396 44.5625C58.4001 45.0104 58.2777 45.5026 58.2725 46.0391V47.7031C58.2725 48.401 58.4001 49 58.6553 49.5C58.9105 49.9948 59.2673 50.375 59.7256 50.6406C60.1839 50.901 60.7204 51.0312 61.335 51.0312C61.7464 51.0312 62.1188 50.974 62.4521 50.8594C62.7855 50.7396 63.0745 50.5651 63.3193 50.3359C63.5641 50.1068 63.749 49.8229 63.874 49.4844L66.5146 49.7812C66.348 50.4792 66.0303 51.0885 65.5615 51.6094C65.098 52.125 64.5042 52.526 63.7803 52.8125C63.0563 53.0937 62.2282 53.2344 61.2959 53.2344ZM67.9619 56.4844V50.6719H68.915C69.1702 50.474 69.3838 50.2057 69.5557 49.8672C69.7275 49.5234 69.8682 49.1198 69.9775 48.6562C70.0921 48.1875 70.1859 47.6641 70.2588 47.0859C70.3317 46.5026 70.3968 45.875 70.4541 45.2031L70.7979 41H79.4697V50.6719H81.3291V56.4844H78.5947V53H70.7432V56.4844H67.9619ZM71.8213 50.6719H76.7666V43.2812H73.251L73.0635 45.2031C72.9593 46.474 72.8213 47.5625 72.6494 48.4687C72.4775 49.375 72.2015 50.1094 71.8213 50.6719ZM85.1982 57.5C84.8128 57.5 84.4561 57.4688 84.1279 57.4063C83.805 57.349 83.5472 57.2813 83.3545 57.2031L84.0107 55C84.4222 55.1198 84.7894 55.1771 85.1123 55.1719C85.4352 55.1667 85.7191 55.0651 85.9639 54.8672C86.2139 54.6745 86.4248 54.3516 86.5967 53.8984L86.8389 53.25L82.4873 41H85.4873L88.2529 50.0625H88.3779L91.1514 41H94.1592L89.3545 54.4531C89.1305 55.0885 88.8337 55.6328 88.4639 56.0859C88.0941 56.5443 87.641 56.8932 87.1045 57.1328C86.5732 57.3776 85.9378 57.5 85.1982 57.5ZM102.452 45.9141V48.2422H95.9912V45.9141H102.452ZM98.2334 41V53H95.3975V41H98.2334ZM106.077 53.2344C104.921 53.2344 103.918 52.9714 103.069 52.4453C102.226 51.9193 101.572 51.1901 101.108 50.2578C100.645 49.3255 100.413 48.2474 100.413 47.0234C100.413 45.7995 100.645 44.724 101.108 43.7969C101.572 42.8698 102.226 42.1458 103.069 41.625C103.918 41.1042 104.921 40.8438 106.077 40.8438C107.228 40.8438 108.226 41.1042 109.069 41.625C109.918 42.1458 110.575 42.8698 111.038 43.7969C111.507 44.724 111.741 45.7995 111.741 47.0234C111.741 48.2474 111.507 49.3255 111.038 50.2578C110.575 51.1901 109.918 51.9193 109.069 52.4453C108.226 52.9714 107.228 53.2344 106.077 53.2344ZM106.077 50.8906C106.759 50.8906 107.317 50.7187 107.749 50.375C108.181 50.0312 108.499 49.5677 108.702 48.9844C108.905 48.401 109.007 47.7474 109.007 47.0234C109.007 46.2995 108.905 45.6458 108.702 45.0625C108.499 44.4792 108.181 44.0182 107.749 43.6797C107.317 43.3359 106.759 43.1641 106.077 43.1641C105.39 43.1641 104.827 43.3359 104.39 43.6797C103.957 44.0182 103.64 44.4792 103.437 45.0625C103.233 45.6458 103.132 46.2995 103.132 47.0234C103.132 47.7526 103.233 48.4089 103.437 48.9922C103.64 49.5755 103.957 50.0391 104.39 50.3828C104.827 50.7214 105.39 50.8906 106.077 50.8906ZM132.272 50.6797L132.038 56.4375H129.374V53H127.96V50.6797H132.272ZM114.249 41H116.976V50.6719H120.749V41H123.476V50.6719H127.249V41H129.976V53H114.249V41ZM139.692 53.2344C138.489 53.2344 137.45 52.9844 136.575 52.4844C135.705 51.9792 135.036 51.2656 134.567 50.3437C134.099 49.4167 133.864 48.3255 133.864 47.0703C133.864 45.8359 134.099 44.7526 134.567 43.8203C135.041 42.8828 135.703 42.1536 136.552 41.6328C137.401 41.1068 138.398 40.8438 139.544 40.8438C140.284 40.8438 140.981 40.9635 141.638 41.2031C142.299 41.4375 142.882 41.8021 143.388 42.2969C143.898 42.7917 144.299 43.4219 144.591 44.1875C144.882 44.9479 145.028 45.8542 145.028 46.9062V47.7734H135.192V45.8672H142.317C142.312 45.3255 142.195 44.8437 141.966 44.4219C141.737 43.9948 141.416 43.6589 141.005 43.4141C140.599 43.1693 140.125 43.0469 139.583 43.0469C139.005 43.0469 138.497 43.1875 138.06 43.4687C137.622 43.7448 137.281 44.1094 137.036 44.5625C136.797 45.0104 136.674 45.5026 136.669 46.0391V47.7031C136.669 48.401 136.797 49 137.052 49.5C137.307 49.9948 137.664 50.375 138.122 50.6406C138.58 50.901 139.117 51.0312 139.731 51.0312C140.143 51.0312 140.515 50.974 140.849 50.8594C141.182 50.7396 141.471 50.5651 141.716 50.3359C141.961 50.1068 142.146 49.8229 142.271 49.4844L144.911 49.7812C144.744 50.4792 144.427 51.0885 143.958 51.6094C143.494 52.125 142.901 52.526 142.177 52.8125C141.453 53.0937 140.625 53.2344 139.692 53.2344ZM154.327 49.7109L157.89 41H160.171L155.319 53H153.343L148.601 41H150.858L154.327 49.7109ZM150.147 41V53H147.421V41H150.147ZM158.624 53V41H161.327V53H158.624ZM165.507 57.5C165.121 57.5 164.765 57.4688 164.437 57.4063C164.114 57.349 163.856 57.2813 163.663 57.2031L164.319 55C164.731 55.1198 165.098 55.1771 165.421 55.1719C165.744 55.1667 166.028 55.0651 166.272 54.8672C166.522 54.6745 166.733 54.3516 166.905 53.8984L167.147 53.25L162.796 41H165.796L168.562 50.0625H168.687L171.46 41H174.468L169.663 54.4531C169.439 55.0885 169.142 55.6328 168.772 56.0859C168.403 56.5443 167.95 56.8932 167.413 57.1328C166.882 57.3776 166.246 57.5 165.507 57.5ZM186.163 43.1719C185.767 43.1771 185.403 43.263 185.069 43.4297C184.736 43.5964 184.468 43.8229 184.265 44.1094C184.067 44.3906 183.968 44.7187 183.968 45.0938H181.366C181.366 44.4896 181.491 43.9271 181.741 43.4062C181.991 42.8854 182.335 42.4323 182.772 42.0469C183.215 41.6615 183.726 41.362 184.304 41.1484C184.887 40.9297 185.507 40.8203 186.163 40.8203C187.33 40.8203 188.314 41.0911 189.116 41.6328C189.924 42.1745 190.533 42.9036 190.944 43.8203C191.361 44.7318 191.569 45.7422 191.569 46.8516V47.1875C191.569 48.2969 191.364 49.3099 190.952 50.2266C190.541 51.138 189.931 51.8646 189.124 52.4062C188.322 52.9479 187.335 53.2187 186.163 53.2187C185.226 53.2187 184.395 53.0286 183.671 52.6484C182.952 52.263 182.387 51.7266 181.976 51.0391C181.569 50.3516 181.366 49.5495 181.366 48.6328H183.968C183.968 49.0286 184.062 49.3958 184.249 49.7344C184.437 50.0677 184.694 50.3359 185.022 50.5391C185.356 50.7422 185.736 50.8464 186.163 50.8516C186.804 50.8464 187.319 50.6562 187.71 50.2812C188.106 49.9062 188.392 49.4375 188.569 48.875C188.752 48.3125 188.843 47.75 188.843 47.1875V46.8516C188.843 46.2474 188.752 45.6667 188.569 45.1094C188.392 44.5469 188.106 44.0859 187.71 43.7266C187.319 43.362 186.804 43.1771 186.163 43.1719ZM189.726 46.0469V47.9219H185.155V46.0469H189.726ZM192.634 43.3203V41H203.134V43.3203H199.251V53H196.517V43.3203H192.634ZM208.345 53.2422C207.584 53.2422 206.899 53.1068 206.29 52.8359C205.686 52.5599 205.207 52.1536 204.853 51.6172C204.504 51.0807 204.329 50.4193 204.329 49.6328C204.329 48.9557 204.454 48.3958 204.704 47.9531C204.954 47.5104 205.295 47.1562 205.728 46.8906C206.16 46.625 206.647 46.4245 207.188 46.2891C207.735 46.1484 208.3 46.0469 208.884 45.9844C209.587 45.9115 210.157 45.8464 210.595 45.7891C211.032 45.7266 211.35 45.6328 211.548 45.5078C211.751 45.3776 211.853 45.1771 211.853 44.9062V44.8594C211.853 44.2708 211.678 43.8151 211.329 43.4922C210.98 43.1693 210.478 43.0078 209.821 43.0078C209.129 43.0078 208.579 43.1589 208.173 43.4609C207.772 43.763 207.501 44.1198 207.36 44.5312L204.72 44.1562C204.928 43.4271 205.272 42.8177 205.751 42.3281C206.23 41.8333 206.816 41.4635 207.509 41.2187C208.201 40.9688 208.967 40.8438 209.806 40.8438C210.384 40.8438 210.959 40.9115 211.532 41.0469C212.105 41.1823 212.629 41.4062 213.103 41.7187C213.576 42.026 213.957 42.4453 214.243 42.9766C214.535 43.5078 214.681 44.1719 214.681 44.9687V53H211.962V51.3516H211.868C211.696 51.6849 211.454 51.9974 211.142 52.2891C210.834 52.5755 210.446 52.8073 209.978 52.9844C209.514 53.1563 208.97 53.2422 208.345 53.2422ZM209.079 51.1641C209.647 51.1641 210.139 51.0521 210.556 50.8281C210.972 50.599 211.293 50.2969 211.517 49.9219C211.746 49.5469 211.86 49.138 211.86 48.6953V47.2812C211.772 47.3542 211.621 47.4219 211.407 47.4844C211.199 47.5469 210.965 47.6016 210.704 47.6484C210.444 47.6953 210.186 47.737 209.931 47.7734C209.675 47.8099 209.454 47.8411 209.267 47.8672C208.845 47.9245 208.467 48.0182 208.134 48.1484C207.8 48.2786 207.537 48.4609 207.345 48.6953C207.152 48.9245 207.056 49.2214 207.056 49.5859C207.056 50.1068 207.246 50.5 207.626 50.7656C208.006 51.0312 208.491 51.1641 209.079 51.1641ZM217.524 53V41H227.657V53H224.931V43.3203H220.228V53H217.524ZM231.894 57.5C231.508 57.5 231.151 57.4688 230.823 57.4063C230.5 57.349 230.243 57.2813 230.05 57.2031L230.706 55C231.118 55.1198 231.485 55.1771 231.808 55.1719C232.131 55.1667 232.414 55.0651 232.659 54.8672C232.909 54.6745 233.12 54.3516 233.292 53.8984L233.534 53.25L229.183 41H232.183L234.948 50.0625H235.073L237.847 41H240.854L236.05 54.4531C235.826 55.0885 235.529 55.6328 235.159 56.0859C234.789 56.5443 234.336 56.8932 233.8 57.1328C233.269 57.3776 232.633 57.5 231.894 57.5Z" fill="white"/>
</g>
<defs>
<filter id="filter0_d_344_218" x="26.5791" y="8.875" width="217.275" height="51.625" filterUnits="userSpaceOnUse" color-interpolation-filters="sRGB">
<feFlood flood-opacity="0" result="BackgroundImageFix"/>
<feColorMatrix in="SourceAlpha" type="matrix" values="0 0 0 0 0 0 0 0 0 0 0 0 0 0 0 0 0 0 127 0" result="hardAlpha"/>
<feOffset/>
<feGaussianBlur stdDeviation="1.5"/>
<feComposite in2="hardAlpha" operator="out"/>
<feColorMatrix type="matrix" values="0 0 0 0 0 0 0 0 0 0 0 0 0 0 0 0 0 0 0.3 0"/>
<feBlend mode="normal" in2="BackgroundImageFix" result="effect1_dropShadow_344_218"/>
<feBlend mode="normal" in="SourceGraphic" in2="effect1_dropShadow_344_218" result="shape"/>
</filter>
</defs>
</svg>
