<svg width="270" height="68" viewBox="0 0 270 68" fill="none" xmlns="http://www.w3.org/2000/svg">
<rect width="270" height="68" rx="8" fill="url(#paint0_linear_344_221)"/>
<g filter="url(#filter0_d_344_221)">
<path d="M93.4189 13V29H90.5439V15.4062H83.5439V29H80.6689V13H93.4189ZM102.073 29.2344C100.87 29.2344 99.8311 28.9844 98.9561 28.4844C98.0863 27.9792 97.417 27.2656 96.9482 26.3437C96.4795 25.4167 96.2451 24.3255 96.2451 23.0703C96.2451 21.8359 96.4795 20.7526 96.9482 19.8203C97.4222 18.8828 98.0837 18.1536 98.9326 17.6328C99.7816 17.1068 100.779 16.8438 101.925 16.8438C102.664 16.8438 103.362 16.9635 104.019 17.2031C104.68 17.4375 105.263 17.8021 105.769 18.2969C106.279 18.7917 106.68 19.4219 106.972 20.1875C107.263 20.9479 107.409 21.8542 107.409 22.9062V23.7734H97.5732V21.8672H104.698C104.693 21.3255 104.576 20.8437 104.347 20.4219C104.118 19.9948 103.797 19.6589 103.386 19.4141C102.979 19.1693 102.506 19.0469 101.964 19.0469C101.386 19.0469 100.878 19.1875 100.44 19.4687C100.003 19.7448 99.6618 20.1094 99.417 20.5625C99.1774 21.0104 99.055 21.5026 99.0498 22.0391V23.7031C99.0498 24.401 99.1774 25 99.4326 25.5C99.6878 25.9948 100.045 26.375 100.503 26.6406C100.961 26.901 101.498 27.0312 102.112 27.0312C102.524 27.0312 102.896 26.974 103.229 26.8594C103.563 26.7396 103.852 26.5651 104.097 26.3359C104.341 26.1068 104.526 25.8229 104.651 25.4844L107.292 25.7812C107.125 26.4792 106.808 27.0885 106.339 27.6094C105.875 28.125 105.282 28.526 104.558 28.8125C103.834 29.0937 103.006 29.2344 102.073 29.2344ZM109.802 33.5V17H112.583V18.9844H112.747C112.893 18.6927 113.099 18.3828 113.364 18.0547C113.63 17.7214 113.989 17.4375 114.442 17.2031C114.896 16.9635 115.474 16.8438 116.177 16.8438C117.104 16.8438 117.94 17.0807 118.685 17.5547C119.435 18.0234 120.028 18.7187 120.466 19.6406C120.909 20.5573 121.13 21.6823 121.13 23.0156C121.13 24.3333 120.914 25.4531 120.481 26.375C120.049 27.2969 119.461 28 118.716 28.4844C117.971 28.9688 117.127 29.2109 116.185 29.2109C115.497 29.2109 114.927 29.0964 114.474 28.8672C114.021 28.638 113.656 28.362 113.38 28.0391C113.109 27.7109 112.898 27.401 112.747 27.1094H112.63V33.5H109.802ZM112.575 23C112.575 23.776 112.685 24.4557 112.903 25.0391C113.127 25.6224 113.448 26.0781 113.864 26.4062C114.286 26.7292 114.797 26.8906 115.396 26.8906C116.021 26.8906 116.544 26.724 116.966 26.3906C117.388 26.0521 117.705 25.5911 117.919 25.0078C118.138 24.4193 118.247 23.75 118.247 23C118.247 22.2552 118.14 21.5937 117.927 21.0156C117.713 20.4375 117.396 19.9844 116.974 19.6562C116.552 19.3281 116.026 19.1641 115.396 19.1641C114.791 19.1641 114.278 19.3229 113.856 19.6406C113.435 19.9583 113.114 20.4036 112.896 20.9766C112.682 21.5495 112.575 22.224 112.575 23ZM128.864 29.2344C127.661 29.2344 126.622 28.9844 125.747 28.4844C124.877 27.9792 124.208 27.2656 123.739 26.3437C123.271 25.4167 123.036 24.3255 123.036 23.0703C123.036 21.8359 123.271 20.7526 123.739 19.8203C124.213 18.8828 124.875 18.1536 125.724 17.6328C126.573 17.1068 127.57 16.8438 128.716 16.8438C129.455 16.8438 130.153 16.9635 130.81 17.2031C131.471 17.4375 132.054 17.8021 132.56 18.2969C133.07 18.7917 133.471 19.4219 133.763 20.1875C134.054 20.9479 134.2 21.8542 134.2 22.9062V23.7734H124.364V21.8672H131.489C131.484 21.3255 131.367 20.8437 131.138 20.4219C130.909 19.9948 130.588 19.6589 130.177 19.4141C129.771 19.1693 129.297 19.0469 128.755 19.0469C128.177 19.0469 127.669 19.1875 127.231 19.4687C126.794 19.7448 126.453 20.1094 126.208 20.5625C125.968 21.0104 125.846 21.5026 125.841 22.0391V23.7031C125.841 24.401 125.968 25 126.224 25.5C126.479 25.9948 126.836 26.375 127.294 26.6406C127.752 26.901 128.289 27.0312 128.903 27.0312C129.315 27.0312 129.687 26.974 130.021 26.8594C130.354 26.7396 130.643 26.5651 130.888 26.3359C131.132 26.1068 131.317 25.8229 131.442 25.4844L134.083 25.7812C133.916 26.4792 133.599 27.0885 133.13 27.6094C132.666 28.125 132.073 28.526 131.349 28.8125C130.625 29.0937 129.797 29.2344 128.864 29.2344ZM139.319 25.1719L144.124 17H147.03V29H144.296V20.8203L139.507 29H136.593V17H139.319V25.1719ZM143.351 12.875H145.468C145.468 13.7865 145.137 14.526 144.476 15.0937C143.819 15.6562 142.929 15.9375 141.804 15.9375C140.689 15.9375 139.801 15.6562 139.14 15.0937C138.483 14.526 138.158 13.7865 138.163 12.875H140.265C140.265 13.25 140.379 13.5859 140.608 13.8828C140.843 14.1745 141.241 14.3203 141.804 14.3203C142.356 14.3203 142.749 14.1745 142.983 13.8828C143.223 13.5911 143.345 13.2552 143.351 12.875ZM148.591 19.3203V17H159.091V19.3203H155.208V29H152.474V19.3203H148.591ZM164.069 25.1719L168.874 17H171.78V29H169.046V20.8203L164.257 29H161.343V17H164.069V25.1719ZM180.142 29V17H182.97V21.8437H184.001L187.61 17H191.017L186.571 22.8906L191.063 29H187.642L184.353 24.4766H182.97V29H180.142ZM35.3291 54.2344C34.1312 54.2344 33.1025 53.9714 32.2432 53.4453C31.389 52.9193 30.7301 52.1927 30.2666 51.2656C29.8083 50.3333 29.5791 49.2604 29.5791 48.0469C29.5791 46.8281 29.8135 45.7526 30.2822 44.8203C30.751 43.8828 31.4124 43.1536 32.2666 42.6328C33.126 42.1068 34.1416 41.8438 35.3135 41.8438C36.2874 41.8438 37.1494 42.0234 37.8994 42.3828C38.6546 42.737 39.2562 43.2396 39.7041 43.8906C40.152 44.5365 40.4072 45.2917 40.4697 46.1562H37.7666C37.6572 45.5781 37.3968 45.0964 36.9854 44.7109C36.5791 44.3203 36.0348 44.125 35.3525 44.125C34.7744 44.125 34.2666 44.2812 33.8291 44.5937C33.3916 44.901 33.0505 45.3437 32.8057 45.9219C32.5661 46.5 32.4463 47.1927 32.4463 48C32.4463 48.8177 32.5661 49.5208 32.8057 50.1094C33.0452 50.6927 33.3812 51.1432 33.8135 51.4609C34.251 51.7734 34.764 51.9297 35.3525 51.9297C35.7692 51.9297 36.1416 51.8516 36.4697 51.6953C36.8031 51.5339 37.0817 51.3021 37.3057 51C37.5296 50.6979 37.6833 50.3307 37.7666 49.8984H40.4697C40.402 50.7474 40.152 51.5 39.7197 52.1562C39.2874 52.8073 38.6989 53.3177 37.9541 53.6875C37.2093 54.0521 36.3343 54.2344 35.3291 54.2344ZM41.9639 54L41.9482 51.6719H42.3623C42.6748 51.6719 42.9378 51.6016 43.1514 51.4609C43.3649 51.3203 43.542 51.0859 43.6826 50.7578C43.8232 50.4245 43.9326 49.9766 44.0107 49.4141C44.0889 48.8516 44.1436 48.151 44.1748 47.3125L44.3857 42H53.1357V54H50.4014V44.3203H46.9561L46.7686 48.1875C46.7217 49.1875 46.6097 50.0547 46.4326 50.7891C46.2607 51.5182 46.016 52.1198 45.6982 52.5938C45.3857 53.0677 44.9925 53.4219 44.5186 53.6562C44.0446 53.8854 43.4847 54 42.8389 54H41.9639ZM61.2959 54.2344C60.0928 54.2344 59.0537 53.9844 58.1787 53.4844C57.3089 52.9792 56.6396 52.2656 56.1709 51.3437C55.7021 50.4167 55.4678 49.3255 55.4678 48.0703C55.4678 46.8359 55.7021 45.7526 56.1709 44.8203C56.6449 43.8828 57.3063 43.1536 58.1553 42.6328C59.0042 42.1068 60.0016 41.8438 61.1475 41.8438C61.887 41.8438 62.585 41.9635 63.2412 42.2031C63.9027 42.4375 64.486 42.8021 64.9912 43.2969C65.5016 43.7917 65.9027 44.4219 66.1943 45.1875C66.486 45.9479 66.6318 46.8542 66.6318 47.9062V48.7734H56.7959V46.8672H63.9209C63.9157 46.3255 63.7985 45.8437 63.5693 45.4219C63.3402 44.9948 63.0199 44.6589 62.6084 44.4141C62.2021 44.1693 61.7282 44.0469 61.1865 44.0469C60.6084 44.0469 60.1006 44.1875 59.6631 44.4687C59.2256 44.7448 58.8844 45.1094 58.6396 45.5625C58.4001 46.0104 58.2777 46.5026 58.2725 47.0391V48.7031C58.2725 49.401 58.4001 50 58.6553 50.5C58.9105 50.9948 59.2673 51.375 59.7256 51.6406C60.1839 51.901 60.7204 52.0312 61.335 52.0312C61.7464 52.0312 62.1188 51.974 62.4521 51.8594C62.7855 51.7396 63.0745 51.5651 63.3193 51.3359C63.5641 51.1068 63.749 50.8229 63.874 50.4844L66.5146 50.7812C66.348 51.4792 66.0303 52.0885 65.5615 52.6094C65.098 53.125 64.5042 53.526 63.7803 53.8125C63.0563 54.0937 62.2282 54.2344 61.2959 54.2344ZM67.9619 57.4844V51.6719H68.915C69.1702 51.474 69.3838 51.2057 69.5557 50.8672C69.7275 50.5234 69.8682 50.1198 69.9775 49.6562C70.0921 49.1875 70.1859 48.6641 70.2588 48.0859C70.3317 47.5026 70.3968 46.875 70.4541 46.2031L70.7979 42H79.4697V51.6719H81.3291V57.4844H78.5947V54H70.7432V57.4844H67.9619ZM71.8213 51.6719H76.7666V44.2812H73.251L73.0635 46.2031C72.9593 47.474 72.8213 48.5625 72.6494 49.4687C72.4775 50.375 72.2015 51.1094 71.8213 51.6719ZM85.1982 58.5C84.8128 58.5 84.4561 58.4688 84.1279 58.4063C83.805 58.349 83.5472 58.2813 83.3545 58.2031L84.0107 56C84.4222 56.1198 84.7894 56.1771 85.1123 56.1719C85.4352 56.1667 85.7191 56.0651 85.9639 55.8672C86.2139 55.6745 86.4248 55.3516 86.5967 54.8984L86.8389 54.25L82.4873 42H85.4873L88.2529 51.0625H88.3779L91.1514 42H94.1592L89.3545 55.4531C89.1305 56.0885 88.8337 56.6328 88.4639 57.0859C88.0941 57.5443 87.641 57.8932 87.1045 58.1328C86.5732 58.3776 85.9378 58.5 85.1982 58.5ZM102.452 46.9141V49.2422H95.9912V46.9141H102.452ZM98.2334 42V54H95.3975V42H98.2334ZM106.077 54.2344C104.921 54.2344 103.918 53.9714 103.069 53.4453C102.226 52.9193 101.572 52.1901 101.108 51.2578C100.645 50.3255 100.413 49.2474 100.413 48.0234C100.413 46.7995 100.645 45.724 101.108 44.7969C101.572 43.8698 102.226 43.1458 103.069 42.625C103.918 42.1042 104.921 41.8438 106.077 41.8438C107.228 41.8438 108.226 42.1042 109.069 42.625C109.918 43.1458 110.575 43.8698 111.038 44.7969C111.507 45.724 111.741 46.7995 111.741 48.0234C111.741 49.2474 111.507 50.3255 111.038 51.2578C110.575 52.1901 109.918 52.9193 109.069 53.4453C108.226 53.9714 107.228 54.2344 106.077 54.2344ZM106.077 51.8906C106.759 51.8906 107.317 51.7187 107.749 51.375C108.181 51.0312 108.499 50.5677 108.702 49.9844C108.905 49.401 109.007 48.7474 109.007 48.0234C109.007 47.2995 108.905 46.6458 108.702 46.0625C108.499 45.4792 108.181 45.0182 107.749 44.6797C107.317 44.3359 106.759 44.1641 106.077 44.1641C105.39 44.1641 104.827 44.3359 104.39 44.6797C103.957 45.0182 103.64 45.4792 103.437 46.0625C103.233 46.6458 103.132 47.2995 103.132 48.0234C103.132 48.7526 103.233 49.4089 103.437 49.9922C103.64 50.5755 103.957 51.0391 104.39 51.3828C104.827 51.7214 105.39 51.8906 106.077 51.8906ZM132.272 51.6797L132.038 57.4375H129.374V54H127.96V51.6797H132.272ZM114.249 42H116.976V51.6719H120.749V42H123.476V51.6719H127.249V42H129.976V54H114.249V42ZM139.692 54.2344C138.489 54.2344 137.45 53.9844 136.575 53.4844C135.705 52.9792 135.036 52.2656 134.567 51.3437C134.099 50.4167 133.864 49.3255 133.864 48.0703C133.864 46.8359 134.099 45.7526 134.567 44.8203C135.041 43.8828 135.703 43.1536 136.552 42.6328C137.401 42.1068 138.398 41.8438 139.544 41.8438C140.284 41.8438 140.981 41.9635 141.638 42.2031C142.299 42.4375 142.882 42.8021 143.388 43.2969C143.898 43.7917 144.299 44.4219 144.591 45.1875C144.882 45.9479 145.028 46.8542 145.028 47.9062V48.7734H135.192V46.8672H142.317C142.312 46.3255 142.195 45.8437 141.966 45.4219C141.737 44.9948 141.416 44.6589 141.005 44.4141C140.599 44.1693 140.125 44.0469 139.583 44.0469C139.005 44.0469 138.497 44.1875 138.06 44.4687C137.622 44.7448 137.281 45.1094 137.036 45.5625C136.797 46.0104 136.674 46.5026 136.669 47.0391V48.7031C136.669 49.401 136.797 50 137.052 50.5C137.307 50.9948 137.664 51.375 138.122 51.6406C138.58 51.901 139.117 52.0312 139.731 52.0312C140.143 52.0312 140.515 51.974 140.849 51.8594C141.182 51.7396 141.471 51.5651 141.716 51.3359C141.961 51.1068 142.146 50.8229 142.271 50.4844L144.911 50.7812C144.744 51.4792 144.427 52.0885 143.958 52.6094C143.494 53.125 142.901 53.526 142.177 53.8125C141.453 54.0937 140.625 54.2344 139.692 54.2344ZM154.327 50.7109L157.89 42H160.171L155.319 54H153.343L148.601 42H150.858L154.327 50.7109ZM150.147 42V54H147.421V42H150.147ZM158.624 54V42H161.327V54H158.624ZM165.507 58.5C165.121 58.5 164.765 58.4688 164.437 58.4063C164.114 58.349 163.856 58.2813 163.663 58.2031L164.319 56C164.731 56.1198 165.098 56.1771 165.421 56.1719C165.744 56.1667 166.028 56.0651 166.272 55.8672C166.522 55.6745 166.733 55.3516 166.905 54.8984L167.147 54.25L162.796 42H165.796L168.562 51.0625H168.687L171.46 42H174.468L169.663 55.4531C169.439 56.0885 169.142 56.6328 168.772 57.0859C168.403 57.5443 167.95 57.8932 167.413 58.1328C166.882 58.3776 166.246 58.5 165.507 58.5ZM186.163 44.1719C185.767 44.1771 185.403 44.263 185.069 44.4297C184.736 44.5964 184.468 44.8229 184.265 45.1094C184.067 45.3906 183.968 45.7187 183.968 46.0938H181.366C181.366 45.4896 181.491 44.9271 181.741 44.4062C181.991 43.8854 182.335 43.4323 182.772 43.0469C183.215 42.6615 183.726 42.362 184.304 42.1484C184.887 41.9297 185.507 41.8203 186.163 41.8203C187.33 41.8203 188.314 42.0911 189.116 42.6328C189.924 43.1745 190.533 43.9036 190.944 44.8203C191.361 45.7318 191.569 46.7422 191.569 47.8516V48.1875C191.569 49.2969 191.364 50.3099 190.952 51.2266C190.541 52.138 189.931 52.8646 189.124 53.4062C188.322 53.9479 187.335 54.2187 186.163 54.2187C185.226 54.2187 184.395 54.0286 183.671 53.6484C182.952 53.263 182.387 52.7266 181.976 52.0391C181.569 51.3516 181.366 50.5495 181.366 49.6328H183.968C183.968 50.0286 184.062 50.3958 184.249 50.7344C184.437 51.0677 184.694 51.3359 185.022 51.5391C185.356 51.7422 185.736 51.8464 186.163 51.8516C186.804 51.8464 187.319 51.6562 187.71 51.2812C188.106 50.9062 188.392 50.4375 188.569 49.875C188.752 49.3125 188.843 48.75 188.843 48.1875V47.8516C188.843 47.2474 188.752 46.6667 188.569 46.1094C188.392 45.5469 188.106 45.0859 187.71 44.7266C187.319 44.362 186.804 44.1771 186.163 44.1719ZM189.726 47.0469V48.9219H185.155V47.0469H189.726ZM192.634 44.3203V42H203.134V44.3203H199.251V54H196.517V44.3203H192.634ZM208.345 54.2422C207.584 54.2422 206.899 54.1068 206.29 53.8359C205.686 53.5599 205.207 53.1536 204.853 52.6172C204.504 52.0807 204.329 51.4193 204.329 50.6328C204.329 49.9557 204.454 49.3958 204.704 48.9531C204.954 48.5104 205.295 48.1562 205.728 47.8906C206.16 47.625 206.647 47.4245 207.188 47.2891C207.735 47.1484 208.3 47.0469 208.884 46.9844C209.587 46.9115 210.157 46.8464 210.595 46.7891C211.032 46.7266 211.35 46.6328 211.548 46.5078C211.751 46.3776 211.853 46.1771 211.853 45.9062V45.8594C211.853 45.2708 211.678 44.8151 211.329 44.4922C210.98 44.1693 210.478 44.0078 209.821 44.0078C209.129 44.0078 208.579 44.1589 208.173 44.4609C207.772 44.763 207.501 45.1198 207.36 45.5312L204.72 45.1562C204.928 44.4271 205.272 43.8177 205.751 43.3281C206.23 42.8333 206.816 42.4635 207.509 42.2187C208.201 41.9688 208.967 41.8438 209.806 41.8438C210.384 41.8438 210.959 41.9115 211.532 42.0469C212.105 42.1823 212.629 42.4062 213.103 42.7187C213.576 43.026 213.957 43.4453 214.243 43.9766C214.535 44.5078 214.681 45.1719 214.681 45.9687V54H211.962V52.3516H211.868C211.696 52.6849 211.454 52.9974 211.142 53.2891C210.834 53.5755 210.446 53.8073 209.978 53.9844C209.514 54.1563 208.97 54.2422 208.345 54.2422ZM209.079 52.1641C209.647 52.1641 210.139 52.0521 210.556 51.8281C210.972 51.599 211.293 51.2969 211.517 50.9219C211.746 50.5469 211.86 50.138 211.86 49.6953V48.2812C211.772 48.3542 211.621 48.4219 211.407 48.4844C211.199 48.5469 210.965 48.6016 210.704 48.6484C210.444 48.6953 210.186 48.737 209.931 48.7734C209.675 48.8099 209.454 48.8411 209.267 48.8672C208.845 48.9245 208.467 49.0182 208.134 49.1484C207.8 49.2786 207.537 49.4609 207.345 49.6953C207.152 49.9245 207.056 50.2214 207.056 50.5859C207.056 51.1068 207.246 51.5 207.626 51.7656C208.006 52.0312 208.491 52.1641 209.079 52.1641ZM217.524 54V42H227.657V54H224.931V44.3203H220.228V54H217.524ZM231.894 58.5C231.508 58.5 231.151 58.4688 230.823 58.4063C230.5 58.349 230.243 58.2813 230.05 58.2031L230.706 56C231.118 56.1198 231.485 56.1771 231.808 56.1719C232.131 56.1667 232.414 56.0651 232.659 55.8672C232.909 55.6745 233.12 55.3516 233.292 54.8984L233.534 54.25L229.183 42H232.183L234.948 51.0625H235.073L237.847 42H240.854L236.05 55.4531C235.826 56.0885 235.529 56.6328 235.159 57.0859C234.789 57.5443 234.336 57.8932 233.8 58.1328C233.269 58.3776 232.633 58.5 231.894 58.5Z" fill="white"/>
</g>
<defs>
<filter id="filter0_d_344_221" x="26.5791" y="9.875" width="217.275" height="51.625" filterUnits="userSpaceOnUse" color-interpolation-filters="sRGB">
<feFlood flood-opacity="0" result="BackgroundImageFix"/>
<feColorMatrix in="SourceAlpha" type="matrix" values="0 0 0 0 0 0 0 0 0 0 0 0 0 0 0 0 0 0 127 0" result="hardAlpha"/>
<feOffset/>
<feGaussianBlur stdDeviation="1.5"/>
<feComposite in2="hardAlpha" operator="out"/>
<feColorMatrix type="matrix" values="0 0 0 0 0 0 0 0 0 0 0 0 0 0 0 0 0 0 0.3 0"/>
<feBlend mode="normal" in2="BackgroundImageFix" result="effect1_dropShadow_344_221"/>
<feBlend mode="normal" in="SourceGraphic" in2="effect1_dropShadow_344_221" result="shape"/>
</filter>
<linearGradient id="paint0_linear_344_221" x1="0.912277" y1="-0.193456" x2="20.6817" y2="112.044" gradientUnits="userSpaceOnUse">
<stop stop-color="#23A3F9"/>
<stop offset="1" stop-color="#0744E2"/>
</linearGradient>
</defs>
</svg>
