<svg width="167" height="68" viewBox="0 0 167 68" fill="none" xmlns="http://www.w3.org/2000/svg">
<rect width="167" height="68" rx="14" fill="#438FF4"/>
<g filter="url(#filter0_d_344_137)">
<path d="M83.7939 34C83.7939 35.724 83.471 37.2005 82.8252 38.4297C82.1846 39.6536 81.3096 40.5911 80.2002 41.2422C79.096 41.8932 77.8434 42.2187 76.4424 42.2187C75.0413 42.2187 73.7861 41.8932 72.6768 41.2422C71.5726 40.5859 70.6976 39.6458 70.0518 38.4219C69.4111 37.1927 69.0908 35.7187 69.0908 34C69.0908 32.276 69.4111 30.8021 70.0518 29.5781C70.6976 28.349 71.5726 27.4089 72.6768 26.7578C73.7861 26.1068 75.0413 25.7812 76.4424 25.7812C77.8434 25.7812 79.096 26.1068 80.2002 26.7578C81.3096 27.4089 82.1846 28.349 82.8252 29.5781C83.471 30.8021 83.7939 32.276 83.7939 34ZM80.8799 34C80.8799 32.7865 80.6898 31.763 80.3096 30.9297C79.9346 30.0911 79.4137 29.4583 78.7471 29.0313C78.0804 28.599 77.3122 28.3828 76.4424 28.3828C75.5726 28.3828 74.8044 28.599 74.1377 29.0313C73.471 29.4583 72.9476 30.0911 72.5674 30.9297C72.1924 31.763 72.0049 32.7865 72.0049 34C72.0049 35.2135 72.1924 36.2396 72.5674 37.0781C72.9476 37.9115 73.471 38.5443 74.1377 38.9766C74.8044 39.4036 75.5726 39.6172 76.4424 39.6172C77.3122 39.6172 78.0804 39.4036 78.7471 38.9766C79.4137 38.5443 79.9346 37.9115 80.3096 37.0781C80.6898 36.2396 80.8799 35.2135 80.8799 34ZM96.1201 42L90.8545 35.0078H89.4326V42H86.5342V26H89.4326V32.5781H90.1592L95.8467 26H99.417L93.0967 33.2969L99.6904 42H96.1201Z" fill="white"/>
</g>
<defs>
<filter id="filter0_d_344_137" x="66.0908" y="22.7812" width="36.5996" height="22.4375" filterUnits="userSpaceOnUse" color-interpolation-filters="sRGB">
<feFlood flood-opacity="0" result="BackgroundImageFix"/>
<feColorMatrix in="SourceAlpha" type="matrix" values="0 0 0 0 0 0 0 0 0 0 0 0 0 0 0 0 0 0 127 0" result="hardAlpha"/>
<feOffset/>
<feGaussianBlur stdDeviation="1.5"/>
<feComposite in2="hardAlpha" operator="out"/>
<feColorMatrix type="matrix" values="0 0 0 0 0 0 0 0 0 0 0 0 0 0 0 0 0 0 0.3 0"/>
<feBlend mode="normal" in2="BackgroundImageFix" result="effect1_dropShadow_344_137"/>
<feBlend mode="normal" in="SourceGraphic" in2="effect1_dropShadow_344_137" result="shape"/>
</filter>
</defs>
</svg>
