<svg width="270" height="68" viewBox="0 0 270 68" fill="none" xmlns="http://www.w3.org/2000/svg">
<rect width="270" height="68" rx="8" fill="white"/>
<path d="M84.7071 26V42H81.8321V28.4062H74.8321V42H71.9571V26H84.7071ZM91.502 42.2422C90.7416 42.2422 90.0567 42.1068 89.4474 41.8359C88.8432 41.5599 88.364 41.1536 88.0099 40.6172C87.6609 40.0807 87.4864 39.4193 87.4864 38.6328C87.4864 37.9557 87.6114 37.3958 87.8614 36.9531C88.1114 36.5104 88.4526 36.1562 88.8849 35.8906C89.3171 35.625 89.8041 35.4245 90.3458 35.2891C90.8927 35.1484 91.4578 35.0469 92.0411 34.9844C92.7442 34.9115 93.3145 34.8464 93.752 34.7891C94.1895 34.7266 94.5073 34.6328 94.7052 34.5078C94.9083 34.3776 95.0099 34.1771 95.0099 33.9062V33.8594C95.0099 33.2708 94.8354 32.8151 94.4864 32.4922C94.1375 32.1693 93.6349 32.0078 92.9786 32.0078C92.2859 32.0078 91.7364 32.1589 91.3302 32.4609C90.9291 32.763 90.6583 33.1198 90.5177 33.5312L87.877 33.1562C88.0854 32.4271 88.4291 31.8177 88.9083 31.3281C89.3875 30.8333 89.9734 30.4635 90.6661 30.2187C91.3588 29.9688 92.1244 29.8438 92.963 29.8438C93.5411 29.8438 94.1166 29.9115 94.6895 30.0469C95.2625 30.1823 95.7859 30.4062 96.2599 30.7187C96.7338 31.026 97.114 31.4453 97.4005 31.9766C97.6921 32.5078 97.838 33.1719 97.838 33.9687V42H95.1192V40.3516H95.0255C94.8536 40.6849 94.6114 40.9974 94.2989 41.2891C93.9916 41.5755 93.6036 41.8073 93.1349 41.9844C92.6713 42.1563 92.127 42.2422 91.502 42.2422ZM92.2364 40.1641C92.8041 40.1641 93.2963 40.0521 93.713 39.8281C94.1296 39.599 94.45 39.2969 94.6739 38.9219C94.9031 38.5469 95.0177 38.138 95.0177 37.6953V36.2812C94.9291 36.3542 94.7781 36.4219 94.5645 36.4844C94.3562 36.5469 94.1218 36.6016 93.8614 36.6484C93.601 36.6953 93.3432 36.737 93.088 36.7734C92.8328 36.8099 92.6114 36.8411 92.4239 36.8672C92.002 36.9245 91.6244 37.0182 91.2911 37.1484C90.9578 37.2786 90.6948 37.4609 90.502 37.6953C90.3093 37.9245 90.213 38.2214 90.213 38.5859C90.213 39.1068 90.4031 39.5 90.7833 39.7656C91.1635 40.0312 91.6479 40.1641 92.2364 40.1641ZM105.916 42.2344C104.718 42.2344 103.69 41.9714 102.83 41.4453C101.976 40.9193 101.317 40.1927 100.854 39.2656C100.395 38.3333 100.166 37.2604 100.166 36.0469C100.166 34.8281 100.4 33.7526 100.869 32.8203C101.338 31.8828 101.999 31.1536 102.854 30.6328C103.713 30.1068 104.729 29.8438 105.9 29.8438C106.874 29.8438 107.736 30.0234 108.486 30.3828C109.242 30.737 109.843 31.2396 110.291 31.8906C110.739 32.5365 110.994 33.2917 111.057 34.1562H108.354C108.244 33.5781 107.984 33.0964 107.572 32.7109C107.166 32.3203 106.622 32.125 105.94 32.125C105.361 32.125 104.854 32.2812 104.416 32.5937C103.979 32.901 103.637 33.3437 103.393 33.9219C103.153 34.5 103.033 35.1927 103.033 36C103.033 36.8177 103.153 37.5208 103.393 38.1094C103.632 38.6927 103.968 39.1432 104.4 39.4609C104.838 39.7734 105.351 39.9297 105.94 39.9297C106.356 39.9297 106.729 39.8516 107.057 39.6953C107.39 39.5339 107.669 39.3021 107.893 39C108.117 38.6979 108.27 38.3307 108.354 37.8984H111.057C110.989 38.7474 110.739 39.5 110.307 40.1562C109.874 40.8073 109.286 41.3177 108.541 41.6875C107.796 42.0521 106.921 42.2344 105.916 42.2344ZM113.379 42V30H123.512V42H120.785V32.3203H116.082V42H113.379ZM131.654 42.2344C130.483 42.2344 129.467 41.9766 128.608 41.4609C127.748 40.9453 127.081 40.224 126.608 39.2969C126.139 38.3698 125.904 37.2865 125.904 36.0469C125.904 34.8073 126.139 33.7214 126.608 32.7891C127.081 31.8568 127.748 31.1328 128.608 30.6172C129.467 30.1016 130.483 29.8438 131.654 29.8438C132.826 29.8438 133.842 30.1016 134.701 30.6172C135.561 31.1328 136.225 31.8568 136.693 32.7891C137.167 33.7214 137.404 34.8073 137.404 36.0469C137.404 37.2865 137.167 38.3698 136.693 39.2969C136.225 40.224 135.561 40.9453 134.701 41.4609C133.842 41.9766 132.826 42.2344 131.654 42.2344ZM131.67 39.9687C132.305 39.9687 132.837 39.7943 133.264 39.4453C133.691 39.0911 134.009 38.6172 134.217 38.0234C134.43 37.4297 134.537 36.7682 134.537 36.0391C134.537 35.3047 134.43 34.6406 134.217 34.0469C134.009 33.4479 133.691 32.9714 133.264 32.6172C132.837 32.263 132.305 32.0859 131.67 32.0859C131.019 32.0859 130.477 32.263 130.045 32.6172C129.618 32.9714 129.298 33.4479 129.084 34.0469C128.876 34.6406 128.772 35.3047 128.772 36.0391C128.772 36.7682 128.876 37.4297 129.084 38.0234C129.298 38.6172 129.618 39.0911 130.045 39.4453C130.477 39.7943 131.019 39.9687 131.67 39.9687ZM139.805 46.5V30H142.586V31.9844H142.75C142.896 31.6927 143.102 31.3828 143.367 31.0547C143.633 30.7214 143.992 30.4375 144.445 30.2031C144.899 29.9635 145.477 29.8438 146.18 29.8438C147.107 29.8438 147.943 30.0807 148.688 30.5547C149.438 31.0234 150.031 31.7187 150.469 32.6406C150.912 33.5573 151.133 34.6823 151.133 36.0156C151.133 37.3333 150.917 38.4531 150.484 39.375C150.052 40.2969 149.464 41 148.719 41.4844C147.974 41.9688 147.13 42.2109 146.188 42.2109C145.5 42.2109 144.93 42.0964 144.477 41.8672C144.024 41.638 143.659 41.362 143.383 41.0391C143.112 40.7109 142.901 40.401 142.75 40.1094H142.633V46.5H139.805ZM142.578 36C142.578 36.776 142.688 37.4557 142.906 38.0391C143.13 38.6224 143.451 39.0781 143.867 39.4062C144.289 39.7292 144.8 39.8906 145.399 39.8906C146.024 39.8906 146.547 39.724 146.969 39.3906C147.391 39.0521 147.708 38.5911 147.922 38.0078C148.141 37.4193 148.25 36.75 148.25 36C148.25 35.2552 148.143 34.5937 147.93 34.0156C147.716 33.4375 147.399 32.9844 146.977 32.6562C146.555 32.3281 146.029 32.1641 145.399 32.1641C144.794 32.1641 144.281 32.3229 143.859 32.6406C143.438 32.9583 143.117 33.4036 142.899 33.9766C142.685 34.5495 142.578 35.224 142.578 36ZM152.233 32.3203V30H162.733V32.3203H158.85V42H156.115V32.3203H152.233ZM183.621 26V42H180.746V28.4062H173.746V42H170.871V26H183.621ZM188.518 42.2187V39.7812H189.432C189.843 39.7812 190.182 39.7214 190.447 39.6016C190.713 39.4818 190.927 39.3099 191.088 39.0859C191.255 38.862 191.393 38.6016 191.502 38.3047L191.713 37.7656L185.994 26H189.025L193.01 34.5625L196.455 26H199.44L193.924 39.0469C193.669 39.6094 193.374 40.1328 193.041 40.6172C192.708 41.0964 192.273 41.4844 191.736 41.7813C191.205 42.0729 190.512 42.2187 189.658 42.2187H188.518Z" fill="#313F52"/>
</svg>
