<svg width="270" height="68" viewBox="0 0 270 68" fill="none" xmlns="http://www.w3.org/2000/svg">
<rect width="270" height="68" rx="8" fill="#C0C0C0"/>
<path d="M65.003 30V14H71.003C72.2322 14 73.2634 14.2292 74.0968 14.6875C74.9353 15.1458 75.5681 15.776 75.9952 16.5781C76.4275 17.375 76.6436 18.2812 76.6436 19.2969C76.6436 20.3229 76.4275 21.2344 75.9952 22.0313C75.5629 22.8281 74.9249 23.4557 74.0811 23.9141C73.2374 24.3672 72.1983 24.5937 70.964 24.5937H66.9874V22.2109H70.5733C71.2921 22.2109 71.8806 22.0859 72.339 21.8359C72.7973 21.5859 73.1358 21.2422 73.3546 20.8047C73.5785 20.3672 73.6905 19.8646 73.6905 19.2969C73.6905 18.7292 73.5785 18.2292 73.3546 17.7969C73.1358 17.3646 72.7947 17.0286 72.3311 16.7891C71.8728 16.5443 71.2817 16.4219 70.5577 16.4219H67.9015V30H65.003ZM80.794 34.5C80.4086 34.5 80.0518 34.4688 79.7237 34.4063C79.4008 34.349 79.143 34.2813 78.9503 34.2031L79.6065 32C80.018 32.1198 80.3852 32.1771 80.7081 32.1719C81.031 32.1667 81.3149 32.0651 81.5597 31.8672C81.8097 31.6745 82.0206 31.3516 82.1925 30.8984L82.4347 30.25L78.0831 18H81.0831L83.8487 27.0625H83.9737L86.7472 18H89.755L84.9503 31.4531C84.7263 32.0885 84.4295 32.6328 84.0597 33.0859C83.6899 33.5443 83.2367 33.8932 82.7003 34.1328C82.169 34.3776 81.5336 34.5 80.794 34.5ZM91.712 30V18H94.5401V22.8437H95.5714L99.1808 18H102.587L98.1417 23.8906L102.634 30H99.212L95.9229 25.4766H94.5401V30H91.712ZM108.978 30.2344C107.806 30.2344 106.79 29.9766 105.931 29.4609C105.071 28.9453 104.405 28.224 103.931 27.2969C103.462 26.3698 103.228 25.2865 103.228 24.0469C103.228 22.8073 103.462 21.7214 103.931 20.7891C104.405 19.8568 105.071 19.1328 105.931 18.6172C106.79 18.1016 107.806 17.8438 108.978 17.8438C110.15 17.8438 111.165 18.1016 112.025 18.6172C112.884 19.1328 113.548 19.8568 114.017 20.7891C114.491 21.7214 114.728 22.8073 114.728 24.0469C114.728 25.2865 114.491 26.3698 114.017 27.2969C113.548 28.224 112.884 28.9453 112.025 29.4609C111.165 29.9766 110.15 30.2344 108.978 30.2344ZM108.993 27.9687C109.629 27.9687 110.16 27.7943 110.587 27.4453C111.014 27.0911 111.332 26.6172 111.54 26.0234C111.754 25.4297 111.86 24.7682 111.86 24.0391C111.86 23.3047 111.754 22.6406 111.54 22.0469C111.332 21.4479 111.014 20.9714 110.587 20.6172C110.16 20.263 109.629 20.0859 108.993 20.0859C108.342 20.0859 107.801 20.263 107.368 20.6172C106.941 20.9714 106.621 21.4479 106.407 22.0469C106.199 22.6406 106.095 23.3047 106.095 24.0391C106.095 24.7682 106.199 25.4297 106.407 26.0234C106.621 26.6172 106.941 27.0911 107.368 27.4453C107.801 27.7943 108.342 27.9687 108.993 27.9687ZM117.128 30V18H122.167C123.589 18 124.711 18.2839 125.534 18.8516C126.362 19.4193 126.776 20.2109 126.776 21.2266C126.776 21.8984 126.542 22.4479 126.073 22.875C125.61 23.2969 124.977 23.5807 124.175 23.7266C124.805 23.7786 125.357 23.9375 125.831 24.2031C126.31 24.4687 126.685 24.8177 126.956 25.25C127.227 25.6823 127.362 26.1797 127.362 26.7422C127.362 27.4036 127.188 27.9792 126.839 28.4687C126.495 28.9531 125.993 29.3307 125.331 29.6016C124.675 29.8672 123.878 30 122.941 30H117.128ZM119.776 27.7734H122.941C123.461 27.7734 123.87 27.651 124.167 27.4062C124.464 27.1562 124.612 26.8177 124.612 26.3906C124.612 25.8958 124.464 25.5078 124.167 25.2266C123.87 24.9401 123.461 24.7969 122.941 24.7969H119.776V27.7734ZM119.776 22.9687H122.222C122.607 22.9687 122.938 22.9141 123.214 22.8047C123.49 22.6901 123.701 22.5313 123.847 22.3281C123.993 22.1198 124.066 21.8724 124.066 21.5859C124.066 21.1745 123.896 20.8516 123.558 20.6172C123.224 20.3828 122.761 20.2656 122.167 20.2656H119.776V22.9687ZM134.931 30.2344C133.759 30.2344 132.743 29.9766 131.884 29.4609C131.025 28.9453 130.358 28.224 129.884 27.2969C129.415 26.3698 129.181 25.2865 129.181 24.0469C129.181 22.8073 129.415 21.7214 129.884 20.7891C130.358 19.8568 131.025 19.1328 131.884 18.6172C132.743 18.1016 133.759 17.8438 134.931 17.8438C136.103 17.8438 137.118 18.1016 137.978 18.6172C138.837 19.1328 139.501 19.8568 139.97 20.7891C140.444 21.7214 140.681 22.8073 140.681 24.0469C140.681 25.2865 140.444 26.3698 139.97 27.2969C139.501 28.224 138.837 28.9453 137.978 29.4609C137.118 29.9766 136.103 30.2344 134.931 30.2344ZM134.946 27.9687C135.582 27.9687 136.113 27.7943 136.54 27.4453C136.967 27.0911 137.285 26.6172 137.493 26.0234C137.707 25.4297 137.814 24.7682 137.814 24.0391C137.814 23.3047 137.707 22.6406 137.493 22.0469C137.285 21.4479 136.967 20.9714 136.54 20.6172C136.113 20.263 135.582 20.0859 134.946 20.0859C134.295 20.0859 133.754 20.263 133.321 20.6172C132.894 20.9714 132.574 21.4479 132.36 22.0469C132.152 22.6406 132.048 23.3047 132.048 24.0391C132.048 24.7682 132.152 25.4297 132.36 26.0234C132.574 26.6172 132.894 27.0911 133.321 27.4453C133.754 27.7943 134.295 27.9687 134.946 27.9687ZM142.019 33.4844V27.6719H142.972C143.227 27.474 143.441 27.2057 143.612 26.8672C143.784 26.5234 143.925 26.1198 144.034 25.6562C144.149 25.1875 144.243 24.6641 144.316 24.0859C144.388 23.5026 144.454 22.875 144.511 22.2031L144.855 18H153.526V27.6719H155.386V33.4844H152.651V30H144.8V33.4844H142.019ZM145.878 27.6719H150.823V20.2812H147.308L147.12 22.2031C147.016 23.474 146.878 24.5625 146.706 25.4687C146.534 26.375 146.258 27.1094 145.878 27.6719ZM162.732 30.2344C161.534 30.2344 160.505 29.9714 159.646 29.4453C158.791 28.9193 158.133 28.1927 157.669 27.2656C157.211 26.3333 156.982 25.2604 156.982 24.0469C156.982 22.8281 157.216 21.7526 157.685 20.8203C158.153 19.8828 158.815 19.1536 159.669 18.6328C160.528 18.1068 161.544 17.8438 162.716 17.8438C163.69 17.8438 164.552 18.0234 165.302 18.3828C166.057 18.737 166.659 19.2396 167.107 19.8906C167.554 20.5365 167.81 21.2917 167.872 22.1562H165.169C165.06 21.5781 164.799 21.0964 164.388 20.7109C163.982 20.3203 163.437 20.125 162.755 20.125C162.177 20.125 161.669 20.2812 161.232 20.5937C160.794 20.901 160.453 21.3437 160.208 21.9219C159.969 22.5 159.849 23.1927 159.849 24C159.849 24.8177 159.969 25.5208 160.208 26.1094C160.448 26.6927 160.784 27.1432 161.216 27.4609C161.653 27.7734 162.166 27.9297 162.755 27.9297C163.172 27.9297 163.544 27.8516 163.872 27.6953C164.205 27.5339 164.484 27.3021 164.708 27C164.932 26.6979 165.086 26.3307 165.169 25.8984H167.872C167.804 26.7474 167.554 27.5 167.122 28.1562C166.69 28.8073 166.101 29.3177 165.357 29.6875C164.612 30.0521 163.737 30.2344 162.732 30.2344ZM169.323 20.3203V18H179.823V20.3203H175.941V30H173.206V20.3203H169.323ZM182.075 30V18H187.114C188.536 18 189.659 18.2839 190.482 18.8516C191.31 19.4193 191.724 20.2109 191.724 21.2266C191.724 21.8984 191.489 22.4479 191.021 22.875C190.557 23.2969 189.924 23.5807 189.122 23.7266C189.752 23.7786 190.304 23.9375 190.778 24.2031C191.258 24.4687 191.633 24.8177 191.903 25.25C192.174 25.6823 192.31 26.1797 192.31 26.7422C192.31 27.4036 192.135 27.9792 191.786 28.4687C191.442 28.9531 190.94 29.3307 190.278 29.6016C189.622 29.8672 188.825 30 187.888 30H182.075ZM184.724 27.7734H187.888C188.409 27.7734 188.817 27.651 189.114 27.4062C189.411 27.1562 189.56 26.8177 189.56 26.3906C189.56 25.8958 189.411 25.5078 189.114 25.2266C188.817 24.9401 188.409 24.7969 187.888 24.7969H184.724V27.7734ZM184.724 22.9687H187.169C187.554 22.9687 187.885 22.9141 188.161 22.8047C188.437 22.6901 188.648 22.5313 188.794 22.3281C188.94 22.1198 189.013 21.8724 189.013 21.5859C189.013 21.1745 188.844 20.8516 188.505 20.6172C188.172 20.3828 187.708 20.2656 187.114 20.2656H184.724V22.9687ZM199.878 30.2344C198.706 30.2344 197.691 29.9766 196.831 29.4609C195.972 28.9453 195.305 28.224 194.831 27.2969C194.362 26.3698 194.128 25.2865 194.128 24.0469C194.128 22.8073 194.362 21.7214 194.831 20.7891C195.305 19.8568 195.972 19.1328 196.831 18.6172C197.691 18.1016 198.706 17.8438 199.878 17.8438C201.05 17.8438 202.066 18.1016 202.925 18.6172C203.784 19.1328 204.448 19.8568 204.917 20.7891C205.391 21.7214 205.628 22.8073 205.628 24.0469C205.628 25.2865 205.391 26.3698 204.917 27.2969C204.448 28.224 203.784 28.9453 202.925 29.4609C202.066 29.9766 201.05 30.2344 199.878 30.2344ZM199.894 27.9687C200.529 27.9687 201.06 27.7943 201.487 27.4453C201.914 27.0911 202.232 26.6172 202.441 26.0234C202.654 25.4297 202.761 24.7682 202.761 24.0391C202.761 23.3047 202.654 22.6406 202.441 22.0469C202.232 21.4479 201.914 20.9714 201.487 20.6172C201.06 20.263 200.529 20.0859 199.894 20.0859C199.243 20.0859 198.701 20.263 198.269 20.6172C197.842 20.9714 197.521 21.4479 197.308 22.0469C197.099 22.6406 196.995 23.3047 196.995 24.0391C196.995 24.7682 197.099 25.4297 197.308 26.0234C197.521 26.6172 197.842 27.0911 198.269 27.4453C198.701 27.7943 199.243 27.9687 199.894 27.9687ZM63.5811 55.2344C62.4093 55.2344 61.3936 54.9766 60.5343 54.4609C59.6749 53.9453 59.0082 53.224 58.5343 52.2969C58.0655 51.3698 57.8311 50.2865 57.8311 49.0469C57.8311 47.8073 58.0655 46.7214 58.5343 45.7891C59.0082 44.8568 59.6749 44.1328 60.5343 43.6172C61.3936 43.1016 62.4093 42.8438 63.5811 42.8438C64.753 42.8438 65.7686 43.1016 66.628 43.6172C67.4874 44.1328 68.1515 44.8568 68.6202 45.7891C69.0942 46.7214 69.3311 47.8073 69.3311 49.0469C69.3311 50.2865 69.0942 51.3698 68.6202 52.2969C68.1515 53.224 67.4874 53.9453 66.628 54.4609C65.7686 54.9766 64.753 55.2344 63.5811 55.2344ZM63.5968 52.9687C64.2322 52.9687 64.7634 52.7943 65.1905 52.4453C65.6176 52.0911 65.9353 51.6172 66.1436 51.0234C66.3572 50.4297 66.464 49.7682 66.464 49.0391C66.464 48.3047 66.3572 47.6406 66.1436 47.0469C65.9353 46.4479 65.6176 45.9714 65.1905 45.6172C64.7634 45.263 64.2322 45.0859 63.5968 45.0859C62.9457 45.0859 62.4041 45.263 61.9718 45.6172C61.5447 45.9714 61.2244 46.4479 61.0108 47.0469C60.8025 47.6406 60.6983 48.3047 60.6983 49.0391C60.6983 49.7682 60.8025 50.4297 61.0108 51.0234C61.2244 51.6172 61.5447 52.0911 61.9718 52.4453C62.4041 52.7943 62.9457 52.9687 63.5968 52.9687ZM71.7315 55V43H81.8644V55H79.1378V45.3203H74.4347V55H71.7315ZM90.0851 55.2344C88.8819 55.2344 87.8429 54.9844 86.9679 54.4844C86.0981 53.9792 85.4288 53.2656 84.9601 52.3437C84.4913 51.4167 84.2569 50.3255 84.2569 49.0703C84.2569 47.8359 84.4913 46.7526 84.9601 45.8203C85.434 44.8828 86.0955 44.1536 86.9444 43.6328C87.7934 43.1068 88.7908 42.8438 89.9366 42.8438C90.6762 42.8438 91.3741 42.9635 92.0304 43.2031C92.6918 43.4375 93.2752 43.8021 93.7804 44.2969C94.2908 44.7917 94.6918 45.4219 94.9835 46.1875C95.2752 46.9479 95.421 47.8542 95.421 48.9062V49.7734H85.5851V47.8672H92.7101C92.7048 47.3255 92.5877 46.8437 92.3585 46.4219C92.1293 45.9948 91.809 45.6589 91.3976 45.4141C90.9913 45.1693 90.5173 45.0469 89.9757 45.0469C89.3976 45.0469 88.8897 45.1875 88.4522 45.4687C88.0147 45.7448 87.6736 46.1094 87.4288 46.5625C87.1892 47.0104 87.0668 47.5026 87.0616 48.0391V49.7031C87.0616 50.401 87.1892 51 87.4444 51.5C87.6996 51.9948 88.0564 52.375 88.5147 52.6406C88.9731 52.901 89.5095 53.0312 90.1241 53.0312C90.5356 53.0312 90.908 52.974 91.2413 52.8594C91.5746 52.7396 91.8637 52.5651 92.1085 52.3359C92.3533 52.1068 92.5382 51.8229 92.6632 51.4844L95.3038 51.7812C95.1371 52.4792 94.8194 53.0885 94.3507 53.6094C93.8871 54.125 93.2934 54.526 92.5694 54.8125C91.8455 55.0937 91.0173 55.2344 90.0851 55.2344ZM97.8136 59.5V43H100.595V44.9844H100.759C100.905 44.6927 101.11 44.3828 101.376 44.0547C101.642 43.7214 102.001 43.4375 102.454 43.2031C102.907 42.9635 103.485 42.8438 104.189 42.8438C105.116 42.8438 105.952 43.0807 106.696 43.5547C107.446 44.0234 108.04 44.7187 108.478 45.6406C108.92 46.5573 109.142 47.6823 109.142 49.0156C109.142 50.3333 108.926 51.4531 108.493 52.375C108.061 53.2969 107.472 54 106.728 54.4844C105.983 54.9688 105.139 55.2109 104.196 55.2109C103.509 55.2109 102.939 55.0964 102.485 54.8672C102.032 54.638 101.668 54.362 101.392 54.0391C101.121 53.7109 100.91 53.401 100.759 53.1094H100.642V59.5H97.8136ZM100.587 49C100.587 49.776 100.696 50.4557 100.915 51.0391C101.139 51.6224 101.459 52.0781 101.876 52.4062C102.298 52.7292 102.808 52.8906 103.407 52.8906C104.032 52.8906 104.556 52.724 104.978 52.3906C105.4 52.0521 105.717 51.5911 105.931 51.0078C106.15 50.4193 106.259 49.75 106.259 49C106.259 48.2552 106.152 47.5937 105.939 47.0156C105.725 46.4375 105.407 45.9844 104.985 45.6562C104.564 45.3281 104.038 45.1641 103.407 45.1641C102.803 45.1641 102.29 45.3229 101.868 45.6406C101.446 45.9583 101.126 46.4036 100.907 46.9766C100.694 47.5495 100.587 48.224 100.587 49ZM115.017 55.2422C114.256 55.2422 113.571 55.1068 112.962 54.8359C112.358 54.5599 111.879 54.1536 111.525 53.6172C111.176 53.0807 111.001 52.4193 111.001 51.6328C111.001 50.9557 111.126 50.3958 111.376 49.9531C111.626 49.5104 111.967 49.1562 112.4 48.8906C112.832 48.625 113.319 48.4245 113.86 48.2891C114.407 48.1484 114.972 48.0469 115.556 47.9844C116.259 47.9115 116.829 47.8464 117.267 47.7891C117.704 47.7266 118.022 47.6328 118.22 47.5078C118.423 47.3776 118.525 47.1771 118.525 46.9062V46.8594C118.525 46.2708 118.35 45.8151 118.001 45.4922C117.652 45.1693 117.15 45.0078 116.493 45.0078C115.801 45.0078 115.251 45.1589 114.845 45.4609C114.444 45.763 114.173 46.1198 114.032 46.5312L111.392 46.1562C111.6 45.4271 111.944 44.8177 112.423 44.3281C112.902 43.8333 113.488 43.4635 114.181 43.2187C114.873 42.9688 115.639 42.8438 116.478 42.8438C117.056 42.8438 117.631 42.9115 118.204 43.0469C118.777 43.1823 119.301 43.4062 119.775 43.7187C120.248 44.026 120.629 44.4453 120.915 44.9766C121.207 45.5078 121.353 46.1719 121.353 46.9687V55H118.634V53.3516H118.54C118.368 53.6849 118.126 53.9974 117.814 54.2891C117.506 54.5755 117.118 54.8073 116.65 54.9844C116.186 55.1563 115.642 55.2422 115.017 55.2422ZM115.751 53.1641C116.319 53.1641 116.811 53.0521 117.228 52.8281C117.644 52.599 117.965 52.2969 118.189 51.9219C118.418 51.5469 118.532 51.138 118.532 50.6953V49.2812C118.444 49.3542 118.293 49.4219 118.079 49.4844C117.871 49.5469 117.636 49.6016 117.376 49.6484C117.116 49.6953 116.858 49.737 116.603 49.7734C116.347 49.8099 116.126 49.8411 115.939 49.8672C115.517 49.9245 115.139 50.0182 114.806 50.1484C114.472 50.2786 114.209 50.4609 114.017 50.6953C113.824 50.9245 113.728 51.2214 113.728 51.5859C113.728 52.1068 113.918 52.5 114.298 52.7656C114.678 53.0312 115.163 53.1641 115.751 53.1641ZM122.853 45.3203V43H133.353V45.3203H129.47V55H126.735V45.3203H122.853ZM140.345 55.2344C139.173 55.2344 138.157 54.9766 137.298 54.4609C136.439 53.9453 135.772 53.224 135.298 52.2969C134.829 51.3698 134.595 50.2865 134.595 49.0469C134.595 47.8073 134.829 46.7214 135.298 45.7891C135.772 44.8568 136.439 44.1328 137.298 43.6172C138.157 43.1016 139.173 42.8438 140.345 42.8438C141.517 42.8438 142.532 43.1016 143.392 43.6172C144.251 44.1328 144.915 44.8568 145.384 45.7891C145.858 46.7214 146.095 47.8073 146.095 49.0469C146.095 50.2865 145.858 51.3698 145.384 52.2969C144.915 53.224 144.251 53.9453 143.392 54.4609C142.532 54.9766 141.517 55.2344 140.345 55.2344ZM140.36 52.9687C140.996 52.9687 141.527 52.7943 141.954 52.4453C142.381 52.0911 142.699 51.6172 142.907 51.0234C143.121 50.4297 143.228 49.7682 143.228 49.0391C143.228 48.3047 143.121 47.6406 142.907 47.0469C142.699 46.4479 142.381 45.9714 141.954 45.6172C141.527 45.263 140.996 45.0859 140.36 45.0859C139.709 45.0859 139.168 45.263 138.735 45.6172C138.308 45.9714 137.988 46.4479 137.775 47.0469C137.566 47.6406 137.462 48.3047 137.462 49.0391C137.462 49.7682 137.566 50.4297 137.775 51.0234C137.988 51.6172 138.308 52.0911 138.735 52.4453C139.168 52.7943 139.709 52.9687 140.36 52.9687ZM148.495 59.5V43H151.276V44.9844H151.441C151.586 44.6927 151.792 44.3828 152.058 44.0547C152.323 43.7214 152.683 43.4375 153.136 43.2031C153.589 42.9635 154.167 42.8438 154.87 42.8438C155.797 42.8438 156.633 43.0807 157.378 43.5547C158.128 44.0234 158.722 44.7187 159.159 45.6406C159.602 46.5573 159.823 47.6823 159.823 49.0156C159.823 50.3333 159.607 51.4531 159.175 52.375C158.743 53.2969 158.154 54 157.409 54.4844C156.664 54.9688 155.821 55.2109 154.878 55.2109C154.191 55.2109 153.62 55.0964 153.167 54.8672C152.714 54.638 152.349 54.362 152.073 54.0391C151.803 53.7109 151.592 53.401 151.441 53.1094H151.323V59.5H148.495ZM151.269 49C151.269 49.776 151.378 50.4557 151.597 51.0391C151.821 51.6224 152.141 52.0781 152.558 52.4062C152.98 52.7292 153.49 52.8906 154.089 52.8906C154.714 52.8906 155.237 52.724 155.659 52.3906C156.081 52.0521 156.399 51.5911 156.612 51.0078C156.831 50.4193 156.941 49.75 156.941 49C156.941 48.2552 156.834 47.5937 156.62 47.0156C156.407 46.4375 156.089 45.9844 155.667 45.6562C155.245 45.3281 154.719 45.1641 154.089 45.1641C153.485 45.1641 152.972 45.3229 152.55 45.6406C152.128 45.9583 151.808 46.4036 151.589 46.9766C151.375 47.5495 151.269 48.224 151.269 49ZM165.698 55.2422C164.938 55.2422 164.253 55.1068 163.644 54.8359C163.039 54.5599 162.56 54.1536 162.206 53.6172C161.857 53.0807 161.683 52.4193 161.683 51.6328C161.683 50.9557 161.808 50.3958 162.058 49.9531C162.308 49.5104 162.649 49.1562 163.081 48.8906C163.513 48.625 164 48.4245 164.542 48.2891C165.089 48.1484 165.654 48.0469 166.237 47.9844C166.941 47.9115 167.511 47.8464 167.948 47.7891C168.386 47.7266 168.704 47.6328 168.901 47.5078C169.105 47.3776 169.206 47.1771 169.206 46.9062V46.8594C169.206 46.2708 169.032 45.8151 168.683 45.4922C168.334 45.1693 167.831 45.0078 167.175 45.0078C166.482 45.0078 165.933 45.1589 165.526 45.4609C165.125 45.763 164.855 46.1198 164.714 46.5312L162.073 46.1562C162.282 45.4271 162.625 44.8177 163.105 44.3281C163.584 43.8333 164.17 43.4635 164.862 43.2187C165.555 42.9688 166.321 42.8438 167.159 42.8438C167.737 42.8438 168.313 42.9115 168.886 43.0469C169.459 43.1823 169.982 43.4062 170.456 43.7187C170.93 44.026 171.31 44.4453 171.597 44.9766C171.888 45.5078 172.034 46.1719 172.034 46.9687V55H169.316V53.3516H169.222C169.05 53.6849 168.808 53.9974 168.495 54.2891C168.188 54.5755 167.8 54.8073 167.331 54.9844C166.868 55.1563 166.323 55.2422 165.698 55.2422ZM166.433 53.1641C167 53.1641 167.493 53.0521 167.909 52.8281C168.326 52.599 168.646 52.2969 168.87 51.9219C169.099 51.5469 169.214 51.138 169.214 50.6953V49.2812C169.125 49.3542 168.974 49.4219 168.761 49.4844C168.553 49.5469 168.318 49.6016 168.058 49.6484C167.797 49.6953 167.539 49.737 167.284 49.7734C167.029 49.8099 166.808 49.8411 166.62 49.8672C166.198 49.9245 165.821 50.0182 165.487 50.1484C165.154 50.2786 164.891 50.4609 164.698 50.6953C164.506 50.9245 164.409 51.2214 164.409 51.5859C164.409 52.1068 164.599 52.5 164.98 52.7656C165.36 53.0312 165.844 53.1641 166.433 53.1641ZM189.155 43.3984C189.082 42.7161 188.775 42.1849 188.233 41.8047C187.697 41.4245 186.999 41.2344 186.14 41.2344C185.536 41.2344 185.017 41.3255 184.585 41.5078C184.153 41.6901 183.822 41.9375 183.593 42.25C183.364 42.5625 183.247 42.9193 183.241 43.3203C183.241 43.6536 183.317 43.9427 183.468 44.1875C183.624 44.4323 183.835 44.6406 184.101 44.8125C184.366 44.9792 184.661 45.1198 184.983 45.2344C185.306 45.349 185.632 45.4453 185.96 45.5234L187.46 45.8984C188.064 46.0391 188.645 46.2292 189.202 46.4687C189.765 46.7083 190.267 47.0104 190.71 47.375C191.158 47.7396 191.512 48.1797 191.773 48.6953C192.033 49.2109 192.163 49.8151 192.163 50.5078C192.163 51.4453 191.924 52.2708 191.444 52.9844C190.965 53.6927 190.273 54.2474 189.366 54.6484C188.465 55.0443 187.374 55.2422 186.093 55.2422C184.848 55.2422 183.767 55.0495 182.851 54.6641C181.939 54.2786 181.226 53.7161 180.71 52.9766C180.2 52.237 179.924 51.3359 179.882 50.2734H182.733C182.775 50.8307 182.947 51.2943 183.249 51.6641C183.551 52.0339 183.944 52.3099 184.429 52.4922C184.918 52.6745 185.465 52.7656 186.069 52.7656C186.7 52.7656 187.252 52.6719 187.726 52.4844C188.205 52.2917 188.58 52.026 188.851 51.6875C189.122 51.3437 189.26 50.9427 189.265 50.4844C189.26 50.0677 189.137 49.724 188.898 49.4531C188.658 49.1771 188.322 48.9479 187.89 48.7656C187.463 48.5781 186.963 48.4115 186.39 48.2656L184.569 47.7969C183.252 47.4583 182.21 46.9453 181.444 46.2578C180.684 45.5651 180.304 44.6458 180.304 43.5C180.304 42.5573 180.559 41.7318 181.069 41.0234C181.585 40.3151 182.286 39.7656 183.171 39.375C184.056 38.9792 185.059 38.7812 186.179 38.7812C187.314 38.7812 188.309 38.9792 189.163 39.375C190.023 39.7656 190.697 40.3099 191.187 41.0078C191.676 41.7005 191.929 42.4974 191.944 43.3984H189.155ZM194.747 39H198.294L203.044 50.5937H203.232L207.982 39H211.528V55H208.747V44.0078H208.599L204.177 54.9531H202.099L197.677 43.9844H197.528V55H194.747V39Z" fill="#313F52"/>
</svg>
