<svg width="270" height="68" viewBox="0 0 270 68" fill="none" xmlns="http://www.w3.org/2000/svg">
<rect width="270" height="68" rx="8" fill="#438FF4"/>
<g filter="url(#filter0_d_344_114)">
<path d="M97.2725 42V26H100.171V32.7734H107.585V26H110.491V42H107.585V35.2031H100.171V42H97.2725ZM116.972 42.2422C116.211 42.2422 115.526 42.1068 114.917 41.8359C114.313 41.5599 113.834 41.1536 113.479 40.6172C113.131 40.0807 112.956 39.4193 112.956 38.6328C112.956 37.9557 113.081 37.3958 113.331 36.9531C113.581 36.5104 113.922 36.1562 114.354 35.8906C114.787 35.625 115.274 35.4245 115.815 35.2891C116.362 35.1484 116.927 35.0469 117.511 34.9844C118.214 34.9115 118.784 34.8464 119.222 34.7891C119.659 34.7266 119.977 34.6328 120.175 34.5078C120.378 34.3776 120.479 34.1771 120.479 33.9062V33.8594C120.479 33.2708 120.305 32.8151 119.956 32.4922C119.607 32.1693 119.104 32.0078 118.448 32.0078C117.756 32.0078 117.206 32.1589 116.8 32.4609C116.399 32.763 116.128 33.1198 115.987 33.5312L113.347 33.1562C113.555 32.4271 113.899 31.8177 114.378 31.3281C114.857 30.8333 115.443 30.4635 116.136 30.2187C116.828 29.9688 117.594 29.8438 118.433 29.8438C119.011 29.8438 119.586 29.9115 120.159 30.0469C120.732 30.1823 121.256 30.4062 121.729 30.7187C122.203 31.026 122.584 31.4453 122.87 31.9766C123.162 32.5078 123.308 33.1719 123.308 33.9687V42H120.589V40.3516H120.495C120.323 40.6849 120.081 40.9974 119.769 41.2891C119.461 41.5755 119.073 41.8073 118.604 41.9844C118.141 42.1563 117.597 42.2422 116.972 42.2422ZM117.706 40.1641C118.274 40.1641 118.766 40.0521 119.183 39.8281C119.599 39.599 119.92 39.2969 120.144 38.9219C120.373 38.5469 120.487 38.138 120.487 37.6953V36.2812C120.399 36.3542 120.248 36.4219 120.034 36.4844C119.826 36.5469 119.591 36.6016 119.331 36.6484C119.071 36.6953 118.813 36.737 118.558 36.7734C118.302 36.8099 118.081 36.8411 117.894 36.8672C117.472 36.9245 117.094 37.0182 116.761 37.1484C116.427 37.2786 116.164 37.4609 115.972 37.6953C115.779 37.9245 115.683 38.2214 115.683 38.5859C115.683 39.1068 115.873 39.5 116.253 39.7656C116.633 40.0312 117.118 40.1641 117.706 40.1641ZM136.175 30V42H133.456V30H136.175ZM134.901 35.4219V37.7344C134.594 37.8698 134.245 37.9922 133.854 38.1016C133.469 38.2057 133.06 38.2891 132.628 38.3516C132.201 38.4141 131.774 38.4453 131.347 38.4453C129.743 38.4453 128.474 38.0859 127.542 37.3672C126.615 36.6432 126.151 35.5156 126.151 33.9844V29.9844H128.854V33.9844C128.854 34.5 128.946 34.9141 129.128 35.2266C129.31 35.5391 129.586 35.7682 129.956 35.9141C130.326 36.0547 130.789 36.125 131.347 36.125C131.972 36.125 132.565 36.0625 133.128 35.9375C133.69 35.8125 134.282 35.6406 134.901 35.4219ZM142.474 42.2422C141.713 42.2422 141.028 42.1068 140.419 41.8359C139.815 41.5599 139.336 41.1536 138.981 40.6172C138.632 40.0807 138.458 39.4193 138.458 38.6328C138.458 37.9557 138.583 37.3958 138.833 36.9531C139.083 36.5104 139.424 36.1562 139.856 35.8906C140.289 35.625 140.776 35.4245 141.317 35.2891C141.864 35.1484 142.429 35.0469 143.013 34.9844C143.716 34.9115 144.286 34.8464 144.724 34.7891C145.161 34.7266 145.479 34.6328 145.677 34.5078C145.88 34.3776 145.981 34.1771 145.981 33.9062V33.8594C145.981 33.2708 145.807 32.8151 145.458 32.4922C145.109 32.1693 144.606 32.0078 143.95 32.0078C143.257 32.0078 142.708 32.1589 142.302 32.4609C141.901 32.763 141.63 33.1198 141.489 33.5312L138.849 33.1562C139.057 32.4271 139.401 31.8177 139.88 31.3281C140.359 30.8333 140.945 30.4635 141.638 30.2187C142.33 29.9688 143.096 29.8438 143.935 29.8438C144.513 29.8438 145.088 29.9115 145.661 30.0469C146.234 30.1823 146.757 30.4062 147.231 30.7187C147.705 31.026 148.086 31.4453 148.372 31.9766C148.664 32.5078 148.81 33.1719 148.81 33.9687V42H146.091V40.3516H145.997C145.825 40.6849 145.583 40.9974 145.271 41.2891C144.963 41.5755 144.575 41.8073 144.106 41.9844C143.643 42.1563 143.099 42.2422 142.474 42.2422ZM143.208 40.1641C143.776 40.1641 144.268 40.0521 144.685 39.8281C145.101 39.599 145.422 39.2969 145.646 38.9219C145.875 38.5469 145.989 38.138 145.989 37.6953V36.2812C145.901 36.3542 145.75 36.4219 145.536 36.4844C145.328 36.5469 145.093 36.6016 144.833 36.6484C144.573 36.6953 144.315 36.737 144.06 36.7734C143.804 36.8099 143.583 36.8411 143.396 36.8672C142.974 36.9245 142.596 37.0182 142.263 37.1484C141.929 37.2786 141.666 37.4609 141.474 37.6953C141.281 37.9245 141.185 38.2214 141.185 38.5859C141.185 39.1068 141.375 39.5 141.755 39.7656C142.135 40.0312 142.619 40.1641 143.208 40.1641ZM150.31 32.3203V30H160.81V32.3203H156.927V42H154.192V32.3203H150.31ZM164.976 33.9062H168.515C170.046 33.9062 171.231 34.2786 172.069 35.0234C172.908 35.7682 173.33 36.7448 173.335 37.9531C173.33 38.7396 173.137 39.4375 172.757 40.0469C172.382 40.6562 171.835 41.1354 171.116 41.4844C170.403 41.8281 169.535 42 168.515 42H163.062V30H165.788V39.6797H168.515C169.129 39.6797 169.634 39.5234 170.03 39.2109C170.426 38.8932 170.624 38.487 170.624 37.9922C170.624 37.4714 170.426 37.0469 170.03 36.7187C169.634 36.3906 169.129 36.2266 168.515 36.2266H164.976V33.9062Z" fill="white"/>
</g>
<defs>
<filter id="filter0_d_344_114" x="94.2725" y="23" width="82.0625" height="22.2422" filterUnits="userSpaceOnUse" color-interpolation-filters="sRGB">
<feFlood flood-opacity="0" result="BackgroundImageFix"/>
<feColorMatrix in="SourceAlpha" type="matrix" values="0 0 0 0 0 0 0 0 0 0 0 0 0 0 0 0 0 0 127 0" result="hardAlpha"/>
<feOffset/>
<feGaussianBlur stdDeviation="1.5"/>
<feComposite in2="hardAlpha" operator="out"/>
<feColorMatrix type="matrix" values="0 0 0 0 0 0 0 0 0 0 0 0 0 0 0 0 0 0 0.3 0"/>
<feBlend mode="normal" in2="BackgroundImageFix" result="effect1_dropShadow_344_114"/>
<feBlend mode="normal" in="SourceGraphic" in2="effect1_dropShadow_344_114" result="shape"/>
</filter>
</defs>
</svg>
