<svg width="630" height="76" viewBox="0 0 630 76" fill="none" xmlns="http://www.w3.org/2000/svg">
<rect width="630" height="76" fill="url(#paint0_linear_344_224)"/>
<path d="M94.9029 49.1111V27.2929H100.176V36.05H108.774V27.2929H114.036V49.1111H108.774V40.3433H100.176V49.1111H94.9029ZM122.064 49.1111H116.396L123.758 27.2929H130.778L138.14 49.1111H132.472L127.348 32.7901H127.177L122.064 49.1111ZM121.307 40.5244H133.154V44.5301H121.307V40.5244ZM149.693 49.4094V45.2332H150.812C151.416 45.2332 151.899 45.1729 152.261 45.0521C152.63 44.9243 152.918 44.7219 153.124 44.4449C153.337 44.1679 153.514 43.7986 153.656 43.3369L153.902 42.6658L145.848 27.2929H151.259L156.107 37.094L160.006 27.2929H165.333L157.833 44.5834C157.442 45.4357 156.98 46.2311 156.448 46.9697C155.915 47.7013 155.244 48.2908 154.434 48.7382C153.632 49.1857 152.62 49.4094 151.398 49.4094H149.693ZM185.928 35.1977H180.602C180.531 34.6509 180.385 34.1572 180.165 33.7169C179.945 33.2766 179.653 32.9001 179.291 32.5876C178.929 32.2751 178.499 32.0372 178.002 31.8739C177.512 31.7034 176.969 31.6182 176.372 31.6182C175.314 31.6182 174.401 31.8774 173.634 32.3959C172.874 32.9144 172.288 33.6636 171.876 34.6438C171.472 35.6239 171.269 36.8099 171.269 38.202C171.269 39.6509 171.475 40.8653 171.887 41.8455C172.306 42.8185 172.892 43.5536 173.645 44.0507C174.405 44.5408 175.303 44.7858 176.34 44.7858C176.923 44.7858 177.452 44.7112 177.928 44.5621C178.411 44.4129 178.833 44.1963 179.195 43.9122C179.565 43.621 179.867 43.2695 180.101 42.8575C180.342 42.4385 180.509 41.9662 180.602 41.4406L185.928 41.4726C185.836 42.4385 185.555 43.3902 185.087 44.3277C184.625 45.2652 183.989 46.121 183.18 46.8952C182.37 47.6622 181.383 48.273 180.218 48.7276C179.06 49.1821 177.732 49.4094 176.234 49.4094C174.259 49.4094 172.491 48.9761 170.928 48.1097C169.373 47.2361 168.144 45.9648 167.242 44.2957C166.34 42.6267 165.889 40.5955 165.889 38.202C165.889 35.8014 166.347 33.7666 167.264 32.0976C168.18 30.4286 169.419 29.1608 170.982 28.2943C172.544 27.4278 174.295 26.9946 176.234 26.9946C177.555 26.9946 178.776 27.1793 179.898 27.5486C181.021 27.9108 182.008 28.4435 182.86 29.1466C183.712 29.8426 184.405 30.6984 184.938 31.7141C185.47 32.7297 185.8 33.8909 185.928 35.1977ZM208.239 27.2929V49.1111H203.04V31.5117H194.944V49.1111H189.745V27.2929H208.239ZM211.377 54.3632V44.9989H212.879C213.383 44.658 213.845 44.1821 214.264 43.5713C214.683 42.9534 215.041 42.0869 215.34 40.9719C215.638 39.8497 215.851 38.3689 215.979 36.5294L216.661 27.2929H231.586V44.9989H233.93V54.3526H228.859V49.1111H216.448V54.3632H211.377ZM218.93 44.9989H226.515V31.5756H221.391L221.05 36.5294C220.958 37.9144 220.808 39.1359 220.603 40.1942C220.397 41.2524 220.152 42.1757 219.867 42.9641C219.583 43.7453 219.271 44.4236 218.93 44.9989ZM262.087 27.2929V49.1111H256.888V31.5117H248.791V49.1111H243.593V27.2929H262.087ZM286.765 38.202C286.765 40.6026 286.304 42.6374 285.381 44.3064C284.457 45.9754 283.207 47.2432 281.631 48.1097C280.061 48.9761 278.3 49.4094 276.346 49.4094C274.386 49.4094 272.621 48.9726 271.052 48.099C269.482 47.2254 268.236 45.9577 267.312 44.2957C266.396 42.6267 265.938 40.5955 265.938 38.202C265.938 35.8014 266.396 33.7666 267.312 32.0976C268.236 30.4286 269.482 29.1608 271.052 28.2943C272.621 27.4278 274.386 26.9946 276.346 26.9946C278.3 26.9946 280.061 27.4278 281.631 28.2943C283.207 29.1608 284.457 30.4286 285.381 32.0976C286.304 33.7666 286.765 35.8014 286.765 38.202ZM281.375 38.202C281.375 36.7815 281.172 35.5813 280.768 34.6011C280.37 33.621 279.795 32.8788 279.042 32.3746C278.296 31.8703 277.398 31.6182 276.346 31.6182C275.302 31.6182 274.404 31.8703 273.651 32.3746C272.898 32.8788 272.319 33.621 271.915 34.6011C271.517 35.5813 271.318 36.7815 271.318 38.202C271.318 39.6224 271.517 40.8227 271.915 41.8028C272.319 42.783 272.898 43.5251 273.651 44.0294C274.404 44.5337 275.302 44.7858 276.346 44.7858C277.398 44.7858 278.296 44.5337 279.042 44.0294C279.795 43.5251 280.37 42.783 280.768 41.8028C281.172 40.8227 281.375 39.6224 281.375 38.202ZM288.896 54.3632V44.9989H290.398C290.903 44.658 291.364 44.1821 291.783 43.5713C292.202 42.9534 292.561 42.0869 292.859 40.9719C293.158 39.8497 293.371 38.3689 293.498 36.5294L294.18 27.2929H309.106V44.9989H311.449V54.3526H306.378V49.1111H293.967V54.3632H288.896ZM296.449 44.9989H304.035V31.5756H298.91L298.569 36.5294C298.477 37.9144 298.328 39.1359 298.122 40.1942C297.916 41.2524 297.671 42.1757 297.387 42.9641C297.103 43.7453 296.79 44.4236 296.449 44.9989ZM318.587 49.1111H312.92L320.281 27.2929H327.302L334.663 49.1111H328.996L323.871 32.7901H323.701L318.587 49.1111ZM317.831 40.5244H329.677V44.5301H317.831V40.5244ZM337.012 49.1111V27.2929H342.286V36.05H350.883V27.2929H356.146V49.1111H350.883V40.3433H342.286V49.1111H337.012ZM380.047 38.202C380.047 40.6026 379.585 42.6374 378.662 44.3064C377.739 45.9754 376.489 47.2432 374.912 48.1097C373.342 48.9761 371.581 49.4094 369.628 49.4094C367.667 49.4094 365.903 48.9726 364.333 48.099C362.763 47.2254 361.517 45.9577 360.594 44.2957C359.677 42.6267 359.219 40.5955 359.219 38.202C359.219 35.8014 359.677 33.7666 360.594 32.0976C361.517 30.4286 362.763 29.1608 364.333 28.2943C365.903 27.4278 367.667 26.9946 369.628 26.9946C371.581 26.9946 373.342 27.4278 374.912 28.2943C376.489 29.1608 377.739 30.4286 378.662 32.0976C379.585 33.7666 380.047 35.8014 380.047 38.202ZM374.656 38.202C374.656 36.7815 374.454 35.5813 374.049 34.6011C373.651 33.621 373.076 32.8788 372.323 32.3746C371.577 31.8703 370.679 31.6182 369.628 31.6182C368.584 31.6182 367.685 31.8703 366.932 32.3746C366.18 32.8788 365.601 33.621 365.196 34.6011C364.798 35.5813 364.599 36.7815 364.599 38.202C364.599 39.6224 364.798 40.8227 365.196 41.8028C365.601 42.783 366.18 43.5251 366.932 44.0294C367.685 44.5337 368.584 44.7858 369.628 44.7858C370.679 44.7858 371.577 44.5337 372.323 44.0294C373.076 43.5251 373.651 42.783 374.049 41.8028C374.454 40.8227 374.656 39.6224 374.656 38.202ZM408.864 27.2929V49.1111H403.665V31.5117H395.569V49.1111H390.37V27.2929H408.864ZM412.95 27.2929H418.213V39.8639H418.394L426.98 27.2929H431.519V49.1111H426.245V36.5188H426.107L417.414 49.1111H412.95V27.2929ZM434.121 31.5756V27.2929H452.562V31.5756H445.946V49.1111H440.747V31.5756H434.121ZM457.132 49.1111H451.465L458.826 27.2929H465.847L473.208 49.1111H467.541L462.416 32.7901H462.246L457.132 49.1111ZM456.376 40.5244H468.222V44.5301H456.376V40.5244ZM475.557 49.1111V27.2929H480.831V36.05H489.428V27.2929H494.691V49.1111H489.428V40.3433H480.831V49.1111H475.557ZM497.999 27.2929H503.261V39.8639H503.443L512.029 27.2929H516.568V49.1111H511.294V36.5188H511.156L502.462 49.1111H497.999V27.2929ZM519.883 49.1111V27.2929H535.096V31.5756H525.157V36.05H534.319V40.3433H525.157V44.8284H535.096V49.1111H519.883Z" fill="white"/>
<defs>
<linearGradient id="paint0_linear_344_224" x1="4.69387e-06" y1="38" x2="630" y2="38" gradientUnits="userSpaceOnUse">
<stop offset="0.01977" stop-opacity="0"/>
<stop offset="0.080613" stop-opacity="0.25"/>
<stop offset="0.148476" stop-opacity="0.5"/>
<stop offset="0.254951" stop-opacity="0.6"/>
<stop offset="0.383658" stop-opacity="0.75"/>
<stop offset="0.630208" stop-opacity="0.75"/>
<stop offset="0.772117" stop-opacity="0.6"/>
<stop offset="0.862211" stop-opacity="0.5"/>
<stop offset="0.918374" stop-opacity="0.25"/>
<stop offset="0.980387" stop-opacity="0"/>
</linearGradient>
</defs>
</svg>
