<svg width="408" height="76" viewBox="0 0 408 76" fill="none" xmlns="http://www.w3.org/2000/svg">
<rect width="408" height="76" fill="url(#paint0_linear_344_177)"/>
<path d="M84.9521 31.5756V27.2929H103.393V31.5756H96.7774V49.1111H91.5785V31.5756H84.9521ZM125.262 27.2929V49.1111H120.063V31.5117H111.966V49.1111H106.768V27.2929H125.262ZM162.831 38.202C162.831 40.6026 162.37 42.6374 161.446 44.3064C160.523 45.9754 159.273 47.2432 157.696 48.1097C156.127 48.9761 154.365 49.4094 152.412 49.4094C150.452 49.4094 148.687 48.9726 147.117 48.099C145.548 47.2254 144.301 45.9577 143.378 44.2957C142.462 42.6267 142.004 40.5955 142.004 38.202C142.004 35.8014 142.462 33.7666 143.378 32.0976C144.301 30.4286 145.548 29.1608 147.117 28.2943C148.687 27.4278 150.452 26.9946 152.412 26.9946C154.365 26.9946 156.127 27.4278 157.696 28.2943C159.273 29.1608 160.523 30.4286 161.446 32.0976C162.37 33.7666 162.831 35.8014 162.831 38.202ZM157.441 38.202C157.441 36.7815 157.238 35.5813 156.833 34.6011C156.436 33.621 155.86 32.8788 155.107 32.3746C154.362 31.8703 153.463 31.6182 152.412 31.6182C151.368 31.6182 150.47 31.8703 149.717 32.3746C148.964 32.8788 148.385 33.621 147.98 34.6011C147.583 35.5813 147.384 36.7815 147.384 38.202C147.384 39.6224 147.583 40.8227 147.98 41.8028C148.385 42.783 148.964 43.5251 149.717 44.0294C150.47 44.5337 151.368 44.7858 152.412 44.7858C153.463 44.7858 154.362 44.5337 155.107 44.0294C155.86 43.5251 156.436 42.783 156.833 41.8028C157.238 40.8227 157.441 39.6224 157.441 38.202ZM164.2 31.5756V27.2929H182.641V31.5756H176.025V49.1111H170.827V31.5756H164.2ZM198.544 49.1111L191.683 40.0557H190.49V49.1111H185.217V27.2929H190.49V35.7624H191.332L198.086 27.2929H204.68L196.275 37.5947L205.117 49.1111H198.544ZM206.095 49.1111V44.9776L206.691 44.9136C207.458 44.8213 208.083 44.5124 208.566 43.9868C209.049 43.4541 209.415 42.609 209.664 41.4513C209.919 40.2865 210.083 38.7134 210.154 36.7318L210.505 27.2929H225.814V49.1111H220.711V31.4477H215.374L215.033 38.6707C214.912 41.1636 214.596 43.1771 214.085 44.7112C213.573 46.2382 212.781 47.3533 211.709 48.0564C210.644 48.7595 209.213 49.1111 207.416 49.1111H206.095ZM234.377 27.2929V49.1111H229.103V27.2929H234.377ZM239.043 36.6359V40.6523H231.969V36.6359H239.043ZM258.187 38.202C258.187 40.6026 257.726 42.6374 256.802 44.3064C255.879 45.9754 254.629 47.2432 253.052 48.1097C251.483 48.9761 249.721 49.4094 247.768 49.4094C245.808 49.4094 244.043 48.9726 242.473 48.099C240.904 47.2254 239.657 45.9577 238.734 44.2957C237.818 42.6267 237.36 40.5955 237.36 38.202C237.36 35.8014 237.818 33.7666 238.734 32.0976C239.657 30.4286 240.904 29.1608 242.473 28.2943C244.043 27.4278 245.808 26.9946 247.768 26.9946C249.721 26.9946 251.483 27.4278 253.052 28.2943C254.629 29.1608 255.879 30.4286 256.802 32.0976C257.726 33.7666 258.187 35.8014 258.187 38.202ZM252.797 38.202C252.797 36.7815 252.594 35.5813 252.189 34.6011C251.792 33.621 251.216 32.8788 250.463 32.3746C249.718 31.8703 248.819 31.6182 247.768 31.6182C246.724 31.6182 245.826 31.8703 245.073 32.3746C244.32 32.8788 243.741 33.621 243.336 34.6011C242.939 35.5813 242.74 36.7815 242.74 38.202C242.74 39.6224 242.939 40.8227 243.336 41.8028C243.741 42.783 244.32 43.5251 245.073 44.0294C245.826 44.5337 246.724 44.7858 247.768 44.7858C248.819 44.7858 249.718 44.5337 250.463 44.0294C251.216 43.5251 251.792 42.783 252.189 41.8028C252.594 40.8227 252.797 39.6224 252.797 38.202ZM262.339 27.2929H267.442V34.2389C267.442 34.9989 267.574 35.6132 267.837 36.082C268.106 36.5507 268.536 36.8952 269.126 37.1153C269.715 37.3284 270.493 37.4349 271.459 37.4349C271.721 37.4349 272.069 37.4278 272.503 37.4136C272.936 37.3923 273.391 37.3639 273.866 37.3284C274.349 37.2929 274.797 37.2467 275.209 37.1899C275.628 37.1331 275.954 37.0692 276.189 36.9982V41.0571C275.94 41.1352 275.599 41.2063 275.166 41.2702C274.733 41.3341 274.271 41.3874 273.781 41.43C273.291 41.4726 272.837 41.5045 272.417 41.5259C271.998 41.5472 271.679 41.5578 271.459 41.5578C269.626 41.5578 268.025 41.2986 266.654 40.7801C265.283 40.2545 264.221 39.452 263.469 38.3724C262.716 37.2929 262.339 35.9151 262.339 34.2389V27.2929ZM275.23 27.2929H280.365V49.1111H275.23V27.2929ZM284.68 49.1111V27.2929H299.893V31.5756H289.953V36.05H299.115V40.3433H289.953V44.8284H299.893V49.1111H284.68ZM303.195 49.1111V27.2929H308.469V36.05H317.066V27.2929H322.329V49.1111H317.066V40.3433H308.469V49.1111H303.195Z" fill="white"/>
<defs>
<linearGradient id="paint0_linear_344_177" x1="3.03984e-06" y1="38" x2="408" y2="38" gradientUnits="userSpaceOnUse">
<stop offset="0.01977" stop-opacity="0"/>
<stop offset="0.080613" stop-opacity="0.25"/>
<stop offset="0.148476" stop-opacity="0.5"/>
<stop offset="0.254951" stop-opacity="0.6"/>
<stop offset="0.383658" stop-opacity="0.75"/>
<stop offset="0.630208" stop-opacity="0.75"/>
<stop offset="0.772117" stop-opacity="0.6"/>
<stop offset="0.862211" stop-opacity="0.5"/>
<stop offset="0.918374" stop-opacity="0.25"/>
<stop offset="0.980387" stop-opacity="0"/>
</linearGradient>
</defs>
</svg>
