<svg width="270" height="68" viewBox="0 0 270 68" fill="none" xmlns="http://www.w3.org/2000/svg">
<rect width="270" height="68" rx="8" fill="#C0C0C0"/>
<path d="M93.6368 28.4297V26H106.402V28.4297H101.457V42H98.5821V28.4297H93.6368ZM118.449 42L113.184 35.0078H111.762V42H108.863V26H111.762V32.5781H112.488L118.176 26H121.746L115.426 33.2969L122.02 42H118.449ZM129.445 42V26H131.906L138.578 37.4297H138.727V26H141.219V42H138.781L132.102 30.625H131.953V42H129.445ZM143.297 37.2656V35.5391H150.172V37.2656H143.297ZM146.727 34.2109C145.951 34.2109 145.276 34.0469 144.703 33.7187C144.136 33.3906 143.695 32.9401 143.383 32.3672C143.07 31.7943 142.914 31.138 142.914 30.3984V29.5859C142.914 28.8516 143.068 28.1979 143.375 27.625C143.688 27.0521 144.128 26.6016 144.695 26.2734C145.268 25.9401 145.94 25.7734 146.711 25.7734C147.492 25.7734 148.167 25.9401 148.734 26.2734C149.302 26.6016 149.74 27.0521 150.047 27.625C150.354 28.1979 150.508 28.8516 150.508 29.5859V30.3984C150.508 31.1328 150.354 31.7891 150.047 32.3672C149.745 32.9401 149.31 33.3906 148.742 33.7187C148.18 34.0469 147.508 34.2109 146.727 34.2109ZM146.727 32.3984C147.263 32.3984 147.672 32.2161 147.953 31.8516C148.24 31.487 148.383 31.0026 148.383 30.3984V29.5859C148.383 28.987 148.24 28.5104 147.953 28.1562C147.672 27.7969 147.258 27.6172 146.711 27.6172C146.164 27.6172 145.75 27.7969 145.469 28.1562C145.193 28.5104 145.055 28.987 145.055 29.5859V30.3984C145.055 31.0026 145.195 31.487 145.477 31.8516C145.758 32.2161 146.175 32.3984 146.727 32.3984ZM159.945 26V42H157.047V28.8203H156.953L153.211 31.2109V28.5547L157.188 26H159.945ZM163.719 39.0312V36.7266L170.508 26H172.43V29.2812H171.258L166.688 36.5234V36.6484H176.164V39.0312H163.719ZM171.352 42V38.3281L171.383 37.2969V26H174.117V42H171.352Z" fill="#313F52"/>
</svg>
