<svg width="270" height="68" viewBox="0 0 270 68" fill="none" xmlns="http://www.w3.org/2000/svg">
<rect width="270" height="68" rx="8" fill="#438FF4"/>
<g filter="url(#filter0_d_344_159)">
<path d="M60.8135 26H63.6885V36.9062H63.8369L71.3604 26H73.9619V42H71.0635V31.1016H70.9307L63.3838 42H60.8135V26ZM85.2373 34.8281V37.1484H78.8467V34.8281H85.2373ZM79.7217 30V42H76.9951V30H79.7217ZM87.0889 30V42H84.3701V30H87.0889ZM95.1846 42.2344C93.9867 42.2344 92.958 41.9714 92.0986 41.4453C91.2445 40.9193 90.5856 40.1927 90.1221 39.2656C89.6637 38.3333 89.4346 37.2604 89.4346 36.0469C89.4346 34.8281 89.6689 33.7526 90.1377 32.8203C90.6064 31.8828 91.2679 31.1536 92.1221 30.6328C92.9814 30.1068 93.9971 29.8438 95.1689 29.8438C96.1429 29.8438 97.0049 30.0234 97.7549 30.3828C98.5101 30.737 99.1117 31.2396 99.5596 31.8906C100.007 32.5365 100.263 33.2917 100.325 34.1562H97.6221C97.5127 33.5781 97.2523 33.0964 96.8408 32.7109C96.4346 32.3203 95.8903 32.125 95.208 32.125C94.6299 32.125 94.1221 32.2812 93.6846 32.5937C93.2471 32.901 92.9059 33.3437 92.6611 33.9219C92.4215 34.5 92.3018 35.1927 92.3018 36C92.3018 36.8177 92.4215 37.5208 92.6611 38.1094C92.9007 38.6927 93.2367 39.1432 93.6689 39.4609C94.1064 39.7734 94.6195 39.9297 95.208 39.9297C95.6247 39.9297 95.9971 39.8516 96.3252 39.6953C96.6585 39.5339 96.9372 39.3021 97.1611 39C97.3851 38.6979 97.5387 38.3307 97.6221 37.8984H100.325C100.257 38.7474 100.007 39.5 99.5752 40.1562C99.1429 40.8073 98.5544 41.3177 97.8096 41.6875C97.0648 42.0521 96.1898 42.2344 95.1846 42.2344ZM101.776 32.3203V30H112.276V32.3203H108.394V42H105.659V32.3203H101.776ZM114.528 46.5V30H117.31V31.9844H117.474C117.619 31.6927 117.825 31.3828 118.091 31.0547C118.356 30.7214 118.716 30.4375 119.169 30.2031C119.622 29.9635 120.2 29.8438 120.903 29.8438C121.83 29.8438 122.666 30.0807 123.411 30.5547C124.161 31.0234 124.755 31.7187 125.192 32.6406C125.635 33.5573 125.856 34.6823 125.856 36.0156C125.856 37.3333 125.64 38.4531 125.208 39.375C124.776 40.2969 124.187 41 123.442 41.4844C122.698 41.9688 121.854 42.2109 120.911 42.2109C120.224 42.2109 119.653 42.0964 119.2 41.8672C118.747 41.638 118.382 41.362 118.106 41.0391C117.836 40.7109 117.625 40.401 117.474 40.1094H117.356V46.5H114.528ZM117.302 36C117.302 36.776 117.411 37.4557 117.63 38.0391C117.854 38.6224 118.174 39.0781 118.591 39.4062C119.013 39.7292 119.523 39.8906 120.122 39.8906C120.747 39.8906 121.271 39.724 121.692 39.3906C122.114 39.0521 122.432 38.5911 122.646 38.0078C122.864 37.4193 122.974 36.75 122.974 36C122.974 35.2552 122.867 34.5937 122.653 34.0156C122.44 33.4375 122.122 32.9844 121.7 32.6562C121.278 32.3281 120.752 32.1641 120.122 32.1641C119.518 32.1641 119.005 32.3229 118.583 32.6406C118.161 32.9583 117.841 33.4036 117.622 33.9766C117.409 34.5495 117.302 35.224 117.302 36ZM129.628 46.5C129.243 46.5 128.886 46.4688 128.558 46.4063C128.235 46.349 127.977 46.2813 127.784 46.2031L128.44 44C128.852 44.1198 129.219 44.1771 129.542 44.1719C129.865 44.1667 130.149 44.0651 130.394 43.8672C130.644 43.6745 130.854 43.3516 131.026 42.8984L131.269 42.25L126.917 30H129.917L132.683 39.0625H132.808L135.581 30H138.589L133.784 43.4531C133.56 44.0885 133.263 44.6328 132.894 45.0859C132.524 45.5443 132.071 45.8932 131.534 46.1328C131.003 46.3776 130.368 46.5 129.628 46.5ZM147.452 38.7109L151.015 30H153.296L148.444 42H146.468L141.726 30H143.983L147.452 38.7109ZM143.272 30V42H140.546V30H143.272ZM151.749 42V30H154.452V42H151.749ZM162.616 42.2344C161.413 42.2344 160.374 41.9844 159.499 41.4844C158.629 40.9792 157.96 40.2656 157.491 39.3437C157.022 38.4167 156.788 37.3255 156.788 36.0703C156.788 34.8359 157.022 33.7526 157.491 32.8203C157.965 31.8828 158.627 31.1536 159.476 30.6328C160.325 30.1068 161.322 29.8438 162.468 29.8438C163.207 29.8438 163.905 29.9635 164.562 30.2031C165.223 30.4375 165.806 30.8021 166.312 31.2969C166.822 31.7917 167.223 32.4219 167.515 33.1875C167.806 33.9479 167.952 34.8542 167.952 35.9062V36.7734H158.116V34.8672H165.241C165.236 34.3255 165.119 33.8437 164.89 33.4219C164.66 32.9948 164.34 32.6589 163.929 32.4141C163.522 32.1693 163.049 32.0469 162.507 32.0469C161.929 32.0469 161.421 32.1875 160.983 32.4687C160.546 32.7448 160.205 33.1094 159.96 33.5625C159.72 34.0104 159.598 34.5026 159.593 35.0391V36.7031C159.593 37.401 159.72 38 159.976 38.5C160.231 38.9948 160.588 39.375 161.046 39.6406C161.504 39.901 162.041 40.0312 162.655 40.0312C163.067 40.0312 163.439 39.974 163.772 39.8594C164.106 39.7396 164.395 39.5651 164.64 39.3359C164.884 39.1068 165.069 38.8229 165.194 38.4844L167.835 38.7812C167.668 39.4792 167.351 40.0885 166.882 40.6094C166.418 41.125 165.825 41.526 165.101 41.8125C164.377 42.0937 163.549 42.2344 162.616 42.2344ZM178.587 34.8281V37.1484H172.196V34.8281H178.587ZM173.071 30V42H170.345V30H173.071ZM180.438 30V42H177.72V30H180.438ZM181.956 32.3203V30H192.456V32.3203H188.573V42H185.839V32.3203H181.956ZM196.622 33.9062H200.161C201.692 33.9062 202.877 34.2786 203.716 35.0234C204.554 35.7682 204.976 36.7448 204.981 37.9531C204.976 38.7396 204.784 39.4375 204.403 40.0469C204.028 40.6562 203.481 41.1354 202.763 41.4844C202.049 41.8281 201.182 42 200.161 42H194.708V30H197.435V39.6797H200.161C200.776 39.6797 201.281 39.5234 201.677 39.2109C202.073 38.8932 202.271 38.487 202.271 37.9922C202.271 37.4714 202.073 37.0469 201.677 36.7187C201.281 36.3906 200.776 36.2266 200.161 36.2266H196.622V33.9062ZM206.474 42V30H209.302V42H206.474Z" fill="white"/>
</g>
<defs>
<filter id="filter0_d_344_159" x="57.8135" y="23" width="154.488" height="26.5" filterUnits="userSpaceOnUse" color-interpolation-filters="sRGB">
<feFlood flood-opacity="0" result="BackgroundImageFix"/>
<feColorMatrix in="SourceAlpha" type="matrix" values="0 0 0 0 0 0 0 0 0 0 0 0 0 0 0 0 0 0 127 0" result="hardAlpha"/>
<feOffset/>
<feGaussianBlur stdDeviation="1.5"/>
<feComposite in2="hardAlpha" operator="out"/>
<feColorMatrix type="matrix" values="0 0 0 0 0 0 0 0 0 0 0 0 0 0 0 0 0 0 0.3 0"/>
<feBlend mode="normal" in2="BackgroundImageFix" result="effect1_dropShadow_344_159"/>
<feBlend mode="normal" in="SourceGraphic" in2="effect1_dropShadow_344_159" result="shape"/>
</filter>
</defs>
</svg>
