<svg width="270" height="68" viewBox="0 0 270 68" fill="none" xmlns="http://www.w3.org/2000/svg">
<rect width="270" height="68" rx="8" fill="white"/>
<path d="M65.003 30V14H71.003C72.2322 14 73.2634 14.2292 74.0968 14.6875C74.9353 15.1458 75.5681 15.776 75.9952 16.5781C76.4275 17.375 76.6436 18.2812 76.6436 19.2969C76.6436 20.3229 76.4275 21.2344 75.9952 22.0313C75.5629 22.8281 74.9249 23.4557 74.0811 23.9141C73.2374 24.3672 72.1983 24.5937 70.964 24.5937H66.9874V22.2109H70.5733C71.2921 22.2109 71.8806 22.0859 72.339 21.8359C72.7973 21.5859 73.1358 21.2422 73.3546 20.8047C73.5785 20.3672 73.6905 19.8646 73.6905 19.2969C73.6905 18.7292 73.5785 18.2292 73.3546 17.7969C73.1358 17.3646 72.7947 17.0286 72.3311 16.7891C71.8728 16.5443 71.2817 16.4219 70.5577 16.4219H67.9015V30H65.003ZM80.794 34.5C80.4086 34.5 80.0518 34.4688 79.7237 34.4063C79.4008 34.349 79.143 34.2813 78.9503 34.2031L79.6065 32C80.018 32.1198 80.3852 32.1771 80.7081 32.1719C81.031 32.1667 81.3149 32.0651 81.5597 31.8672C81.8097 31.6745 82.0206 31.3516 82.1925 30.8984L82.4347 30.25L78.0831 18H81.0831L83.8487 27.0625H83.9737L86.7472 18H89.755L84.9503 31.4531C84.7263 32.0885 84.4295 32.6328 84.0597 33.0859C83.6899 33.5443 83.2367 33.8932 82.7003 34.1328C82.169 34.3776 81.5336 34.5 80.794 34.5ZM91.712 30V18H94.5401V22.8437H95.5714L99.1808 18H102.587L98.1417 23.8906L102.634 30H99.212L95.9229 25.4766H94.5401V30H91.712ZM108.978 30.2344C107.806 30.2344 106.79 29.9766 105.931 29.4609C105.071 28.9453 104.405 28.224 103.931 27.2969C103.462 26.3698 103.228 25.2865 103.228 24.0469C103.228 22.8073 103.462 21.7214 103.931 20.7891C104.405 19.8568 105.071 19.1328 105.931 18.6172C106.79 18.1016 107.806 17.8438 108.978 17.8438C110.15 17.8438 111.165 18.1016 112.025 18.6172C112.884 19.1328 113.548 19.8568 114.017 20.7891C114.491 21.7214 114.728 22.8073 114.728 24.0469C114.728 25.2865 114.491 26.3698 114.017 27.2969C113.548 28.224 112.884 28.9453 112.025 29.4609C111.165 29.9766 110.15 30.2344 108.978 30.2344ZM108.993 27.9687C109.629 27.9687 110.16 27.7943 110.587 27.4453C111.014 27.0911 111.332 26.6172 111.54 26.0234C111.754 25.4297 111.86 24.7682 111.86 24.0391C111.86 23.3047 111.754 22.6406 111.54 22.0469C111.332 21.4479 111.014 20.9714 110.587 20.6172C110.16 20.263 109.629 20.0859 108.993 20.0859C108.342 20.0859 107.801 20.263 107.368 20.6172C106.941 20.9714 106.621 21.4479 106.407 22.0469C106.199 22.6406 106.095 23.3047 106.095 24.0391C106.095 24.7682 106.199 25.4297 106.407 26.0234C106.621 26.6172 106.941 27.0911 107.368 27.4453C107.801 27.7943 108.342 27.9687 108.993 27.9687ZM117.128 30V18H122.167C123.589 18 124.711 18.2839 125.534 18.8516C126.362 19.4193 126.776 20.2109 126.776 21.2266C126.776 21.8984 126.542 22.4479 126.073 22.875C125.61 23.2969 124.977 23.5807 124.175 23.7266C124.805 23.7786 125.357 23.9375 125.831 24.2031C126.31 24.4687 126.685 24.8177 126.956 25.25C127.227 25.6823 127.362 26.1797 127.362 26.7422C127.362 27.4036 127.188 27.9792 126.839 28.4687C126.495 28.9531 125.993 29.3307 125.331 29.6016C124.675 29.8672 123.878 30 122.941 30H117.128ZM119.776 27.7734H122.941C123.461 27.7734 123.87 27.651 124.167 27.4062C124.464 27.1562 124.612 26.8177 124.612 26.3906C124.612 25.8958 124.464 25.5078 124.167 25.2266C123.87 24.9401 123.461 24.7969 122.941 24.7969H119.776V27.7734ZM119.776 22.9687H122.222C122.607 22.9687 122.938 22.9141 123.214 22.8047C123.49 22.6901 123.701 22.5313 123.847 22.3281C123.993 22.1198 124.066 21.8724 124.066 21.5859C124.066 21.1745 123.896 20.8516 123.558 20.6172C123.224 20.3828 122.761 20.2656 122.167 20.2656H119.776V22.9687ZM134.931 30.2344C133.759 30.2344 132.743 29.9766 131.884 29.4609C131.025 28.9453 130.358 28.224 129.884 27.2969C129.415 26.3698 129.181 25.2865 129.181 24.0469C129.181 22.8073 129.415 21.7214 129.884 20.7891C130.358 19.8568 131.025 19.1328 131.884 18.6172C132.743 18.1016 133.759 17.8438 134.931 17.8438C136.103 17.8438 137.118 18.1016 137.978 18.6172C138.837 19.1328 139.501 19.8568 139.97 20.7891C140.444 21.7214 140.681 22.8073 140.681 24.0469C140.681 25.2865 140.444 26.3698 139.97 27.2969C139.501 28.224 138.837 28.9453 137.978 29.4609C137.118 29.9766 136.103 30.2344 134.931 30.2344ZM134.946 27.9687C135.582 27.9687 136.113 27.7943 136.54 27.4453C136.967 27.0911 137.285 26.6172 137.493 26.0234C137.707 25.4297 137.814 24.7682 137.814 24.0391C137.814 23.3047 137.707 22.6406 137.493 22.0469C137.285 21.4479 136.967 20.9714 136.54 20.6172C136.113 20.263 135.582 20.0859 134.946 20.0859C134.295 20.0859 133.754 20.263 133.321 20.6172C132.894 20.9714 132.574 21.4479 132.36 22.0469C132.152 22.6406 132.048 23.3047 132.048 24.0391C132.048 24.7682 132.152 25.4297 132.36 26.0234C132.574 26.6172 132.894 27.0911 133.321 27.4453C133.754 27.7943 134.295 27.9687 134.946 27.9687ZM142.019 33.4844V27.6719H142.972C143.227 27.474 143.441 27.2057 143.612 26.8672C143.784 26.5234 143.925 26.1198 144.034 25.6562C144.149 25.1875 144.243 24.6641 144.316 24.0859C144.388 23.5026 144.454 22.875 144.511 22.2031L144.855 18H153.526V27.6719H155.386V33.4844H152.651V30H144.8V33.4844H142.019ZM145.878 27.6719H150.823V20.2812H147.308L147.12 22.2031C147.016 23.474 146.878 24.5625 146.706 25.4687C146.534 26.375 146.258 27.1094 145.878 27.6719ZM162.732 30.2344C161.534 30.2344 160.505 29.9714 159.646 29.4453C158.791 28.9193 158.133 28.1927 157.669 27.2656C157.211 26.3333 156.982 25.2604 156.982 24.0469C156.982 22.8281 157.216 21.7526 157.685 20.8203C158.153 19.8828 158.815 19.1536 159.669 18.6328C160.528 18.1068 161.544 17.8438 162.716 17.8438C163.69 17.8438 164.552 18.0234 165.302 18.3828C166.057 18.737 166.659 19.2396 167.107 19.8906C167.554 20.5365 167.81 21.2917 167.872 22.1562H165.169C165.06 21.5781 164.799 21.0964 164.388 20.7109C163.982 20.3203 163.437 20.125 162.755 20.125C162.177 20.125 161.669 20.2812 161.232 20.5937C160.794 20.901 160.453 21.3437 160.208 21.9219C159.969 22.5 159.849 23.1927 159.849 24C159.849 24.8177 159.969 25.5208 160.208 26.1094C160.448 26.6927 160.784 27.1432 161.216 27.4609C161.653 27.7734 162.166 27.9297 162.755 27.9297C163.172 27.9297 163.544 27.8516 163.872 27.6953C164.205 27.5339 164.484 27.3021 164.708 27C164.932 26.6979 165.086 26.3307 165.169 25.8984H167.872C167.804 26.7474 167.554 27.5 167.122 28.1562C166.69 28.8073 166.101 29.3177 165.357 29.6875C164.612 30.0521 163.737 30.2344 162.732 30.2344ZM169.323 20.3203V18H179.823V20.3203H175.941V30H173.206V20.3203H169.323ZM182.075 30V18H187.114C188.536 18 189.659 18.2839 190.482 18.8516C191.31 19.4193 191.724 20.2109 191.724 21.2266C191.724 21.8984 191.489 22.4479 191.021 22.875C190.557 23.2969 189.924 23.5807 189.122 23.7266C189.752 23.7786 190.304 23.9375 190.778 24.2031C191.258 24.4687 191.633 24.8177 191.903 25.25C192.174 25.6823 192.31 26.1797 192.31 26.7422C192.31 27.4036 192.135 27.9792 191.786 28.4687C191.442 28.9531 190.94 29.3307 190.278 29.6016C189.622 29.8672 188.825 30 187.888 30H182.075ZM184.724 27.7734H187.888C188.409 27.7734 188.817 27.651 189.114 27.4062C189.411 27.1562 189.56 26.8177 189.56 26.3906C189.56 25.8958 189.411 25.5078 189.114 25.2266C188.817 24.9401 188.409 24.7969 187.888 24.7969H184.724V27.7734ZM184.724 22.9687H187.169C187.554 22.9687 187.885 22.9141 188.161 22.8047C188.437 22.6901 188.648 22.5313 188.794 22.3281C188.94 22.1198 189.013 21.8724 189.013 21.5859C189.013 21.1745 188.844 20.8516 188.505 20.6172C188.172 20.3828 187.708 20.2656 187.114 20.2656H184.724V22.9687ZM199.878 30.2344C198.706 30.2344 197.691 29.9766 196.831 29.4609C195.972 28.9453 195.305 28.224 194.831 27.2969C194.362 26.3698 194.128 25.2865 194.128 24.0469C194.128 22.8073 194.362 21.7214 194.831 20.7891C195.305 19.8568 195.972 19.1328 196.831 18.6172C197.691 18.1016 198.706 17.8438 199.878 17.8438C201.05 17.8438 202.066 18.1016 202.925 18.6172C203.784 19.1328 204.448 19.8568 204.917 20.7891C205.391 21.7214 205.628 22.8073 205.628 24.0469C205.628 25.2865 205.391 26.3698 204.917 27.2969C204.448 28.224 203.784 28.9453 202.925 29.4609C202.066 29.9766 201.05 30.2344 199.878 30.2344ZM199.894 27.9687C200.529 27.9687 201.06 27.7943 201.487 27.4453C201.914 27.0911 202.232 26.6172 202.441 26.0234C202.654 25.4297 202.761 24.7682 202.761 24.0391C202.761 23.3047 202.654 22.6406 202.441 22.0469C202.232 21.4479 201.914 20.9714 201.487 20.6172C201.06 20.263 200.529 20.0859 199.894 20.0859C199.243 20.0859 198.701 20.263 198.269 20.6172C197.842 20.9714 197.521 21.4479 197.308 22.0469C197.099 22.6406 196.995 23.3047 196.995 24.0391C196.995 24.7682 197.099 25.4297 197.308 26.0234C197.521 26.6172 197.842 27.0911 198.269 27.4453C198.701 27.7943 199.243 27.9687 199.894 27.9687ZM60.463 55V43H70.5958V55H67.8692V45.3203H63.1661V55H60.463ZM78.7384 55.2344C77.5665 55.2344 76.5509 54.9766 75.6915 54.4609C74.8321 53.9453 74.1655 53.224 73.6915 52.2969C73.2227 51.3698 72.9884 50.2865 72.9884 49.0469C72.9884 47.8073 73.2227 46.7214 73.6915 45.7891C74.1655 44.8568 74.8321 44.1328 75.6915 43.6172C76.5509 43.1016 77.5665 42.8438 78.7384 42.8438C79.9102 42.8438 80.9259 43.1016 81.7852 43.6172C82.6446 44.1328 83.3087 44.8568 83.7774 45.7891C84.2514 46.7214 84.4884 47.8073 84.4884 49.0469C84.4884 50.2865 84.2514 51.3698 83.7774 52.2969C83.3087 53.224 82.6446 53.9453 81.7852 54.4609C80.9259 54.9766 79.9102 55.2344 78.7384 55.2344ZM78.754 52.9687C79.3894 52.9687 79.9207 52.7943 80.3477 52.4453C80.7748 52.0911 81.0925 51.6172 81.3009 51.0234C81.5144 50.4297 81.6212 49.7682 81.6212 49.0391C81.6212 48.3047 81.5144 47.6406 81.3009 47.0469C81.0925 46.4479 80.7748 45.9714 80.3477 45.6172C79.9207 45.263 79.3894 45.0859 78.754 45.0859C78.103 45.0859 77.5613 45.263 77.129 45.6172C76.7019 45.9714 76.3816 46.4479 76.1681 47.0469C75.9597 47.6406 75.8556 48.3047 75.8556 49.0391C75.8556 49.7682 75.9597 50.4297 76.1681 51.0234C76.3816 51.6172 76.7019 52.0911 77.129 52.4453C77.5613 52.7943 78.103 52.9687 78.754 52.9687ZM86.0606 55L86.045 52.6719H86.4591C86.7716 52.6719 87.0346 52.6016 87.2481 52.4609C87.4617 52.3203 87.6388 52.0859 87.7794 51.7578C87.92 51.4245 88.0294 50.9766 88.1075 50.4141C88.1856 49.8516 88.2403 49.151 88.2716 48.3125L88.4825 43H97.2325V55H94.4981V45.3203H91.0528L90.8653 49.1875C90.8185 50.1875 90.7065 51.0547 90.5294 51.7891C90.3575 52.5182 90.1127 53.1198 89.795 53.5938C89.4825 54.0677 89.0893 54.4219 88.6153 54.6562C88.1414 54.8854 87.5815 55 86.9356 55H86.0606ZM101.994 46.9062H105.533C107.065 46.9062 108.249 47.2786 109.088 48.0234C109.927 48.7682 110.348 49.7448 110.354 50.9531C110.348 51.7396 110.156 52.4375 109.775 53.0469C109.4 53.6562 108.854 54.1354 108.135 54.4844C107.421 54.8281 106.554 55 105.533 55H100.08V43H102.807V52.6797H105.533C106.148 52.6797 106.653 52.5234 107.049 52.2109C107.445 51.8932 107.643 51.487 107.643 50.9922C107.643 50.4714 107.445 50.0469 107.049 49.7187C106.653 49.3906 106.148 49.2266 105.533 49.2266H101.994V46.9062ZM112.113 51.7109H114.918C114.944 52.1589 115.145 52.5052 115.52 52.75C115.895 52.9948 116.382 53.1172 116.981 53.1172C117.59 53.1172 118.103 52.9844 118.52 52.7187C118.941 52.4479 119.152 52.0391 119.152 51.4922C119.152 51.1693 119.072 50.8854 118.91 50.6406C118.749 50.3906 118.522 50.1979 118.231 50.0625C117.939 49.9271 117.595 49.8594 117.199 49.8594H115.363V47.8516H117.199C117.788 47.8516 118.233 47.7161 118.535 47.4453C118.843 47.1745 118.996 46.8333 118.996 46.4219C118.996 45.9792 118.835 45.6198 118.512 45.3437C118.194 45.0677 117.754 44.9297 117.191 44.9297C116.629 44.9297 116.16 45.0573 115.785 45.3125C115.415 45.5677 115.223 45.8958 115.207 46.2969H112.418C112.428 45.599 112.637 44.9922 113.043 44.4766C113.455 43.9609 114.007 43.5599 114.699 43.2734C115.397 42.987 116.184 42.8438 117.059 42.8438C117.996 42.8438 118.806 42.9844 119.488 43.2656C120.171 43.5469 120.697 43.9401 121.066 44.4453C121.436 44.9453 121.621 45.5339 121.621 46.2109C121.621 46.862 121.418 47.401 121.012 47.8281C120.606 48.25 120.059 48.5521 119.371 48.7344V48.8594C119.845 48.8854 120.272 49.0208 120.652 49.2656C121.033 49.5052 121.335 49.8307 121.559 50.2422C121.783 50.6536 121.895 51.1302 121.895 51.6719C121.895 52.4062 121.684 53.0417 121.262 53.5781C120.84 54.1094 120.259 54.5182 119.52 54.8047C118.785 55.0911 117.944 55.2344 116.996 55.2344C116.074 55.2344 115.249 55.0964 114.52 54.8203C113.796 54.5391 113.22 54.1354 112.793 53.6094C112.366 53.0833 112.139 52.4505 112.113 51.7109ZM129.356 55.2344C128.184 55.2344 127.168 54.9766 126.309 54.4609C125.449 53.9453 124.783 53.224 124.309 52.2969C123.84 51.3698 123.606 50.2865 123.606 49.0469C123.606 47.8073 123.84 46.7214 124.309 45.7891C124.783 44.8568 125.449 44.1328 126.309 43.6172C127.168 43.1016 128.184 42.8438 129.356 42.8438C130.527 42.8438 131.543 43.1016 132.402 43.6172C133.262 44.1328 133.926 44.8568 134.395 45.7891C134.869 46.7214 135.106 47.8073 135.106 49.0469C135.106 50.2865 134.869 51.3698 134.395 52.2969C133.926 53.224 133.262 53.9453 132.402 54.4609C131.543 54.9766 130.527 55.2344 129.356 55.2344ZM129.371 52.9687C130.007 52.9687 130.538 52.7943 130.965 52.4453C131.392 52.0911 131.71 51.6172 131.918 51.0234C132.132 50.4297 132.238 49.7682 132.238 49.0391C132.238 48.3047 132.132 47.6406 131.918 47.0469C131.71 46.4479 131.392 45.9714 130.965 45.6172C130.538 45.263 130.007 45.0859 129.371 45.0859C128.72 45.0859 128.178 45.263 127.746 45.6172C127.319 45.9714 126.999 46.4479 126.785 47.0469C126.577 47.6406 126.473 48.3047 126.473 49.0391C126.473 49.7682 126.577 50.4297 126.785 51.0234C126.999 51.6172 127.319 52.0911 127.746 52.4453C128.178 52.7943 128.72 52.9687 129.371 52.9687ZM137.506 55V43H142.545C143.967 43 145.089 43.2839 145.912 43.8516C146.74 44.4193 147.154 45.2109 147.154 46.2266C147.154 46.8984 146.92 47.4479 146.451 47.875C145.988 48.2969 145.355 48.5807 144.553 48.7266C145.183 48.7786 145.735 48.9375 146.209 49.2031C146.688 49.4687 147.063 49.8177 147.334 50.25C147.605 50.6823 147.74 51.1797 147.74 51.7422C147.74 52.4036 147.566 52.9792 147.217 53.4687C146.873 53.9531 146.371 54.3307 145.709 54.6016C145.053 54.8672 144.256 55 143.318 55H137.506ZM140.154 52.7734H143.318C143.839 52.7734 144.248 52.651 144.545 52.4062C144.842 52.1562 144.99 51.8177 144.99 51.3906C144.99 50.8958 144.842 50.5078 144.545 50.2266C144.248 49.9401 143.839 49.7969 143.318 49.7969H140.154V52.7734ZM140.154 47.9687H142.6C142.985 47.9687 143.316 47.9141 143.592 47.8047C143.868 47.6901 144.079 47.5313 144.225 47.3281C144.371 47.1198 144.443 46.8724 144.443 46.5859C144.443 46.1745 144.274 45.8516 143.936 45.6172C143.602 45.3828 143.139 45.2656 142.545 45.2656H140.154V47.9687ZM153.527 55.2422C152.767 55.2422 152.082 55.1068 151.473 54.8359C150.869 54.5599 150.389 54.1536 150.035 53.6172C149.686 53.0807 149.512 52.4193 149.512 51.6328C149.512 50.9557 149.637 50.3958 149.887 49.9531C150.137 49.5104 150.478 49.1562 150.91 48.8906C151.343 48.625 151.83 48.4245 152.371 48.2891C152.918 48.1484 153.483 48.0469 154.066 47.9844C154.77 47.9115 155.34 47.8464 155.777 47.7891C156.215 47.7266 156.533 47.6328 156.731 47.5078C156.934 47.3776 157.035 47.1771 157.035 46.9062V46.8594C157.035 46.2708 156.861 45.8151 156.512 45.4922C156.163 45.1693 155.66 45.0078 155.004 45.0078C154.311 45.0078 153.762 45.1589 153.356 45.4609C152.955 45.763 152.684 46.1198 152.543 46.5312L149.902 46.1562C150.111 45.4271 150.455 44.8177 150.934 44.3281C151.413 43.8333 151.999 43.4635 152.691 43.2187C153.384 42.9688 154.15 42.8438 154.988 42.8438C155.566 42.8438 156.142 42.9115 156.715 43.0469C157.288 43.1823 157.811 43.4062 158.285 43.7187C158.759 44.026 159.139 44.4453 159.426 44.9766C159.718 45.5078 159.863 46.1719 159.863 46.9687V55H157.145V53.3516H157.051C156.879 53.6849 156.637 53.9974 156.324 54.2891C156.017 54.5755 155.629 54.8073 155.16 54.9844C154.697 55.1563 154.152 55.2422 153.527 55.2422ZM154.262 53.1641C154.83 53.1641 155.322 53.0521 155.738 52.8281C156.155 52.599 156.475 52.2969 156.699 51.9219C156.928 51.5469 157.043 51.138 157.043 50.6953V49.2812C156.955 49.3542 156.803 49.4219 156.59 49.4844C156.382 49.5469 156.147 49.6016 155.887 49.6484C155.626 49.6953 155.369 49.737 155.113 49.7734C154.858 49.8099 154.637 49.8411 154.449 49.8672C154.027 49.9245 153.65 50.0182 153.316 50.1484C152.983 50.2786 152.72 50.4609 152.527 50.6953C152.335 50.9245 152.238 51.2214 152.238 51.5859C152.238 52.1068 152.428 52.5 152.809 52.7656C153.189 53.0312 153.673 53.1641 154.262 53.1641ZM161.363 45.3203V43H171.863V45.3203H167.981V55H165.246V45.3203H161.363ZM178.934 55.2344C177.731 55.2344 176.691 54.9844 175.816 54.4844C174.947 53.9792 174.277 53.2656 173.809 52.3437C173.34 51.4167 173.106 50.3255 173.106 49.0703C173.106 47.8359 173.34 46.7526 173.809 45.8203C174.283 44.8828 174.944 44.1536 175.793 43.6328C176.642 43.1068 177.639 42.8438 178.785 42.8438C179.525 42.8438 180.223 42.9635 180.879 43.2031C181.54 43.4375 182.124 43.8021 182.629 44.2969C183.139 44.7917 183.54 45.4219 183.832 46.1875C184.124 46.9479 184.27 47.8542 184.27 48.9062V49.7734H174.434V47.8672H181.559C181.553 47.3255 181.436 46.8437 181.207 46.4219C180.978 45.9948 180.658 45.6589 180.246 45.4141C179.84 45.1693 179.366 45.0469 178.824 45.0469C178.246 45.0469 177.738 45.1875 177.301 45.4687C176.863 45.7448 176.522 46.1094 176.277 46.5625C176.038 47.0104 175.915 47.5026 175.91 48.0391V49.7031C175.91 50.401 176.038 51 176.293 51.5C176.548 51.9948 176.905 52.375 177.363 52.6406C177.822 52.901 178.358 53.0312 178.973 53.0312C179.384 53.0312 179.757 52.974 180.09 52.8594C180.423 52.7396 180.712 52.5651 180.957 52.3359C181.202 52.1068 181.387 51.8229 181.512 51.4844L184.152 51.7812C183.986 52.4792 183.668 53.0885 183.199 53.6094C182.736 54.125 182.142 54.526 181.418 54.8125C180.694 55.0937 179.866 55.2344 178.934 55.2344ZM185.834 55L185.818 52.6719H186.233C186.545 52.6719 186.808 52.6016 187.022 52.4609C187.235 52.3203 187.412 52.0859 187.553 51.7578C187.693 51.4245 187.803 50.9766 187.881 50.4141C187.959 49.8516 188.014 49.151 188.045 48.3125L188.256 43H197.006V55H194.272V45.3203H190.826L190.639 49.1875C190.592 50.1875 190.48 51.0547 190.303 51.7891C190.131 52.5182 189.886 53.1198 189.568 53.5938C189.256 54.0677 188.863 54.4219 188.389 54.6562C187.915 54.8854 187.355 55 186.709 55H185.834ZM206.947 55V45.2969H204.385C203.734 45.2969 203.234 45.4479 202.885 45.75C202.536 46.0521 202.364 46.4271 202.369 46.875C202.364 47.3229 202.528 47.6927 202.861 47.9844C203.195 48.276 203.671 48.4219 204.291 48.4219H207.838V50.4844H204.291C203.333 50.4844 202.505 50.3333 201.807 50.0312C201.109 49.7292 200.572 49.3021 200.197 48.75C199.822 48.1979 199.635 47.5521 199.635 46.8125C199.635 46.0417 199.825 45.3724 200.205 44.8047C200.591 44.2318 201.137 43.7891 201.846 43.4766C202.559 43.1589 203.406 43 204.385 43H209.596V55H206.947ZM199.197 55L202.549 48.8437H205.338L201.979 55H199.197Z" fill="#313F52"/>
</svg>
