<svg width="270" height="68" viewBox="0 0 270 68" fill="none" xmlns="http://www.w3.org/2000/svg">
<rect width="270" height="68" rx="8" fill="white"/>
<path d="M72.7403 26V42H69.8653V28.4062H62.8653V42H59.9903V26H72.7403ZM76.0821 46.5V30H78.8634V31.9844H79.0274C79.1733 31.6927 79.379 31.3828 79.6446 31.0547C79.9102 30.7214 80.2696 30.4375 80.7227 30.2031C81.1759 29.9635 81.754 29.8438 82.4571 29.8438C83.3842 29.8438 84.2201 30.0807 84.9649 30.5547C85.7149 31.0234 86.3087 31.7187 86.7462 32.6406C87.1889 33.5573 87.4102 34.6823 87.4102 36.0156C87.4102 37.3333 87.1941 38.4531 86.7618 39.375C86.3295 40.2969 85.741 41 84.9962 41.4844C84.2514 41.9688 83.4076 42.2109 82.4649 42.2109C81.7774 42.2109 81.2071 42.0964 80.754 41.8672C80.3009 41.638 79.9363 41.362 79.6602 41.0391C79.3894 40.7109 79.1785 40.401 79.0274 40.1094H78.9102V46.5H76.0821ZM78.8556 36C78.8556 36.776 78.9649 37.4557 79.1837 38.0391C79.4076 38.6224 79.728 39.0781 80.1446 39.4062C80.5665 39.7292 81.0769 39.8906 81.6759 39.8906C82.3009 39.8906 82.8243 39.724 83.2462 39.3906C83.6681 39.0521 83.9858 38.5911 84.1993 38.0078C84.4181 37.4193 84.5274 36.75 84.5274 36C84.5274 35.2552 84.4207 34.5937 84.2071 34.0156C83.9936 33.4375 83.6759 32.9844 83.254 32.6562C82.8321 32.3281 82.3061 32.1641 81.6759 32.1641C81.0717 32.1641 80.5587 32.3229 80.1368 32.6406C79.7149 32.9583 79.3946 33.4036 79.1759 33.9766C78.9623 34.5495 78.8556 35.224 78.8556 36ZM95.0665 42.2344C93.8946 42.2344 92.879 41.9766 92.0196 41.4609C91.1602 40.9453 90.4936 40.224 90.0196 39.2969C89.5509 38.3698 89.3165 37.2865 89.3165 36.0469C89.3165 34.8073 89.5509 33.7214 90.0196 32.7891C90.4936 31.8568 91.1602 31.1328 92.0196 30.6172C92.879 30.1016 93.8946 29.8438 95.0665 29.8438C96.2384 29.8438 97.254 30.1016 98.1134 30.6172C98.9727 31.1328 99.6368 31.8568 100.106 32.7891C100.58 33.7214 100.816 34.8073 100.816 36.0469C100.816 37.2865 100.58 38.3698 100.106 39.2969C99.6368 40.224 98.9727 40.9453 98.1134 41.4609C97.254 41.9766 96.2384 42.2344 95.0665 42.2344ZM95.0821 39.9687C95.7175 39.9687 96.2488 39.7943 96.6759 39.4453C97.103 39.0911 97.4207 38.6172 97.629 38.0234C97.8425 37.4297 97.9493 36.7682 97.9493 36.0391C97.9493 35.3047 97.8425 34.6406 97.629 34.0469C97.4207 33.4479 97.103 32.9714 96.6759 32.6172C96.2488 32.263 95.7175 32.0859 95.0821 32.0859C94.4311 32.0859 93.8894 32.263 93.4571 32.6172C93.03 32.9714 92.7097 33.4479 92.4962 34.0469C92.2879 34.6406 92.1837 35.3047 92.1837 36.0391C92.1837 36.7682 92.2879 37.4297 92.4962 38.0234C92.7097 38.6172 93.03 39.0911 93.4571 39.4453C93.8894 39.7943 94.4311 39.9687 95.0821 39.9687ZM105.078 30L107.5 34.4297L109.961 30H112.953L109.336 36L113.016 42H110.039L107.5 37.6797L104.984 42H101.984L105.641 36L102.078 30H105.078ZM119.924 42.2344C118.752 42.2344 117.736 41.9766 116.877 41.4609C116.018 40.9453 115.351 40.224 114.877 39.2969C114.408 38.3698 114.174 37.2865 114.174 36.0469C114.174 34.8073 114.408 33.7214 114.877 32.7891C115.351 31.8568 116.018 31.1328 116.877 30.6172C117.736 30.1016 118.752 29.8438 119.924 29.8438C121.096 29.8438 122.111 30.1016 122.971 30.6172C123.83 31.1328 124.494 31.8568 124.963 32.7891C125.437 33.7214 125.674 34.8073 125.674 36.0469C125.674 37.2865 125.437 38.3698 124.963 39.2969C124.494 40.224 123.83 40.9453 122.971 41.4609C122.111 41.9766 121.096 42.2344 119.924 42.2344ZM119.94 39.9687C120.575 39.9687 121.106 39.7943 121.533 39.4453C121.96 39.0911 122.278 38.6172 122.486 38.0234C122.7 37.4297 122.807 36.7682 122.807 36.0391C122.807 35.3047 122.7 34.6406 122.486 34.0469C122.278 33.4479 121.96 32.9714 121.533 32.6172C121.106 32.263 120.575 32.0859 119.94 32.0859C119.289 32.0859 118.747 32.263 118.315 32.6172C117.887 32.9714 117.567 33.4479 117.354 34.0469C117.145 34.6406 117.041 35.3047 117.041 36.0391C117.041 36.7682 117.145 37.4297 117.354 38.0234C117.567 38.6172 117.887 39.0911 118.315 39.4453C118.747 39.7943 119.289 39.9687 119.94 39.9687ZM126.842 42L131.272 35.8047L126.881 30H130.147L133.561 34.8359H134.233V30H137.061V34.8359H137.717L141.131 30H144.397L140.029 35.8047L144.436 42H141.1L137.686 37.1562H137.061V42H134.233V37.1562H133.608L130.178 42H126.842ZM145.488 45.4844V39.6719H146.441C146.697 39.474 146.91 39.2057 147.082 38.8672C147.254 38.5234 147.395 38.1198 147.504 37.6562C147.619 37.1875 147.712 36.6641 147.785 36.0859C147.858 35.5026 147.923 34.875 147.981 34.2031L148.324 30H156.996V39.6719H158.856V45.4844H156.121V42H148.27V45.4844H145.488ZM149.348 39.6719H154.293V32.2812H150.777L150.59 34.2031C150.486 35.474 150.348 36.5625 150.176 37.4687C150.004 38.375 149.728 39.1094 149.348 39.6719ZM166.279 42.2344C165.076 42.2344 164.037 41.9844 163.162 41.4844C162.292 40.9792 161.623 40.2656 161.154 39.3437C160.686 38.4167 160.451 37.3255 160.451 36.0703C160.451 34.8359 160.686 33.7526 161.154 32.8203C161.628 31.8828 162.29 31.1536 163.139 30.6328C163.988 30.1068 164.985 29.8438 166.131 29.8438C166.871 29.8438 167.568 29.9635 168.225 30.2031C168.886 30.4375 169.469 30.8021 169.975 31.2969C170.485 31.7917 170.886 32.4219 171.178 33.1875C171.469 33.9479 171.615 34.8542 171.615 35.9062V36.7734H161.779V34.8672H168.904C168.899 34.3255 168.782 33.8437 168.553 33.4219C168.324 32.9948 168.003 32.6589 167.592 32.4141C167.186 32.1693 166.712 32.0469 166.17 32.0469C165.592 32.0469 165.084 32.1875 164.647 32.4687C164.209 32.7448 163.868 33.1094 163.623 33.5625C163.384 34.0104 163.261 34.5026 163.256 35.0391V36.7031C163.256 37.401 163.384 38 163.639 38.5C163.894 38.9948 164.251 39.375 164.709 39.6406C165.167 39.901 165.704 40.0312 166.318 40.0312C166.73 40.0312 167.102 39.974 167.436 39.8594C167.769 39.7396 168.058 39.5651 168.303 39.3359C168.548 39.1068 168.733 38.8229 168.858 38.4844L171.498 38.7812C171.331 39.4792 171.014 40.0885 170.545 40.6094C170.081 41.125 169.488 41.526 168.764 41.8125C168.04 42.0937 167.212 42.2344 166.279 42.2344ZM182.25 34.8281V37.1484H175.859V34.8281H182.25ZM176.734 30V42H174.008V30H176.734ZM184.102 30V42H181.383V30H184.102ZM189.69 38.1719L194.494 30H197.4V42H194.666V33.8203L189.877 42H186.963V30H189.69V38.1719ZM205.617 42.2344C204.414 42.2344 203.375 41.9844 202.5 41.4844C201.63 40.9792 200.961 40.2656 200.492 39.3437C200.024 38.4167 199.789 37.3255 199.789 36.0703C199.789 34.8359 200.024 33.7526 200.492 32.8203C200.966 31.8828 201.628 31.1536 202.477 30.6328C203.326 30.1068 204.323 29.8438 205.469 29.8438C206.208 29.8438 206.906 29.9635 207.563 30.2031C208.224 30.4375 208.807 30.8021 209.313 31.2969C209.823 31.7917 210.224 32.4219 210.516 33.1875C210.807 33.9479 210.953 34.8542 210.953 35.9062V36.7734H201.117V34.8672H208.242C208.237 34.3255 208.12 33.8437 207.891 33.4219C207.662 32.9948 207.341 32.6589 206.93 32.4141C206.524 32.1693 206.05 32.0469 205.508 32.0469C204.93 32.0469 204.422 32.1875 203.984 32.4687C203.547 32.7448 203.206 33.1094 202.961 33.5625C202.721 34.0104 202.599 34.5026 202.594 35.0391V36.7031C202.594 37.401 202.721 38 202.977 38.5C203.232 38.9948 203.589 39.375 204.047 39.6406C204.505 39.901 205.042 40.0312 205.656 40.0312C206.068 40.0312 206.44 39.974 206.774 39.8594C207.107 39.7396 207.396 39.5651 207.641 39.3359C207.886 39.1068 208.07 38.8229 208.195 38.4844L210.836 38.7812C210.669 39.4792 210.352 40.0885 209.883 40.6094C209.419 41.125 208.826 41.526 208.102 41.8125C207.378 42.0937 206.55 42.2344 205.617 42.2344Z" fill="#313F52"/>
</svg>
