<?xml version="1.0" encoding="UTF-8" standalone="no"?>
<!DOCTYPE svg PUBLIC "-//W3C//DTD SVG 1.1//EN" "http://www.w3.org/Graphics/SVG/1.1/DTD/svg11.dtd">
<svg width="100%" height="100%" viewBox="0 0 84 24" version="1.1" xmlns="http://www.w3.org/2000/svg" xmlns:xlink="http://www.w3.org/1999/xlink" xml:space="preserve" xmlns:serif="http://www.serif.com/" style="fill-rule:evenodd;clip-rule:evenodd;stroke-linejoin:round;stroke-miterlimit:2;">
    <g transform="matrix(1,0,0,1,735,-1643)">
        <g transform="matrix(1,0,0,1.24,-2126.07,977.624)">
            <rect id="open1" x="1391.16" y="536.805" width="83.466" height="18.965" style="fill:rgb(246,246,246);"/>
            <clipPath id="_clip1">
                <rect id="open11" serif:id="open1" x="1391.16" y="536.805" width="83.466" height="18.965"/>
            </clipPath>
            <g clip-path="url(#_clip1)">
                <g transform="matrix(0.00674367,0,0,0.642783,1464.04,191.756)">
                    <path d="M1570.55,536.805L1391.16,537.78L1391.16,570.866L1570.55,570.866L1570.55,536.805Z" style="fill:rgb(152,152,152);"/>
                </g>
                <g transform="matrix(4.12931e-19,-0.00543845,5.24891,2.59196e-16,-1426.48,545.346)">
                    <path d="M1570.55,536.805L1391.16,536.805L1391.16,570.751L1570.55,570.981L1570.55,536.805Z" style="fill:white;"/>
                </g>
                <g transform="matrix(-0.00674367,-6.66018e-19,1.0196e-16,-0.671425,1401.76,920.098)">
                    <path d="M1570.55,536.805L1391.16,537.78L1391.16,570.866L1570.55,570.866L1570.55,536.805Z" style="fill:white;"/>
                </g>
                <g transform="matrix(-1.23879e-18,0.00543845,-5.24891,-7.77588e-16,4388.19,547.228)">
                    <path d="M1570.55,536.805L1391.16,536.805L1391.16,570.751L1570.55,570.981L1570.55,536.805Z" style="fill:rgb(152,152,152);"/>
                </g>
                <g transform="matrix(1,0,0,0.806452,1383.75,540.542)">
                    <g transform="matrix(12,0,0,12,72.3909,11.4107)">
                    </g>
                    <text x="25.768px" y="11.411px" style="font-family:'Tahoma', sans-serif;font-size:12px;">Открыть</text>
                </g>
            </g>
        </g>
    </g>
</svg>
