<?xml version="1.0" encoding="UTF-8" standalone="no"?>
<!DOCTYPE svg PUBLIC "-//W3C//DTD SVG 1.1//EN" "http://www.w3.org/Graphics/SVG/1.1/DTD/svg11.dtd">
<svg width="100%" height="100%" viewBox="0 0 39 40" version="1.1" xmlns="http://www.w3.org/2000/svg" xmlns:xlink="http://www.w3.org/1999/xlink" xml:space="preserve" xmlns:serif="http://www.serif.com/" style="fill-rule:evenodd;clip-rule:evenodd;stroke-linejoin:round;stroke-miterlimit:2;">
    <g transform="matrix(1,0,0,1,39,193)">
        <g transform="matrix(1,0,0,1,119.736,-849.977)">
            <g transform="matrix(0.828339,0,0,0.828339,-23.9005,116.263)">
                <path d="M-115.696,661.699C-115.696,657.31 -119.259,653.747 -123.648,653.747L-154.813,653.747C-159.202,653.747 -162.765,657.31 -162.765,661.699L-162.765,692.864C-162.765,697.253 -159.202,700.816 -154.813,700.816L-123.648,700.816C-119.259,700.816 -115.696,697.253 -115.696,692.864L-115.696,661.699Z" style="fill:rgb(0,0,255);"/>
            </g>
            <g transform="matrix(1.41702,0,0,1.41702,141.513,-303.253)">
                <path d="M-204.931,688.799L-209.011,697.773L-205.245,697.773L-201.48,688.799L-193.133,688.799C-193.133,688.799 -189.869,688.61 -189.807,690.43C-190.873,690.43 -193.635,690.493 -195.141,690.932C-196.647,691.372 -197.965,692.815 -197.965,692.815L-192.442,692.815C-192.442,692.815 -191.438,691.909 -189.744,691.909C-189.744,692.752 -189.681,695.137 -191.062,695.137L-198.541,695.137C-198.541,695.137 -201.542,694.949 -202.17,697.773L-191.25,697.773C-191.25,697.773 -187.171,696.581 -187.171,694.886L-187.171,690.305C-187.171,690.305 -187.359,686.163 -190.999,686.163L-207.128,686.163C-207.128,686.163 -209.073,686.226 -209.073,688.799L-204.931,688.799" style="fill:white;"/>
            </g>
        </g>
    </g>
</svg>
