<?xml version="1.0" encoding="UTF-8" standalone="no"?>
<!DOCTYPE svg PUBLIC "-//W3C//DTD SVG 1.1//EN" "http://www.w3.org/Graphics/SVG/1.1/DTD/svg11.dtd">
<svg width="100%" height="100%" viewBox="0 0 71 133" version="1.1" xmlns="http://www.w3.org/2000/svg" xmlns:xlink="http://www.w3.org/1999/xlink" xml:space="preserve" xmlns:serif="http://www.serif.com/" style="fill-rule:evenodd;clip-rule:evenodd;stroke-linejoin:round;stroke-miterlimit:2;">
    <g transform="matrix(1,0,0,1,660,-303)">
        <g transform="matrix(1,0,0,1,340.437,0)">
            <g id="combar">
                <g transform="matrix(1,0,0,1,-196.611,-77.6096)">
                    <rect x="-802.685" y="381.728" width="68.336" height="130.222" style="fill:white;"/>
                    <path d="M-733.349,381.728L-733.349,511.951L-734.349,512.951L-802.685,512.951L-803.685,511.951L-803.685,381.728L-802.685,380.728L-734.349,380.728L-733.349,381.728ZM-734.349,381.728L-802.685,381.728L-802.685,511.951L-734.349,511.951L-734.349,381.728Z" style="fill:rgb(60,60,60);"/>
                </g>
                <g transform="matrix(0.83665,0,0,13.8572,-316.765,-5049.16)">
                    <rect x="-754.802" y="386.473" width="19.244" height="9.088" style="fill:rgb(226,226,226);"/>
                </g>
                <g transform="matrix(0.243431,0,0,1.42326,-758.049,-240.598)">
                    <rect x="-754.802" y="386.473" width="19.244" height="9.088" style="fill:rgb(172,172,172);"/>
                </g>
            </g>
        </g>
    </g>
</svg>
