<?xml version="1.0" encoding="UTF-8" standalone="no"?>
<!DOCTYPE svg PUBLIC "-//W3C//DTD SVG 1.1//EN" "http://www.w3.org/Graphics/SVG/1.1/DTD/svg11.dtd">
<svg width="100%" height="100%" viewBox="0 0 224 152" version="1.1" xmlns="http://www.w3.org/2000/svg" xmlns:xlink="http://www.w3.org/1999/xlink" xml:space="preserve" xmlns:serif="http://www.serif.com/" style="fill-rule:evenodd;clip-rule:evenodd;stroke-linecap:square;stroke-linejoin:bevel;stroke-miterlimit:1.5;">
    <g transform="matrix(1,0,0,1,483,-5)">
        <g transform="matrix(1,0,0,1,-84.98,-1022.35)">
            <path id="libVer" d="M-174.459,1031.09C-174.459,1029.12 -176.055,1027.52 -178.022,1027.52L-394.25,1027.52C-396.217,1027.52 -397.813,1029.12 -397.813,1031.09L-397.813,1174.95C-397.813,1176.92 -396.217,1178.51 -394.25,1178.51L-178.022,1178.51C-176.055,1178.51 -174.459,1176.92 -174.459,1174.95L-174.459,1031.09Z" style="fill:white;"/>
            <clipPath id="_clip1">
                <path id="libVer1" serif:id="libVer" d="M-174.459,1031.09C-174.459,1029.12 -176.055,1027.52 -178.022,1027.52L-394.25,1027.52C-396.217,1027.52 -397.813,1029.12 -397.813,1031.09L-397.813,1174.95C-397.813,1176.92 -396.217,1178.51 -394.25,1178.51L-178.022,1178.51C-176.055,1178.51 -174.459,1176.92 -174.459,1174.95L-174.459,1031.09Z"/>
            </clipPath>
            <g clip-path="url(#_clip1)">
                <g transform="matrix(1.1406,0,0,0.800532,48.666,211.063)">
                    <rect x="-396.811" y="1019.9" width="209.834" height="33.488" style="fill:rgb(243,243,243);"/>
                </g>
                <g transform="matrix(1.1406,0,0,1.33245,48.666,-220.106)">
                    <rect x="-396.811" y="1019.9" width="209.834" height="33.488" style="fill:rgb(243,243,243);"/>
                </g>
                <g transform="matrix(1,0,0,1,-416.864,1032.36)">
                    <g transform="matrix(12,0,0,12,157.112,11.4107)">
                    </g>
                    <text x="25.768px" y="11.411px" style="font-family:'Tahoma', sans-serif;font-size:12px;">Конфигуратор СЭТ-4TM</text>
                </g>
                <g transform="matrix(0.906997,0,0,1.24,-1522.42,480.585)">
                    <rect x="1391.16" y="536.805" width="83.466" height="18.965" style="fill:rgb(246,246,246);"/>
                    <clipPath id="_clip2">
                        <rect x="1391.16" y="536.805" width="83.466" height="18.965"/>
                    </clipPath>
                    <g clip-path="url(#_clip2)">
                        <g transform="matrix(0.00674367,0,0,0.642783,1464.04,191.756)">
                            <path d="M1570.55,536.805L1391.16,537.78L1391.16,570.866L1570.55,570.866L1570.55,536.805Z" style="fill:rgb(152,152,152);"/>
                        </g>
                        <g transform="matrix(4.12931e-19,-0.00543845,5.24891,2.59196e-16,-1426.48,545.346)">
                            <path d="M1570.55,536.805L1391.16,536.805L1391.16,570.751L1570.55,570.981L1570.55,536.805Z" style="fill:white;"/>
                        </g>
                        <g transform="matrix(-0.00674367,-6.66018e-19,1.0196e-16,-0.671425,1401.76,920.098)">
                            <path d="M1570.55,536.805L1391.16,537.78L1391.16,570.866L1570.55,570.866L1570.55,536.805Z" style="fill:white;"/>
                        </g>
                        <g transform="matrix(-1.23879e-18,0.00543845,-5.24891,-7.77588e-16,4388.19,547.228)">
                            <path d="M1570.55,536.805L1391.16,536.805L1391.16,570.751L1570.55,570.981L1570.55,536.805Z" style="fill:rgb(152,152,152);"/>
                        </g>
                    </g>
                </g>
                <g transform="matrix(1,0,0,1,-296.938,79.7087)">
                    <g transform="matrix(0.707107,0.707107,-0.707107,0.707107,796.343,290.664)">
                        <path d="M-13.633,953.818L-13.633,970.063" style="fill:none;stroke:black;stroke-width:2px;"/>
                    </g>
                    <g transform="matrix(0.707107,-0.707107,0.707107,0.707107,-564.045,271.383)">
                        <path d="M-13.633,953.818L-13.633,970.063" style="fill:none;stroke:black;stroke-width:2px;"/>
                    </g>
                </g>
                <g transform="matrix(1,0,0,1,-256.613,1150.36)">
                    <g transform="matrix(12,0,0,12,41.3128,11.4107)">
                    </g>
                    <text x="25.768px" y="11.411px" style="font-family:'Tahoma', sans-serif;font-size:12px;">OK</text>
                </g>
            </g>
        </g>
    </g>
</svg>
